<svg width="92" height="124" viewBox="0 0 92 124" fill="none" xmlns="http://www.w3.org/2000/svg">
<g filter="url(#filter0_d_108_83)">
<path d="M69.7951 74.2808C63.5083 79.6574 55.7653 82.7557 47.7199 83.1762C47.7854 82.7369 47.8829 82.2274 48.0157 81.6435C48.5653 79.2267 49.5124 76.3335 50.5977 73.0183C51.1737 71.259 51.7885 69.3808 52.4035 67.3919C54.0757 61.984 55.704 55.8583 55.6507 50.5839C55.6237 47.9074 55.1665 45.1317 53.8009 42.6998C52.3737 40.158 50.112 38.2795 47.0673 37.2785C40.7613 35.2052 35.7238 38.3577 32.2173 42.3498C28.7732 46.2708 26.0305 51.7759 23.7944 56.7349C23.0017 58.4928 22.2788 60.1639 21.6044 61.7229C20.2589 64.833 19.1066 67.4967 17.9791 69.5121C17.8638 69.7184 17.7553 69.9048 17.6541 70.073C12.2906 63.8231 8.93931 55.9214 8.14268 47.4924C7.27627 38.3251 9.48953 29.1414 14.3824 21.5104C19.2734 13.8824 26.5272 8.2926 34.8813 5.65171C43.2321 3.01186 52.2003 3.46953 60.27 6.95287C68.3435 10.4379 75.0452 16.7493 79.2 24.8497C83.3561 32.9527 84.6934 42.3226 82.9694 51.3543C81.2457 60.385 76.5762 68.4813 69.7951 74.2808Z" stroke="url(#paint0_linear_108_83)" stroke-width="7.91751"/>
<path d="M69.7951 74.2808C63.5083 79.6574 55.7653 82.7557 47.7199 83.1762C47.7854 82.7369 47.8829 82.2274 48.0157 81.6435C48.5653 79.2267 49.5124 76.3335 50.5977 73.0183C51.1737 71.259 51.7885 69.3808 52.4035 67.3919C54.0757 61.984 55.704 55.8583 55.6507 50.5839C55.6237 47.9074 55.1665 45.1317 53.8009 42.6998C52.3737 40.158 50.112 38.2795 47.0673 37.2785C40.7613 35.2052 35.7238 38.3577 32.2173 42.3498C28.7732 46.2708 26.0305 51.7759 23.7944 56.7349C23.0017 58.4928 22.2788 60.1639 21.6044 61.7229C20.2589 64.833 19.1066 67.4967 17.9791 69.5121C17.8638 69.7184 17.7553 69.9048 17.6541 70.073C12.2906 63.8231 8.93931 55.9214 8.14268 47.4924C7.27627 38.3251 9.48953 29.1414 14.3824 21.5104C19.2734 13.8824 26.5272 8.2926 34.8813 5.65171C43.2321 3.01186 52.2003 3.46953 60.27 6.95287C68.3435 10.4379 75.0452 16.7493 79.2 24.8497C83.3561 32.9527 84.6934 42.3226 82.9694 51.3543C81.2457 60.385 76.5762 68.4813 69.7951 74.2808Z" stroke="url(#paint1_linear_108_83)" stroke-width="7.91751"/>
<path d="M31.4473 43.1504C19.268 62.096 10.382 88.0474 9.37457 107.719C9.25602 110.034 11.15 111.901 13.4679 111.901H79.5091C86.0499 111.378 81.3624 91.7714 70.5071 78.3833" stroke="url(#paint2_linear_108_83)" stroke-width="7.48552"/>
</g>
<defs>
<filter id="filter0_d_108_83" x="0" y="0" width="91.6619" height="123.644" filterUnits="userSpaceOnUse" color-interpolation-filters="sRGB">
<feFlood flood-opacity="0" result="BackgroundImageFix"/>
<feColorMatrix in="SourceAlpha" type="matrix" values="0 0 0 0 0 0 0 0 0 0 0 0 0 0 0 0 0 0 127 0" result="hardAlpha"/>
<feOffset dy="4"/>
<feGaussianBlur stdDeviation="2"/>
<feComposite in2="hardAlpha" operator="out"/>
<feColorMatrix type="matrix" values="0 0 0 0 0 0 0 0 0 0 0 0 0 0 0 0 0 0 0.25 0"/>
<feBlend mode="normal" in2="BackgroundImageFix" result="effect1_dropShadow_108_83"/>
<feBlend mode="normal" in="SourceGraphic" in2="effect1_dropShadow_108_83" result="shape"/>
</filter>
<linearGradient id="paint0_linear_108_83" x1="45.8309" y1="1.61082e-05" x2="45.8309" y2="87.1843" gradientUnits="userSpaceOnUse">
<stop/>
<stop offset="1" stop-opacity="0"/>
</linearGradient>
<linearGradient id="paint1_linear_108_83" x1="45.8309" y1="1.61082e-05" x2="45.8309" y2="87.1843" gradientUnits="userSpaceOnUse">
<stop stop-color="#796AD6"/>
<stop offset="0.515625" stop-color="#6466FA"/>
<stop offset="0.8125" stop-color="#4749C9"/>
<stop offset="1" stop-color="#7173DB"/>
</linearGradient>
<linearGradient id="paint2_linear_108_83" x1="44.3953" y1="9.84407" x2="44.3953" y2="111.901" gradientUnits="userSpaceOnUse">
<stop stop-color="#3033FF"/>
<stop offset="0.0001" stop-color="#3033FF"/>
<stop offset="0.520833" stop-color="#7F80EF"/>
<stop offset="0.739583" stop-color="#4749C2"/>
<stop offset="1" stop-color="#4446C1"/>
</linearGradient>
</defs>
</svg>
