<?xml version="1.0" encoding="UTF-8"?>
<!DOCTYPE svg PUBLIC "-//W3C//DTD SVG 1.1//EN" "http://www.w3.org/Graphics/SVG/1.1/DTD/svg11.dtd">
<!-- Creator: CorelDRAW X5 -->
<svg xmlns="http://www.w3.org/2000/svg" xml:space="preserve" width="135.467mm" height="20.1506mm" style="shape-rendering:geometricPrecision; text-rendering:geometricPrecision; image-rendering:optimizeQuality; fill-rule:evenodd; clip-rule:evenodd"
viewBox="0 0 13547 2015"
 xmlns:xlink="http://www.w3.org/1999/xlink"
 xmlns:svg="http://www.w3.org/2000/svg">
 <defs>
  <style type="text/css">
   <![CDATA[
    .fil1 {fill:white;fill-rule:nonzero}
    .fil0 {fill:url(#id0);fill-rule:nonzero}
   ]]>
  </style>
  <linearGradient id="id0" gradientUnits="userSpaceOnUse" x1="210.08" y1="2042.99" x2="2047.02" y2="-27.93">
   <stop offset="0" style="stop-color:#9944FF"/>
   <stop offset="0.0784314" style="stop-color:#9944FF"/>
   <stop offset="0.301961" style="stop-color:#8752F2"/>
   <stop offset="0.501961" style="stop-color:#5497D4"/>
   <stop offset="0.6" style="stop-color:#42B3CA"/>
   <stop offset="0.721569" style="stop-color:#28DFB8"/>
   <stop offset="0.968627" style="stop-color:#18FB9A"/>
   <stop offset="1" style="stop-color:#18FB9A"/>
  </linearGradient>
 </defs>
 <g id="Layer_x0020_1">
  <metadata id="CorelCorpID_0Corel-Layer"/>
 </g>
 <g id="Layer_x0020_1_0">
  <metadata id="CorelCorpID_1Corel-Layer"/>
  <g id="_348084608">
   <path class="fil0" d="M2245 1590l-373 400c-8,9 -18,16 -29,20 -11,5 -22,7 -34,7l-1 0 -1766 0 0 0c-8,0 -16,-3 -23,-7 -7,-5 -13,-11 -16,-19 -3,-8 -4,-16 -3,-25 1,-8 5,-16 11,-22l372 -400c8,-9 18,-16 29,-20 11,-5 23,-7 34,-7l1766 0c8,0 17,2 24,7 7,5 13,11 16,19 3,8 5,16 3,25 -1,8 -5,16 -11,22zm-373 -805l0 0c-8,-9 -18,-16 -29,-20 -11,-5 -23,-7 -34,-7l-1766 0c-8,0 -17,2 -24,7 -7,5 -13,11 -16,19 -3,8 -4,16 -3,25 1,8 5,16 11,22l372 400c8,9 18,16 29,20 11,5 23,7 34,7l1766 0c8,0 17,-3 24,-7 7,-5 13,-11 16,-19 3,-8 4,-16 3,-25 -1,-8 -5,-16 -11,-22l-372 -400zm-1829 -287l0 0 1766 0c12,0 24,-2 34,-7 11,-5 21,-12 29,-20l373 -400c6,-6 10,-14 11,-22 1,-8 0,-17 -3,-25 -3,-8 -9,-14 -16,-19 -7,-4 -14,-7 -22,-7l-2 0 -1766 0 -1 0c-12,0 -23,3 -34,7 -11,5 -21,12 -29,20l-372 400c-6,6 -10,14 -11,22 -1,8 0,17 3,25 3,8 9,14 16,19 7,5 15,7 24,7z"/>
   <path class="fil1" d="M4399 852l-945 0 0 -311 1191 0 0 -311 -1194 0c-41,0 -81,8 -119,23 -38,15 -72,38 -101,67 -29,29 -52,63 -68,100 -16,38 -24,78 -24,119l0 315c0,41 8,81 24,119 16,38 39,72 68,101 29,29 63,51 101,67 38,15 78,23 119,23l946 0 0 311 -1236 0 0 311 1238 0c41,0 81,-8 119,-23 38,-15 72,-38 101,-67 29,-29 52,-63 68,-100 16,-38 24,-78 24,-119l0 -315c0,-41 -8,-81 -24,-119 -16,-38 -39,-72 -68,-101 -29,-29 -63,-51 -101,-67 -38,-15 -78,-23 -119,-23z"/>
   <path class="fil1" d="M6229 230l-949 0c-41,0 -81,7 -119,23 -38,15 -72,38 -101,67 -29,29 -52,63 -68,100 -16,38 -24,78 -24,119l0 938c0,41 9,81 24,119 16,38 39,72 68,100 29,29 64,51 101,67 38,15 78,23 119,23l949 0c41,0 81,-8 119,-23 38,-15 72,-38 101,-67 29,-29 52,-63 68,-100 16,-38 24,-78 24,-119l0 -938c0,-41 -8,-81 -24,-119 -16,-38 -39,-72 -68,-100 -29,-29 -63,-51 -101,-67 -38,-15 -78,-23 -119,-23zm-2 1245l0 0 -944 0 0 -934 943 0 0 934z"/>
   <path class="fil1" d="M9552 230l-925 0c-41,0 -81,8 -119,23 -38,15 -72,38 -101,67 -29,29 -52,63 -68,100 -16,38 -24,78 -24,119l0 1247 315 0 0 -511 921 0 0 511 315 0 0 -1247c0,-41 -9,-81 -24,-119 -16,-38 -39,-72 -68,-101 -29,-29 -64,-51 -102,-67 -38,-15 -79,-23 -120,-22zm-2 734l0 0 -921 0 0 -422 921 0 0 422z"/>
   <path class="fil1" d="M13234 230l-925 0c-41,0 -81,8 -119,23 -38,15 -72,38 -101,67 -29,29 -52,63 -68,100 -16,38 -24,78 -24,119l0 1247 315 0 0 -511 919 0 0 511 315 0 0 -1247c0,-41 -8,-81 -24,-119 -16,-38 -39,-72 -68,-100 -29,-29 -63,-51 -101,-67 -38,-15 -78,-23 -119,-23zm-3 734l0 0 -921 0 0 -422 921 0 0 422z"/>
   <path class="fil1" d="M11402 1474l-126 0 -451 -1114c-15,-38 -42,-71 -76,-95 -34,-23 -75,-36 -116,-36l-280 0c-27,0 -54,5 -79,15 -25,10 -48,25 -67,45 -19,19 -35,42 -45,67 -11,25 -16,52 -16,79l0 1350 315 0 0 -1245 126 0 451 1114c16,38 43,71 77,94 34,23 75,35 116,35l280 0c27,0 54,-5 79,-15 25,-10 48,-25 67,-45 19,-19 35,-42 45,-67 11,-25 16,-52 16,-79l0 -1349 -316 0 0 1245z"/>
   <path class="fil1" d="M7136 230l-315 0 0 1247c0,41 9,81 24,119 16,38 39,72 68,101 29,29 64,51 101,67 38,15 78,23 119,23l946 0 0 -311 -944 0 0 -1245z"/>
  </g>
 </g>
</svg>
