<svg width="100" height="100" viewBox="0 0 100 100" fill="none" xmlns="http://www.w3.org/2000/svg">
<rect width="100" height="100" rx="20" fill="#1E1E21"/>
<path d="M69.0909 38.9091L58.1818 49.8182H66.3636C66.3636 58.8455 59.0273 66.1818 50 66.1818C47.2455 66.1818 44.6273 65.5 42.3636 64.2727L38.3818 68.2545C41.7364 70.3818 45.7182 71.6364 50 71.6364C62.0545 71.6364 71.8182 61.8727 71.8182 49.8182H80L69.0909 38.9091ZM33.6364 49.8182C33.6364 40.7909 40.9727 33.4545 50 33.4545C52.7545 33.4545 55.3727 34.1364 57.6364 35.3636L61.6182 31.3818C58.2636 29.2545 54.2818 28 50 28C37.9455 28 28.1818 37.7636 28.1818 49.8182H20L30.9091 60.7273L41.8182 49.8182H33.6364Z" fill="white"/>
</svg>
