<svg width="100" height="100" viewBox="0 0 100 100" fill="none" xmlns="http://www.w3.org/2000/svg">
<rect width="100" height="100" rx="20" fill="#1E1E21"/>
<path d="M50 59.5C52.75 59.5 55 57.25 55 54.5C55 51.75 52.75 49.5 50 49.5C47.25 49.5 45 51.75 45 54.5C45 57.25 47.25 59.5 50 59.5ZM65 37H62.5V32C62.5 25.1 56.9 19.5 50 19.5C43.1 19.5 37.5 25.1 37.5 32H42.25C42.25 27.725 45.725 24.25 50 24.25C54.275 24.25 57.75 27.725 57.75 32V37H35C32.25 37 30 39.25 30 42V67C30 69.75 32.25 72 35 72H65C67.75 72 70 69.75 70 67V42C70 39.25 67.75 37 65 37ZM65 67H35V42H65V67Z" fill="white"/>
</svg>
