<svg width="505" height="682" viewBox="0 0 505 682" fill="none" xmlns="http://www.w3.org/2000/svg">
<path d="M0 32.0001C0 14.3269 14.3269 0 32 0H497.378C515.051 0 529.378 14.3269 529.378 32V649.733C529.378 667.406 515.051 681.733 497.378 681.733H32C14.3269 681.733 0 667.406 0 649.733V32.0001Z" fill="black"/>
<path d="M146.831 228.849V220.626H155.503C157.387 220.626 158.822 220.177 159.807 219.277C160.835 218.335 161.349 217.072 161.349 215.487C161.349 213.946 160.835 212.704 159.807 211.761C158.822 210.776 157.387 210.284 155.503 210.284H146.831V201.74H157.109C160.192 201.74 162.89 202.318 165.203 203.475C167.558 204.631 169.4 206.215 170.727 208.228C172.055 210.241 172.719 212.597 172.719 215.295C172.719 217.993 172.034 220.369 170.663 222.425C169.336 224.438 167.473 226.022 165.074 227.179C162.676 228.292 159.871 228.849 156.659 228.849H146.831ZM137.709 247.286V201.74H149.207V247.286H137.709ZM162.376 247.286L149.143 227.757L159.486 225.252L175.674 247.286H162.376ZM191.007 247.928C188.095 247.928 185.504 247.221 183.235 245.808C180.965 244.395 179.187 242.468 177.903 240.027C176.618 237.543 175.976 234.738 175.976 231.611C175.976 228.442 176.618 225.616 177.903 223.132C179.187 220.648 180.965 218.721 183.235 217.35C185.504 215.937 188.095 215.23 191.007 215.23C192.977 215.23 194.776 215.594 196.404 216.322C198.031 217.008 199.359 217.993 200.386 219.277C201.457 220.562 202.099 222.018 202.314 223.646V239.448C202.099 241.119 201.457 242.596 200.386 243.881C199.359 245.123 198.031 246.108 196.404 246.836C194.776 247.564 192.977 247.928 191.007 247.928ZM193.384 237.971C195.226 237.971 196.703 237.371 197.817 236.172C198.973 234.973 199.551 233.431 199.551 231.547C199.551 230.305 199.294 229.213 198.78 228.271C198.266 227.329 197.538 226.579 196.596 226.022C195.697 225.466 194.648 225.187 193.449 225.187C192.249 225.187 191.179 225.466 190.237 226.022C189.337 226.579 188.609 227.35 188.052 228.335C187.539 229.277 187.282 230.348 187.282 231.547C187.282 232.789 187.539 233.902 188.052 234.887C188.566 235.83 189.294 236.579 190.237 237.136C191.179 237.693 192.228 237.971 193.384 237.971ZM199.102 247.286V238.87L200.708 231.162L199.102 223.581V215.873H210.086V247.286H199.102ZM225.988 247.35L213.397 215.873H225.346L233.054 241.761H228.365L236.138 215.873H248.086L235.174 247.286L225.988 247.35ZM218.536 260.583L227.851 240.091L235.174 247.286L229.778 260.583H218.536ZM248.794 247.286L266.46 201.74H277.573L295.046 247.286H283.033L269.864 208.999H274.04L260.55 247.286H248.794ZM259.522 239.32V230.198H284.639V239.32H259.522ZM312.301 247.992C309.346 247.992 306.713 247.414 304.4 246.258C302.13 245.059 300.332 243.41 299.004 241.311C297.719 239.17 297.077 236.75 297.077 234.052V215.873H308.254V234.052C308.254 234.909 308.426 235.658 308.768 236.301C309.111 236.943 309.582 237.436 310.182 237.778C310.781 238.121 311.488 238.292 312.301 238.292C313.501 238.292 314.464 237.907 315.192 237.136C315.963 236.365 316.349 235.337 316.349 234.052V215.873H327.526V234.052C327.526 236.793 326.884 239.213 325.599 241.311C324.314 243.41 322.515 245.059 320.203 246.258C317.933 247.414 315.299 247.992 312.301 247.992ZM337.535 247.286V202.896H348.712V247.286H337.535ZM330.597 225.187V215.873H355.65V225.187H330.597ZM379.943 247.286V229.556C379.943 228.1 379.514 226.965 378.658 226.151C377.801 225.294 376.709 224.866 375.382 224.866C374.482 224.866 373.669 225.059 372.941 225.444C372.255 225.83 371.72 226.365 371.335 227.05C370.949 227.736 370.757 228.571 370.757 229.556L366.388 227.5C366.388 224.973 366.902 222.811 367.93 221.012C369.001 219.17 370.457 217.757 372.298 216.772C374.14 215.744 376.281 215.23 378.722 215.23C381.249 215.23 383.433 215.744 385.275 216.772C387.159 217.757 388.594 219.127 389.579 220.883C390.606 222.639 391.12 224.673 391.12 226.986V247.286H379.943ZM359.579 247.286V200.455H370.757V247.286H359.579Z" fill="white"/>
<path d="M287.743 134.696C281.456 140.073 273.713 143.171 265.668 143.592C265.733 143.152 265.831 142.643 265.963 142.059C266.513 139.642 267.46 136.749 268.545 133.434C269.121 131.674 269.736 129.796 270.351 127.807C272.023 122.4 273.652 116.274 273.598 110.999C273.571 108.323 273.114 105.547 271.749 103.115C270.321 100.574 268.06 98.695 265.015 97.694C258.709 95.6207 253.672 98.7733 250.165 102.765C246.721 106.686 243.978 112.191 241.742 117.15C240.95 118.908 240.227 120.579 239.552 122.138C238.207 125.249 237.054 127.912 235.927 129.928C235.812 130.134 235.703 130.32 235.602 130.489C230.238 124.239 226.887 116.337 226.09 107.908C225.224 98.7407 227.437 89.557 232.33 81.9259C237.221 74.2979 244.475 68.7081 252.829 66.0672C261.18 63.4274 270.148 63.8851 278.218 67.3684C286.291 70.8534 292.993 77.1648 297.148 85.2652C301.304 93.3682 302.641 102.738 300.917 111.77C299.193 120.8 294.524 128.897 287.743 134.696Z" stroke="url(#paint0_linear_2_17)" stroke-width="7.91751"/>
<path d="M287.743 134.696C281.456 140.073 273.713 143.171 265.668 143.592C265.733 143.152 265.831 142.643 265.963 142.059C266.513 139.642 267.46 136.749 268.545 133.434C269.121 131.674 269.736 129.796 270.351 127.807C272.023 122.4 273.652 116.274 273.598 110.999C273.571 108.323 273.114 105.547 271.749 103.115C270.321 100.574 268.06 98.695 265.015 97.694C258.709 95.6207 253.672 98.7733 250.165 102.765C246.721 106.686 243.978 112.191 241.742 117.15C240.95 118.908 240.227 120.579 239.552 122.138C238.207 125.249 237.054 127.912 235.927 129.928C235.812 130.134 235.703 130.32 235.602 130.489C230.238 124.239 226.887 116.337 226.09 107.908C225.224 98.7407 227.437 89.557 232.33 81.9259C237.221 74.2979 244.475 68.7081 252.829 66.0672C261.18 63.4274 270.148 63.8851 278.218 67.3684C286.291 70.8534 292.993 77.1648 297.148 85.2652C301.304 93.3682 302.641 102.738 300.917 111.77C299.193 120.8 294.524 128.897 287.743 134.696Z" stroke="url(#paint1_linear_2_17)" stroke-width="7.91751"/>
<path d="M249.395 103.566C237.216 122.511 228.33 148.463 227.322 168.134C227.204 170.449 229.098 172.316 231.416 172.316H297.457C303.998 171.793 299.31 152.187 288.455 138.799" stroke="url(#paint2_linear_2_17)" stroke-width="7.48552"/>
<path opacity="0.1" d="M30.0802 314.653H497.428V313.378H30.0802V314.653Z" fill="black"/>
<path d="M237.199 317.547C236.431 317.837 235.56 317.983 234.585 317.983C231.39 317.983 229.793 316.437 229.793 313.346C229.793 310.421 231.39 308.958 234.585 308.958C235.56 308.958 236.431 309.104 237.199 309.394V310.888C236.431 310.556 235.601 310.39 234.709 310.39C232.573 310.39 231.504 311.375 231.504 313.346C231.504 315.483 232.573 316.551 234.709 316.551C235.601 316.551 236.431 316.385 237.199 316.053V317.547ZM239.937 314.628C239.937 315.993 240.466 316.676 241.524 316.676C242.582 316.676 243.111 315.993 243.111 314.628C243.111 313.296 242.582 312.63 241.524 312.63C240.466 312.63 239.937 313.296 239.937 314.628ZM238.288 314.653C238.288 312.462 239.367 311.367 241.524 311.367C243.682 311.367 244.76 312.462 244.76 314.653C244.76 316.84 243.682 317.933 241.524 317.933C239.375 317.933 238.296 316.84 238.288 314.653ZM246.005 317.92V311.386H247.281L247.486 312.344C248.113 311.705 248.826 311.386 249.627 311.386C251.175 311.386 251.949 312.191 251.949 313.8V317.92H250.299V313.8C250.299 313.078 249.941 312.718 249.223 312.718C248.688 312.718 248.165 312.931 247.654 313.359V317.92H246.005ZM253.417 310.328H254.637L254.886 311.386H256.529V312.693H255.067V315.699C255.067 316.309 255.33 316.613 255.857 316.613H256.529V317.92H255.06C253.965 317.92 253.417 317.333 253.417 316.159V310.328ZM259.305 309.021V310.328H257.656V309.021H259.305ZM259.305 311.386V317.92H257.656V311.386H259.305ZM260.867 317.92V311.386H262.143L262.348 312.344C262.975 311.705 263.688 311.386 264.489 311.386C266.037 311.386 266.811 312.191 266.811 313.8V317.92H265.161V313.8C265.161 313.078 264.802 312.718 264.085 312.718C263.549 312.718 263.027 312.931 262.516 313.359V317.92H260.867ZM274.254 311.386V317.92H272.966L272.766 317.086C272.015 317.642 271.219 317.92 270.377 317.92C269.041 317.92 268.373 317.13 268.373 315.549V311.386H270.022V315.506C270.022 316.228 270.337 316.589 270.968 316.589C271.503 316.589 272.049 316.375 272.605 315.948V311.386H274.254ZM278.573 311.386C280.556 311.386 281.548 312.398 281.548 314.423C281.548 314.692 281.529 314.962 281.492 315.232H277.154C277.154 316.153 277.83 316.613 279.183 316.613C279.843 316.613 280.502 316.551 281.162 316.427V317.734C280.585 317.858 279.884 317.92 279.058 317.92C276.689 317.92 275.505 316.806 275.505 314.578C275.505 312.45 276.528 311.386 278.573 311.386ZM277.154 314.087H279.942V314.037C279.942 313.132 279.486 312.68 278.573 312.68C277.702 312.68 277.229 313.149 277.154 314.087ZM285.027 311.386H286.689L287.535 315.935L289.047 311.386H290.46L292.091 315.935L292.825 311.386H294.543L292.837 317.92H291.288L289.751 313.284L288.195 317.92H286.62L285.027 311.386ZM297.194 309.021V310.328H295.545V309.021H297.194ZM297.194 311.386V317.92H295.545V311.386H297.194ZM298.663 310.328H299.883L300.131 311.386H301.774V312.693H300.312V315.699C300.312 316.309 300.575 316.613 301.102 316.613H301.774V317.92H300.306C299.21 317.92 298.663 317.333 298.663 316.159V310.328ZM302.901 317.92V309.021H304.55V312.22C305.065 311.664 305.722 311.386 306.523 311.386C308.071 311.386 308.844 312.191 308.844 313.8V317.92H307.195V313.8C307.195 313.078 306.836 312.718 306.119 312.718C305.583 312.718 305.061 312.931 304.55 313.359V317.92H302.901Z" fill="white"/>
<path opacity="0.1" d="M30.0802 535.071H497.428V533.797H30.0802V535.071Z" fill="black"/>
<path d="M227.647 533.864C227.647 536.266 228.732 537.467 230.902 537.467C233.026 537.467 234.088 536.266 234.088 533.864C234.088 531.495 233.026 530.31 230.902 530.31C228.732 530.31 227.647 531.495 227.647 533.864ZM226.433 533.901C226.433 530.885 227.923 529.377 230.902 529.377C233.835 529.377 235.302 530.885 235.302 533.901C235.302 536.901 233.835 538.401 230.902 538.401C227.923 538.401 226.433 536.901 226.433 533.901ZM236.989 538.339V531.804H237.767L237.972 532.638C238.545 532.082 239.233 531.804 240.038 531.804V532.762C239.258 532.762 238.625 533.038 238.14 533.59V538.339H236.989ZM249.94 531.804V538.339H249.149L248.95 537.505C248.158 538.061 247.361 538.339 246.56 538.339C245.059 538.339 244.308 537.528 244.308 535.905V531.804H245.459V535.924C245.459 536.895 245.94 537.38 246.903 537.38C247.562 537.38 248.191 537.104 248.789 536.553V531.804H249.94ZM251.751 538.028V537.032C252.518 537.281 253.294 537.405 254.079 537.405C255.12 537.405 255.641 537.094 255.641 536.472C255.641 535.891 255.278 535.6 254.552 535.6H253.618C252.207 535.6 251.502 534.957 251.502 533.671C251.502 532.426 252.409 531.804 254.222 531.804C255.002 531.804 255.775 531.908 256.543 532.115V533.111C255.775 532.862 255.002 532.738 254.222 532.738C253.135 532.738 252.591 533.049 252.591 533.671C252.591 534.252 252.933 534.542 253.618 534.542H254.552C256.045 534.542 256.792 535.185 256.792 536.472C256.792 537.716 255.888 538.339 254.079 538.339C253.294 538.339 252.518 538.235 251.751 538.028ZM261.043 531.804C262.901 531.804 263.831 532.723 263.831 534.561C263.831 534.822 263.812 535.102 263.775 535.401H259.188C259.188 536.737 259.968 537.405 261.528 537.405C262.271 537.405 262.931 537.322 263.507 537.156V538.09C262.931 538.256 262.229 538.339 261.404 538.339C259.159 538.339 258.037 537.225 258.037 534.997C258.037 532.868 259.039 531.804 261.043 531.804ZM259.188 534.443H262.723C262.698 533.298 262.138 532.725 261.043 532.725C259.881 532.725 259.263 533.298 259.188 534.443ZM267.777 531.804H268.94L270.098 536.926L271.797 531.804H272.836L274.654 536.926L275.699 531.804H276.919L275.214 538.339H274.162L272.289 533.453L270.509 538.339H269.432L267.777 531.804ZM277.765 536.366C277.765 535.026 278.649 534.356 280.417 534.356C280.985 534.356 281.553 534.397 282.122 534.48V533.864C282.122 533.113 281.535 532.738 280.361 532.738C279.688 532.738 279 532.841 278.294 533.049V532.115C279 531.908 279.688 531.804 280.361 531.804C282.302 531.804 283.273 532.48 283.273 533.833V538.339H282.626L282.228 537.691C281.576 538.123 280.867 538.339 280.099 538.339C278.543 538.339 277.765 537.681 277.765 536.366ZM280.417 535.289C279.417 535.289 278.917 535.642 278.917 536.347C278.917 537.053 279.311 537.405 280.099 537.405C280.896 537.405 281.57 537.194 282.122 536.77V535.414C281.553 535.331 280.985 535.289 280.417 535.289ZM286.36 529.439V538.339H285.209V529.439H286.36ZM289.509 529.439V538.339H288.358V529.439H289.509ZM294.14 531.804C295.998 531.804 296.928 532.723 296.928 534.561C296.928 534.822 296.909 535.102 296.872 535.401H292.285C292.285 536.737 293.065 537.405 294.625 537.405C295.368 537.405 296.027 537.322 296.604 537.156V538.09C296.027 538.256 295.326 538.339 294.501 538.339C292.256 538.339 291.134 537.225 291.134 534.997C291.134 532.868 292.136 531.804 294.14 531.804ZM292.285 534.443H295.82C295.795 533.298 295.235 532.725 294.14 532.725C292.978 532.725 292.36 533.298 292.285 534.443ZM298.477 530.746H299.199L299.448 531.804H301.216V532.738H299.629V536.49C299.629 537.1 299.892 537.405 300.419 537.405H301.216V538.339H300.12C299.025 538.339 298.477 537.752 298.477 536.577V530.746Z" fill="white"/>
<rect x="57.1014" y="355.439" width="424.862" height="33.1392" rx="12" fill="white" fill-opacity="0.9"/>
<rect x="57.1014" y="443.641" width="424.862" height="33.1392" rx="12" fill="#212121" fill-opacity="0.9"/>
<rect x="57.1014" y="399.54" width="424.862" height="33.1392" rx="12" fill="#5865F2" fill-opacity="0.9"/>
<g clip-path="url(#clip0_2_17)">
<path d="M209.78 372.272C209.78 371.622 209.728 370.969 209.615 370.329H200.599V374.01H205.762C205.548 375.198 204.859 376.248 203.851 376.915V379.304H206.932C208.741 377.639 209.78 375.18 209.78 372.272Z" fill="#4285F4"/>
<path d="M200.598 381.612C203.177 381.612 205.351 380.765 206.935 379.304L203.855 376.915C202.997 377.498 201.891 377.829 200.602 377.829C198.108 377.829 195.993 376.146 195.235 373.884H192.056V376.346C193.679 379.574 196.984 381.612 200.598 381.612Z" fill="#34A853"/>
<path d="M195.231 373.884C194.831 372.697 194.831 371.411 195.231 370.224V367.762H192.056C190.7 370.463 190.7 373.645 192.056 376.346L195.231 373.884Z" fill="#FBBC04"/>
<path d="M200.598 366.276C201.961 366.255 203.278 366.768 204.266 367.709L206.995 364.98C205.267 363.357 202.973 362.465 200.598 362.493C196.984 362.493 193.679 364.53 192.056 367.762L195.231 370.224C195.986 367.958 198.105 366.276 200.598 366.276Z" fill="#EA4335"/>
</g>
<path d="M225.466 377.149C224.743 377.149 224.123 377.026 223.605 376.78C223.095 376.533 222.632 376.164 222.215 375.671L223.363 374.524C223.626 374.872 223.932 375.144 224.28 375.34C224.629 375.526 225.053 375.62 225.555 375.62C226.005 375.62 226.362 375.531 226.625 375.352C226.897 375.174 227.033 374.927 227.033 374.613C227.033 374.341 226.957 374.12 226.804 373.95C226.651 373.78 226.447 373.636 226.192 373.517C225.946 373.398 225.67 373.292 225.364 373.198C225.066 373.096 224.765 372.982 224.459 372.854C224.161 372.727 223.885 372.569 223.63 372.382C223.384 372.187 223.184 371.941 223.031 371.643C222.878 371.337 222.802 370.955 222.802 370.496C222.802 369.952 222.933 369.489 223.197 369.107C223.46 368.724 223.821 368.431 224.28 368.227C224.739 368.023 225.257 367.921 225.835 367.921C226.447 367.921 226.999 368.036 227.492 368.266C227.985 368.495 228.389 368.792 228.703 369.158L227.556 370.305C227.293 370.016 227.021 369.804 226.74 369.668C226.468 369.532 226.158 369.464 225.81 369.464C225.41 369.464 225.096 369.54 224.867 369.693C224.637 369.846 224.522 370.067 224.522 370.356C224.522 370.602 224.599 370.802 224.752 370.955C224.905 371.108 225.104 371.24 225.351 371.35C225.606 371.461 225.882 371.567 226.179 371.669C226.485 371.771 226.787 371.885 227.084 372.013C227.39 372.14 227.666 372.306 227.913 372.51C228.168 372.714 228.372 372.977 228.525 373.3C228.678 373.615 228.754 374.005 228.754 374.473C228.754 375.306 228.461 375.96 227.875 376.436C227.288 376.912 226.485 377.149 225.466 377.149ZM229.944 377.022V370.866H231.626V377.022H229.944ZM230.785 369.872C230.513 369.872 230.288 369.782 230.109 369.604C229.931 369.417 229.842 369.188 229.842 368.916C229.842 368.652 229.931 368.427 230.109 368.24C230.288 368.053 230.513 367.96 230.785 367.96C231.065 367.96 231.29 368.053 231.46 368.24C231.639 368.427 231.728 368.652 231.728 368.916C231.728 369.188 231.639 369.417 231.46 369.604C231.29 369.782 231.065 369.872 230.785 369.872ZM235.68 379.75C235.026 379.75 234.448 379.631 233.946 379.393C233.445 379.163 233.046 378.836 232.748 378.411L233.806 377.353C234.044 377.634 234.308 377.846 234.597 377.991C234.894 378.144 235.251 378.22 235.667 378.22C236.186 378.22 236.593 378.088 236.891 377.825C237.197 377.562 237.35 377.196 237.35 376.729V375.187L237.63 373.836L237.362 372.484V370.866H239.019V376.703C239.019 377.315 238.875 377.846 238.586 378.297C238.306 378.755 237.915 379.112 237.413 379.367C236.912 379.622 236.334 379.75 235.68 379.75ZM235.603 376.856C235.051 376.856 234.554 376.725 234.112 376.461C233.67 376.189 233.322 375.82 233.067 375.352C232.821 374.885 232.697 374.362 232.697 373.785C232.697 373.207 232.821 372.688 233.067 372.23C233.322 371.771 233.67 371.41 234.112 371.146C234.554 370.874 235.051 370.738 235.603 370.738C236.062 370.738 236.466 370.827 236.814 371.006C237.171 371.184 237.452 371.431 237.656 371.745C237.859 372.051 237.97 372.412 237.987 372.829V374.766C237.97 375.174 237.855 375.539 237.643 375.862C237.439 376.176 237.158 376.423 236.802 376.601C236.453 376.771 236.054 376.856 235.603 376.856ZM235.935 375.34C236.241 375.34 236.504 375.276 236.725 375.148C236.955 375.012 237.133 374.83 237.26 374.6C237.388 374.362 237.452 374.095 237.452 373.797C237.452 373.491 237.388 373.224 237.26 372.994C237.133 372.765 236.955 372.586 236.725 372.459C236.504 372.323 236.241 372.255 235.935 372.255C235.629 372.255 235.361 372.323 235.132 372.459C234.902 372.586 234.724 372.769 234.597 373.007C234.469 373.236 234.405 373.5 234.405 373.797C234.405 374.086 234.469 374.35 234.597 374.588C234.724 374.817 234.902 375 235.132 375.136C235.361 375.272 235.629 375.34 235.935 375.34ZM244.629 377.022V373.491C244.629 373.126 244.514 372.829 244.285 372.599C244.055 372.37 243.758 372.255 243.392 372.255C243.155 372.255 242.942 372.306 242.755 372.408C242.568 372.51 242.42 372.654 242.309 372.841C242.207 373.028 242.156 373.245 242.156 373.491L241.506 373.16C241.506 372.676 241.608 372.255 241.812 371.898C242.024 371.533 242.313 371.248 242.679 371.044C243.053 370.84 243.473 370.738 243.941 370.738C244.391 370.738 244.795 370.853 245.151 371.082C245.508 371.303 245.789 371.596 245.993 371.962C246.197 372.319 246.299 372.705 246.299 373.122V377.022H244.629ZM240.486 377.022V370.866H242.156V377.022H240.486ZM252.759 377.149C252.215 377.149 251.73 377.035 251.306 376.805C250.889 376.576 250.562 376.257 250.324 375.849C250.086 375.441 249.967 374.97 249.967 374.435V370.866H251.65V374.396C251.65 374.651 251.692 374.872 251.777 375.059C251.862 375.238 251.99 375.374 252.16 375.467C252.329 375.56 252.529 375.607 252.759 375.607C253.107 375.607 253.379 375.501 253.574 375.289C253.77 375.076 253.867 374.779 253.867 374.396V370.866H255.537V374.435C255.537 374.978 255.418 375.454 255.18 375.862C254.951 376.27 254.624 376.589 254.199 376.818C253.782 377.039 253.302 377.149 252.759 377.149ZM260.283 377.149C259.841 377.149 259.441 377.06 259.085 376.882C258.728 376.695 258.443 376.444 258.231 376.13C258.018 375.815 257.903 375.454 257.886 375.046V372.867C257.903 372.459 258.018 372.098 258.231 371.783C258.452 371.461 258.736 371.206 259.085 371.019C259.441 370.832 259.841 370.738 260.283 370.738C260.852 370.738 261.362 370.878 261.812 371.159C262.263 371.439 262.615 371.822 262.87 372.306C263.134 372.79 263.265 373.338 263.265 373.95C263.265 374.554 263.134 375.097 262.87 375.582C262.615 376.066 262.263 376.448 261.812 376.729C261.362 377.009 260.852 377.149 260.283 377.149ZM259.99 375.607C260.295 375.607 260.567 375.539 260.805 375.403C261.043 375.259 261.226 375.063 261.353 374.817C261.489 374.562 261.557 374.269 261.557 373.937C261.557 373.615 261.489 373.33 261.353 373.084C261.226 372.829 261.043 372.633 260.805 372.497C260.567 372.353 260.295 372.281 259.99 372.281C259.692 372.281 259.424 372.353 259.187 372.497C258.949 372.633 258.762 372.829 258.626 373.084C258.498 373.33 258.435 373.615 258.435 373.937C258.435 374.269 258.498 374.562 258.626 374.817C258.762 375.063 258.944 375.259 259.174 375.403C259.412 375.539 259.684 375.607 259.99 375.607ZM256.867 379.597V370.866H258.537V372.484L258.256 373.976L258.524 375.467V379.597H256.867ZM268.494 377.022L266.187 370.866H267.869L269.373 375.34L268.863 375.352L270.406 370.866H271.616L273.159 375.352L272.649 375.34L274.153 370.866H275.835L273.541 377.022H272.33L270.775 372.765H271.247L269.692 377.022H268.494ZM276.546 377.022V370.866H278.228V377.022H276.546ZM277.387 369.872C277.115 369.872 276.89 369.782 276.711 369.604C276.533 369.417 276.444 369.188 276.444 368.916C276.444 368.652 276.533 368.427 276.711 368.24C276.89 368.053 277.115 367.96 277.387 367.96C277.667 367.96 277.893 368.053 278.062 368.24C278.241 368.427 278.33 368.652 278.33 368.916C278.33 369.188 278.241 369.417 278.062 369.604C277.893 369.782 277.667 369.872 277.387 369.872ZM280.612 377.022V368.304H282.282V377.022H280.612ZM279.172 372.331V370.866H283.722V372.331H279.172ZM288.804 377.022V373.491C288.804 373.126 288.689 372.829 288.46 372.599C288.23 372.37 287.933 372.255 287.567 372.255C287.329 372.255 287.117 372.306 286.93 372.408C286.743 372.51 286.594 372.654 286.484 372.841C286.382 373.028 286.331 373.245 286.331 373.491L285.681 373.16C285.681 372.676 285.783 372.255 285.987 371.898C286.191 371.533 286.471 371.248 286.828 371.044C287.193 370.84 287.61 370.738 288.077 370.738C288.544 370.738 288.957 370.84 289.313 371.044C289.679 371.248 289.964 371.529 290.167 371.885C290.371 372.242 290.473 372.654 290.473 373.122V377.022H288.804ZM284.661 377.022V367.807H286.331V377.022H284.661ZM298.629 377.149C297.991 377.149 297.392 377.035 296.831 376.805C296.279 376.567 295.791 376.236 295.366 375.811C294.949 375.386 294.622 374.898 294.384 374.345C294.155 373.785 294.04 373.181 294.04 372.535C294.04 371.881 294.159 371.278 294.397 370.726C294.635 370.165 294.966 369.676 295.391 369.26C295.816 368.835 296.313 368.508 296.882 368.278C297.452 368.04 298.068 367.921 298.731 367.921C299.47 367.921 300.15 368.062 300.77 368.342C301.39 368.614 301.904 369.001 302.312 369.502L301.14 370.675C300.859 370.309 300.511 370.029 300.094 369.833C299.678 369.638 299.219 369.54 298.718 369.54C298.149 369.54 297.643 369.668 297.201 369.923C296.768 370.169 296.428 370.517 296.181 370.968C295.935 371.41 295.812 371.928 295.812 372.523C295.812 373.117 295.931 373.644 296.169 374.103C296.415 374.554 296.746 374.906 297.163 375.161C297.588 375.416 298.072 375.543 298.616 375.543C299.177 375.543 299.657 375.441 300.056 375.238C300.456 375.025 300.761 374.719 300.974 374.32C301.186 373.912 301.293 373.415 301.293 372.829L302.427 373.606L298.514 373.568V372.064H303.077V372.306C303.077 373.377 302.886 374.273 302.503 374.995C302.121 375.709 301.594 376.249 300.923 376.614C300.26 376.971 299.495 377.149 298.629 377.149ZM307.121 377.149C306.501 377.149 305.94 377.009 305.439 376.729C304.946 376.44 304.551 376.053 304.254 375.569C303.965 375.076 303.82 374.528 303.82 373.925C303.82 373.321 303.965 372.782 304.254 372.306C304.543 371.822 304.938 371.439 305.439 371.159C305.94 370.87 306.497 370.726 307.109 370.726C307.737 370.726 308.298 370.87 308.791 371.159C309.292 371.439 309.688 371.822 309.977 372.306C310.265 372.782 310.41 373.321 310.41 373.925C310.41 374.528 310.265 375.076 309.977 375.569C309.688 376.053 309.292 376.44 308.791 376.729C308.298 377.009 307.742 377.149 307.121 377.149ZM307.109 375.594C307.423 375.594 307.699 375.526 307.937 375.391C308.184 375.246 308.371 375.051 308.498 374.804C308.634 374.549 308.702 374.26 308.702 373.937C308.702 373.615 308.634 373.33 308.498 373.084C308.362 372.837 308.175 372.646 307.937 372.51C307.699 372.365 307.423 372.293 307.109 372.293C306.803 372.293 306.531 372.365 306.293 372.51C306.055 372.646 305.868 372.837 305.732 373.084C305.596 373.33 305.528 373.615 305.528 373.937C305.528 374.26 305.596 374.549 305.732 374.804C305.868 375.051 306.055 375.246 306.293 375.391C306.531 375.526 306.803 375.594 307.109 375.594ZM314.378 377.149C313.758 377.149 313.197 377.009 312.696 376.729C312.203 376.44 311.808 376.053 311.51 375.569C311.221 375.076 311.077 374.528 311.077 373.925C311.077 373.321 311.221 372.782 311.51 372.306C311.799 371.822 312.194 371.439 312.696 371.159C313.197 370.87 313.754 370.726 314.365 370.726C314.994 370.726 315.555 370.87 316.048 371.159C316.549 371.439 316.944 371.822 317.233 372.306C317.522 372.782 317.667 373.321 317.667 373.925C317.667 374.528 317.522 375.076 317.233 375.569C316.944 376.053 316.549 376.44 316.048 376.729C315.555 377.009 314.998 377.149 314.378 377.149ZM314.365 375.594C314.68 375.594 314.956 375.526 315.194 375.391C315.44 375.246 315.627 375.051 315.755 374.804C315.891 374.549 315.959 374.26 315.959 373.937C315.959 373.615 315.891 373.33 315.755 373.084C315.619 372.837 315.432 372.646 315.194 372.51C314.956 372.365 314.68 372.293 314.365 372.293C314.059 372.293 313.788 372.365 313.55 372.51C313.312 372.646 313.125 372.837 312.989 373.084C312.853 373.33 312.785 373.615 312.785 373.937C312.785 374.26 312.853 374.549 312.989 374.804C313.125 375.051 313.312 375.246 313.55 375.391C313.788 375.526 314.059 375.594 314.365 375.594ZM321.316 379.75C320.662 379.75 320.084 379.631 319.583 379.393C319.081 379.163 318.682 378.836 318.385 378.411L319.443 377.353C319.68 377.634 319.944 377.846 320.233 377.991C320.53 378.144 320.887 378.22 321.303 378.22C321.822 378.22 322.23 378.088 322.527 377.825C322.833 377.562 322.986 377.196 322.986 376.729V375.187L323.266 373.836L322.999 372.484V370.866H324.656V376.703C324.656 377.315 324.511 377.846 324.222 378.297C323.942 378.755 323.551 379.112 323.05 379.367C322.548 379.622 321.97 379.75 321.316 379.75ZM321.24 376.856C320.687 376.856 320.19 376.725 319.748 376.461C319.307 376.189 318.958 375.82 318.703 375.352C318.457 374.885 318.334 374.362 318.334 373.785C318.334 373.207 318.457 372.688 318.703 372.23C318.958 371.771 319.307 371.41 319.748 371.146C320.19 370.874 320.687 370.738 321.24 370.738C321.699 370.738 322.102 370.827 322.451 371.006C322.807 371.184 323.088 371.431 323.292 371.745C323.496 372.051 323.606 372.412 323.623 372.829V374.766C323.606 375.174 323.491 375.539 323.279 375.862C323.075 376.176 322.795 376.423 322.438 376.601C322.089 376.771 321.69 376.856 321.24 376.856ZM321.571 375.34C321.877 375.34 322.14 375.276 322.361 375.148C322.591 375.012 322.769 374.83 322.897 374.6C323.024 374.362 323.088 374.095 323.088 373.797C323.088 373.491 323.024 373.224 322.897 372.994C322.769 372.765 322.591 372.586 322.361 372.459C322.14 372.323 321.877 372.255 321.571 372.255C321.265 372.255 320.997 372.323 320.768 372.459C320.539 372.586 320.36 372.769 320.233 373.007C320.105 373.236 320.042 373.5 320.042 373.797C320.042 374.086 320.105 374.35 320.233 374.588C320.36 374.817 320.539 375 320.768 375.136C320.997 375.272 321.265 375.34 321.571 375.34ZM326.123 377.022V367.807H327.792V377.022H326.123ZM332.216 377.149C331.57 377.149 330.997 377.013 330.495 376.742C329.994 376.461 329.595 376.079 329.297 375.594C329.008 375.11 328.864 374.558 328.864 373.937C328.864 373.326 329.004 372.782 329.284 372.306C329.573 371.822 329.964 371.439 330.457 371.159C330.95 370.87 331.498 370.726 332.101 370.726C332.696 370.726 333.219 370.861 333.669 371.133C334.128 371.397 334.485 371.762 334.74 372.23C335.003 372.688 335.135 373.211 335.135 373.797C335.135 373.908 335.126 374.022 335.109 374.141C335.101 374.252 335.08 374.379 335.046 374.524L329.871 374.537V373.287L334.268 373.275L333.593 373.797C333.576 373.432 333.508 373.126 333.389 372.88C333.278 372.633 333.112 372.446 332.892 372.319C332.679 372.183 332.416 372.115 332.101 372.115C331.77 372.115 331.481 372.191 331.235 372.344C330.988 372.489 330.797 372.697 330.661 372.969C330.534 373.232 330.47 373.547 330.47 373.912C330.47 374.286 330.538 374.613 330.674 374.893C330.818 375.165 331.022 375.378 331.286 375.531C331.549 375.675 331.855 375.747 332.203 375.747C332.518 375.747 332.802 375.696 333.057 375.594C333.312 375.484 333.533 375.323 333.72 375.11L334.701 376.092C334.404 376.44 334.039 376.703 333.605 376.882C333.18 377.06 332.717 377.149 332.216 377.149Z" fill="black"/>
<rect x="133.661" y="560.223" width="254.917" height="33.1392" rx="12" fill="url(#paint3_linear_2_17)"/>
<path d="M225.466 421.25C224.743 421.25 224.123 421.127 223.605 420.88C223.095 420.634 222.632 420.264 222.215 419.771L223.363 418.624C223.626 418.973 223.932 419.245 224.28 419.44C224.629 419.627 225.053 419.72 225.555 419.72C226.005 419.72 226.362 419.631 226.625 419.453C226.897 419.274 227.033 419.028 227.033 418.713C227.033 418.442 226.957 418.221 226.804 418.051C226.651 417.881 226.447 417.736 226.192 417.617C225.946 417.498 225.67 417.392 225.364 417.299C225.066 417.197 224.765 417.082 224.459 416.955C224.161 416.827 223.885 416.67 223.63 416.483C223.384 416.288 223.184 416.041 223.031 415.744C222.878 415.438 222.802 415.055 222.802 414.597C222.802 414.053 222.933 413.59 223.197 413.207C223.46 412.825 223.821 412.532 224.28 412.328C224.739 412.124 225.257 412.022 225.835 412.022C226.447 412.022 226.999 412.137 227.492 412.366C227.985 412.595 228.389 412.893 228.703 413.258L227.556 414.405C227.293 414.116 227.021 413.904 226.74 413.768C226.468 413.632 226.158 413.564 225.81 413.564C225.41 413.564 225.096 413.641 224.867 413.794C224.637 413.947 224.522 414.167 224.522 414.456C224.522 414.703 224.599 414.902 224.752 415.055C224.905 415.208 225.104 415.34 225.351 415.451C225.606 415.561 225.882 415.667 226.179 415.769C226.485 415.871 226.787 415.986 227.084 416.113C227.39 416.241 227.666 416.406 227.913 416.61C228.168 416.814 228.372 417.078 228.525 417.401C228.678 417.715 228.754 418.106 228.754 418.573C228.754 419.406 228.461 420.06 227.875 420.536C227.288 421.012 226.485 421.25 225.466 421.25ZM229.944 421.122V414.966H231.626V421.122H229.944ZM230.785 413.972C230.513 413.972 230.288 413.883 230.109 413.704C229.931 413.517 229.842 413.288 229.842 413.016C229.842 412.753 229.931 412.527 230.109 412.341C230.288 412.154 230.513 412.06 230.785 412.06C231.065 412.06 231.29 412.154 231.46 412.341C231.639 412.527 231.728 412.753 231.728 413.016C231.728 413.288 231.639 413.517 231.46 413.704C231.29 413.883 231.065 413.972 230.785 413.972ZM235.68 423.85C235.026 423.85 234.448 423.731 233.946 423.493C233.445 423.264 233.046 422.937 232.748 422.512L233.806 421.454C234.044 421.734 234.308 421.947 234.597 422.091C234.894 422.244 235.251 422.321 235.667 422.321C236.186 422.321 236.593 422.189 236.891 421.925C237.197 421.662 237.35 421.297 237.35 420.829V419.287L237.63 417.936L237.362 416.585V414.966H239.019V420.804C239.019 421.416 238.875 421.947 238.586 422.397C238.306 422.856 237.915 423.213 237.413 423.468C236.912 423.723 236.334 423.85 235.68 423.85ZM235.603 420.957C235.051 420.957 234.554 420.825 234.112 420.562C233.67 420.29 233.322 419.92 233.067 419.453C232.821 418.985 232.697 418.463 232.697 417.885C232.697 417.307 232.821 416.789 233.067 416.33C233.322 415.871 233.67 415.51 234.112 415.247C234.554 414.975 235.051 414.839 235.603 414.839C236.062 414.839 236.466 414.928 236.814 415.106C237.171 415.285 237.452 415.531 237.656 415.846C237.859 416.152 237.97 416.513 237.987 416.929V418.866C237.97 419.274 237.855 419.64 237.643 419.963C237.439 420.277 237.158 420.523 236.802 420.702C236.453 420.872 236.054 420.957 235.603 420.957ZM235.935 419.44C236.241 419.44 236.504 419.376 236.725 419.249C236.955 419.113 237.133 418.93 237.26 418.701C237.388 418.463 237.452 418.195 237.452 417.898C237.452 417.592 237.388 417.324 237.26 417.095C237.133 416.865 236.955 416.687 236.725 416.559C236.504 416.423 236.241 416.355 235.935 416.355C235.629 416.355 235.361 416.423 235.132 416.559C234.902 416.687 234.724 416.87 234.597 417.107C234.469 417.337 234.405 417.6 234.405 417.898C234.405 418.187 234.469 418.45 234.597 418.688C234.724 418.917 234.902 419.1 235.132 419.236C235.361 419.372 235.629 419.44 235.935 419.44ZM244.629 421.122V417.592C244.629 417.226 244.514 416.929 244.285 416.7C244.055 416.47 243.758 416.355 243.392 416.355C243.155 416.355 242.942 416.406 242.755 416.508C242.568 416.61 242.42 416.755 242.309 416.942C242.207 417.129 242.156 417.345 242.156 417.592L241.506 417.26C241.506 416.776 241.608 416.355 241.812 415.999C242.024 415.633 242.313 415.349 242.679 415.145C243.053 414.941 243.473 414.839 243.941 414.839C244.391 414.839 244.795 414.953 245.151 415.183C245.508 415.404 245.789 415.697 245.993 416.062C246.197 416.419 246.299 416.806 246.299 417.222V421.122H244.629ZM240.486 421.122V414.966H242.156V421.122H240.486ZM252.759 421.25C252.215 421.25 251.73 421.135 251.306 420.906C250.889 420.676 250.562 420.358 250.324 419.95C250.086 419.542 249.967 419.07 249.967 418.535V414.966H251.65V418.497C251.65 418.752 251.692 418.973 251.777 419.16C251.862 419.338 251.99 419.474 252.16 419.567C252.329 419.661 252.529 419.708 252.759 419.708C253.107 419.708 253.379 419.601 253.574 419.389C253.77 419.177 253.867 418.879 253.867 418.497V414.966H255.537V418.535C255.537 419.079 255.418 419.555 255.18 419.963C254.951 420.37 254.624 420.689 254.199 420.919C253.782 421.139 253.302 421.25 252.759 421.25ZM260.283 421.25C259.841 421.25 259.441 421.161 259.085 420.982C258.728 420.795 258.443 420.545 258.231 420.23C258.018 419.916 257.903 419.555 257.886 419.147V416.967C257.903 416.559 258.018 416.198 258.231 415.884C258.452 415.561 258.736 415.306 259.085 415.119C259.441 414.932 259.841 414.839 260.283 414.839C260.852 414.839 261.362 414.979 261.812 415.259C262.263 415.54 262.615 415.922 262.87 416.406C263.134 416.891 263.265 417.439 263.265 418.051C263.265 418.654 263.134 419.198 262.87 419.682C262.615 420.166 262.263 420.549 261.812 420.829C261.362 421.11 260.852 421.25 260.283 421.25ZM259.99 419.708C260.295 419.708 260.567 419.64 260.805 419.504C261.043 419.359 261.226 419.164 261.353 418.917C261.489 418.662 261.557 418.369 261.557 418.038C261.557 417.715 261.489 417.43 261.353 417.184C261.226 416.929 261.043 416.734 260.805 416.598C260.567 416.453 260.295 416.381 259.99 416.381C259.692 416.381 259.424 416.453 259.187 416.598C258.949 416.734 258.762 416.929 258.626 417.184C258.498 417.43 258.435 417.715 258.435 418.038C258.435 418.369 258.498 418.662 258.626 418.917C258.762 419.164 258.944 419.359 259.174 419.504C259.412 419.64 259.684 419.708 259.99 419.708ZM256.867 423.697V414.966H258.537V416.585L258.256 418.076L258.524 419.567V423.697H256.867ZM268.494 421.122L266.187 414.966H267.869L269.373 419.44L268.863 419.453L270.406 414.966H271.616L273.159 419.453L272.649 419.44L274.153 414.966H275.835L273.541 421.122H272.33L270.775 416.865H271.247L269.692 421.122H268.494ZM276.546 421.122V414.966H278.228V421.122H276.546ZM277.387 413.972C277.115 413.972 276.89 413.883 276.711 413.704C276.533 413.517 276.444 413.288 276.444 413.016C276.444 412.753 276.533 412.527 276.711 412.341C276.89 412.154 277.115 412.06 277.387 412.06C277.667 412.06 277.893 412.154 278.062 412.341C278.241 412.527 278.33 412.753 278.33 413.016C278.33 413.288 278.241 413.517 278.062 413.704C277.893 413.883 277.667 413.972 277.387 413.972ZM280.612 421.122V412.404H282.282V421.122H280.612ZM279.172 416.432V414.966H283.722V416.432H279.172ZM288.804 421.122V417.592C288.804 417.226 288.689 416.929 288.46 416.7C288.23 416.47 287.933 416.355 287.567 416.355C287.329 416.355 287.117 416.406 286.93 416.508C286.743 416.61 286.594 416.755 286.484 416.942C286.382 417.129 286.331 417.345 286.331 417.592L285.681 417.26C285.681 416.776 285.783 416.355 285.987 415.999C286.191 415.633 286.471 415.349 286.828 415.145C287.193 414.941 287.61 414.839 288.077 414.839C288.544 414.839 288.957 414.941 289.313 415.145C289.679 415.349 289.964 415.629 290.167 415.986C290.371 416.343 290.473 416.755 290.473 417.222V421.122H288.804ZM284.661 421.122V411.907H286.331V421.122H284.661ZM298.161 421.122V419.58H300.443C301.02 419.58 301.526 419.461 301.959 419.223C302.393 418.977 302.728 418.633 302.966 418.191C303.213 417.749 303.336 417.226 303.336 416.623C303.336 416.037 303.213 415.527 302.966 415.094C302.72 414.652 302.38 414.312 301.947 414.074C301.513 413.828 301.012 413.704 300.443 413.704H298.123V412.162H300.468C301.131 412.162 301.743 412.273 302.303 412.493C302.873 412.714 303.366 413.029 303.782 413.437C304.207 413.836 304.534 414.308 304.763 414.851C305.001 415.395 305.12 415.99 305.12 416.636C305.12 417.282 305.001 417.881 304.763 418.433C304.534 418.977 304.211 419.453 303.795 419.861C303.378 420.26 302.885 420.57 302.316 420.791C301.755 421.012 301.148 421.122 300.493 421.122H298.161ZM296.976 421.122V412.162H298.709V421.122H296.976ZM306.319 421.122V414.966H308.002V421.122H306.319ZM307.16 413.972C306.889 413.972 306.663 413.883 306.485 413.704C306.307 413.517 306.217 413.288 306.217 413.016C306.217 412.753 306.307 412.527 306.485 412.341C306.663 412.154 306.889 412.06 307.16 412.06C307.441 412.06 307.666 412.154 307.836 412.341C308.014 412.527 308.104 412.753 308.104 413.016C308.104 413.288 308.014 413.517 307.836 413.704C307.666 413.883 307.441 413.972 307.16 413.972ZM311.597 421.263C311.248 421.263 310.904 421.216 310.564 421.122C310.233 421.029 309.927 420.902 309.647 420.74C309.366 420.57 309.124 420.366 308.92 420.128L309.914 419.121C310.127 419.359 310.373 419.538 310.653 419.657C310.934 419.776 311.244 419.835 311.584 419.835C311.856 419.835 312.06 419.797 312.196 419.72C312.34 419.644 312.412 419.529 312.412 419.376C312.412 419.206 312.336 419.075 312.183 418.981C312.038 418.888 311.847 418.811 311.609 418.752C311.371 418.684 311.121 418.612 310.857 418.535C310.602 418.45 310.356 418.344 310.118 418.216C309.88 418.08 309.685 417.898 309.532 417.668C309.387 417.43 309.315 417.124 309.315 416.751C309.315 416.36 309.409 416.02 309.596 415.731C309.791 415.442 310.067 415.217 310.424 415.055C310.781 414.894 311.202 414.813 311.686 414.813C312.196 414.813 312.655 414.902 313.062 415.081C313.479 415.259 313.823 415.527 314.095 415.884L313.088 416.891C312.901 416.661 312.689 416.496 312.451 416.394C312.221 416.292 311.971 416.241 311.699 416.241C311.452 416.241 311.261 416.279 311.125 416.355C310.998 416.432 310.934 416.538 310.934 416.674C310.934 416.827 311.006 416.946 311.151 417.031C311.303 417.116 311.499 417.192 311.737 417.26C311.975 417.32 312.221 417.392 312.476 417.477C312.74 417.554 312.986 417.664 313.215 417.809C313.453 417.953 313.644 418.144 313.789 418.382C313.942 418.62 314.018 418.926 314.018 419.3C314.018 419.903 313.802 420.383 313.368 420.74C312.935 421.088 312.344 421.263 311.597 421.263ZM318.05 421.25C317.422 421.25 316.856 421.11 316.355 420.829C315.854 420.549 315.459 420.166 315.17 419.682C314.881 419.198 314.736 418.654 314.736 418.051C314.736 417.439 314.881 416.891 315.17 416.406C315.459 415.922 315.854 415.54 316.355 415.259C316.865 414.97 317.43 414.826 318.05 414.826C318.535 414.826 318.981 414.915 319.389 415.094C319.796 415.272 320.149 415.527 320.447 415.858L319.376 416.942C319.214 416.763 319.019 416.627 318.79 416.534C318.569 416.44 318.322 416.394 318.05 416.394C317.744 416.394 317.468 416.466 317.222 416.61C316.984 416.746 316.793 416.938 316.648 417.184C316.512 417.422 316.444 417.707 316.444 418.038C316.444 418.361 316.512 418.65 316.648 418.905C316.793 419.151 316.984 419.347 317.222 419.491C317.468 419.627 317.744 419.695 318.05 419.695C318.331 419.695 318.581 419.648 318.802 419.555C319.032 419.453 319.227 419.308 319.389 419.121L320.472 420.205C320.158 420.545 319.796 420.804 319.389 420.982C318.981 421.161 318.535 421.25 318.05 421.25ZM324.174 421.25C323.554 421.25 322.993 421.11 322.492 420.829C321.999 420.54 321.604 420.154 321.306 419.669C321.017 419.177 320.873 418.628 320.873 418.025C320.873 417.422 321.017 416.882 321.306 416.406C321.595 415.922 321.99 415.54 322.492 415.259C322.993 414.97 323.549 414.826 324.161 414.826C324.79 414.826 325.351 414.97 325.844 415.259C326.345 415.54 326.74 415.922 327.029 416.406C327.318 416.882 327.462 417.422 327.462 418.025C327.462 418.628 327.318 419.177 327.029 419.669C326.74 420.154 326.345 420.54 325.844 420.829C325.351 421.11 324.794 421.25 324.174 421.25ZM324.161 419.695C324.476 419.695 324.752 419.627 324.99 419.491C325.236 419.347 325.423 419.151 325.551 418.905C325.687 418.65 325.754 418.361 325.754 418.038C325.754 417.715 325.687 417.43 325.551 417.184C325.415 416.938 325.228 416.746 324.99 416.61C324.752 416.466 324.476 416.394 324.161 416.394C323.855 416.394 323.583 416.466 323.346 416.61C323.108 416.746 322.921 416.938 322.785 417.184C322.649 417.43 322.581 417.715 322.581 418.038C322.581 418.361 322.649 418.65 322.785 418.905C322.921 419.151 323.108 419.347 323.346 419.491C323.583 419.627 323.855 419.695 324.161 419.695ZM328.537 421.122V414.966H330.207V421.122H328.537ZM330.207 417.719L329.557 417.286C329.634 416.53 329.854 415.935 330.22 415.502C330.585 415.06 331.112 414.839 331.8 414.839C332.098 414.839 332.365 414.89 332.603 414.992C332.841 415.085 333.058 415.242 333.253 415.463L332.208 416.661C332.115 416.559 332 416.483 331.864 416.432C331.737 416.381 331.588 416.355 331.418 416.355C331.061 416.355 330.768 416.47 330.538 416.7C330.318 416.921 330.207 417.26 330.207 417.719ZM336.266 421.25C335.696 421.25 335.187 421.11 334.736 420.829C334.286 420.549 333.929 420.166 333.666 419.682C333.411 419.198 333.283 418.654 333.283 418.051C333.283 417.439 333.411 416.891 333.666 416.406C333.929 415.922 334.282 415.54 334.723 415.259C335.174 414.979 335.688 414.839 336.266 414.839C336.708 414.839 337.103 414.928 337.451 415.106C337.808 415.285 338.093 415.536 338.305 415.858C338.526 416.173 338.645 416.53 338.662 416.929V419.121C338.645 419.521 338.53 419.882 338.318 420.205C338.105 420.528 337.821 420.783 337.464 420.969C337.107 421.156 336.708 421.25 336.266 421.25ZM336.546 419.708C336.861 419.708 337.132 419.64 337.362 419.504C337.6 419.359 337.782 419.164 337.91 418.917C338.046 418.662 338.114 418.369 338.114 418.038C338.114 417.715 338.046 417.43 337.91 417.184C337.782 416.929 337.6 416.734 337.362 416.598C337.132 416.453 336.865 416.381 336.559 416.381C336.244 416.381 335.968 416.453 335.73 416.598C335.501 416.742 335.318 416.938 335.182 417.184C335.055 417.43 334.991 417.715 334.991 418.038C334.991 418.369 335.055 418.662 335.182 418.917C335.318 419.164 335.505 419.359 335.743 419.504C335.981 419.64 336.249 419.708 336.546 419.708ZM339.682 421.122H338.025V419.465L338.292 417.961L338.012 416.483V411.907H339.682V421.122Z" fill="white"/>
<path d="M225.466 465.351C224.743 465.351 224.123 465.227 223.605 464.981C223.095 464.735 222.632 464.365 222.215 463.872L223.363 462.725C223.626 463.073 223.932 463.345 224.28 463.541C224.629 463.728 225.053 463.821 225.555 463.821C226.005 463.821 226.362 463.732 226.625 463.553C226.897 463.375 227.033 463.129 227.033 462.814C227.033 462.542 226.957 462.321 226.804 462.151C226.651 461.981 226.447 461.837 226.192 461.718C225.946 461.599 225.67 461.493 225.364 461.399C225.066 461.297 224.765 461.183 224.459 461.055C224.161 460.928 223.885 460.771 223.63 460.584C223.384 460.388 223.184 460.142 223.031 459.844C222.878 459.538 222.802 459.156 222.802 458.697C222.802 458.153 222.933 457.69 223.197 457.308C223.46 456.926 223.821 456.632 224.28 456.429C224.739 456.225 225.257 456.123 225.835 456.123C226.447 456.123 226.999 456.237 227.492 456.467C227.985 456.696 228.389 456.994 228.703 457.359L227.556 458.506C227.293 458.217 227.021 458.005 226.74 457.869C226.468 457.733 226.158 457.665 225.81 457.665C225.41 457.665 225.096 457.741 224.867 457.894C224.637 458.047 224.522 458.268 224.522 458.557C224.522 458.803 224.599 459.003 224.752 459.156C224.905 459.309 225.104 459.441 225.351 459.551C225.606 459.662 225.882 459.768 226.179 459.87C226.485 459.972 226.787 460.087 227.084 460.214C227.39 460.341 227.666 460.507 227.913 460.711C228.168 460.915 228.372 461.178 228.525 461.501C228.678 461.816 228.754 462.207 228.754 462.674C228.754 463.507 228.461 464.161 227.875 464.637C227.288 465.113 226.485 465.351 225.466 465.351ZM229.944 465.223V459.067H231.626V465.223H229.944ZM230.785 458.073C230.513 458.073 230.288 457.983 230.109 457.805C229.931 457.618 229.842 457.389 229.842 457.117C229.842 456.853 229.931 456.628 230.109 456.441C230.288 456.254 230.513 456.161 230.785 456.161C231.065 456.161 231.29 456.254 231.46 456.441C231.639 456.628 231.728 456.853 231.728 457.117C231.728 457.389 231.639 457.618 231.46 457.805C231.29 457.983 231.065 458.073 230.785 458.073ZM235.68 467.951C235.026 467.951 234.448 467.832 233.946 467.594C233.445 467.364 233.046 467.037 232.748 466.612L233.806 465.555C234.044 465.835 234.308 466.047 234.597 466.192C234.894 466.345 235.251 466.421 235.667 466.421C236.186 466.421 236.593 466.29 236.891 466.026C237.197 465.763 237.35 465.397 237.35 464.93V463.388L237.63 462.037L237.362 460.686V459.067H239.019V464.904C239.019 465.516 238.875 466.047 238.586 466.498C238.306 466.957 237.915 467.313 237.413 467.568C236.912 467.823 236.334 467.951 235.68 467.951ZM235.603 465.057C235.051 465.057 234.554 464.926 234.112 464.662C233.67 464.39 233.322 464.021 233.067 463.553C232.821 463.086 232.697 462.564 232.697 461.986C232.697 461.408 232.821 460.89 233.067 460.431C233.322 459.972 233.67 459.611 234.112 459.347C234.554 459.075 235.051 458.939 235.603 458.939C236.062 458.939 236.466 459.029 236.814 459.207C237.171 459.386 237.452 459.632 237.656 459.946C237.859 460.252 237.97 460.613 237.987 461.03V462.967C237.97 463.375 237.855 463.74 237.643 464.063C237.439 464.378 237.158 464.624 236.802 464.803C236.453 464.972 236.054 465.057 235.603 465.057ZM235.935 463.541C236.241 463.541 236.504 463.477 236.725 463.35C236.955 463.214 237.133 463.031 237.26 462.801C237.388 462.564 237.452 462.296 237.452 461.998C237.452 461.693 237.388 461.425 237.26 461.195C237.133 460.966 236.955 460.788 236.725 460.66C236.504 460.524 236.241 460.456 235.935 460.456C235.629 460.456 235.361 460.524 235.132 460.66C234.902 460.788 234.724 460.97 234.597 461.208C234.469 461.438 234.405 461.701 234.405 461.998C234.405 462.287 234.469 462.551 234.597 462.789C234.724 463.018 234.902 463.201 235.132 463.337C235.361 463.473 235.629 463.541 235.935 463.541ZM244.629 465.223V461.693C244.629 461.327 244.514 461.03 244.285 460.8C244.055 460.571 243.758 460.456 243.392 460.456C243.155 460.456 242.942 460.507 242.755 460.609C242.568 460.711 242.42 460.856 242.309 461.043C242.207 461.229 242.156 461.446 242.156 461.693L241.506 461.361C241.506 460.877 241.608 460.456 241.812 460.099C242.024 459.734 242.313 459.449 242.679 459.245C243.053 459.041 243.473 458.939 243.941 458.939C244.391 458.939 244.795 459.054 245.151 459.284C245.508 459.505 245.789 459.798 245.993 460.163C246.197 460.52 246.299 460.907 246.299 461.323V465.223H244.629ZM240.486 465.223V459.067H242.156V465.223H240.486ZM252.759 465.351C252.215 465.351 251.73 465.236 251.306 465.006C250.889 464.777 250.562 464.458 250.324 464.051C250.086 463.643 249.967 463.171 249.967 462.636V459.067H251.65V462.597C251.65 462.852 251.692 463.073 251.777 463.26C251.862 463.439 251.99 463.575 252.16 463.668C252.329 463.762 252.529 463.808 252.759 463.808C253.107 463.808 253.379 463.702 253.574 463.49C253.77 463.277 253.867 462.98 253.867 462.597V459.067H255.537V462.636C255.537 463.18 255.418 463.655 255.18 464.063C254.951 464.471 254.624 464.79 254.199 465.019C253.782 465.24 253.302 465.351 252.759 465.351ZM260.283 465.351C259.841 465.351 259.441 465.261 259.085 465.083C258.728 464.896 258.443 464.645 258.231 464.331C258.018 464.017 257.903 463.655 257.886 463.248V461.068C257.903 460.66 258.018 460.299 258.231 459.985C258.452 459.662 258.736 459.407 259.085 459.22C259.441 459.033 259.841 458.939 260.283 458.939C260.852 458.939 261.362 459.08 261.812 459.36C262.263 459.64 262.615 460.023 262.87 460.507C263.134 460.992 263.265 461.54 263.265 462.151C263.265 462.755 263.134 463.299 262.87 463.783C262.615 464.267 262.263 464.65 261.812 464.93C261.362 465.21 260.852 465.351 260.283 465.351ZM259.99 463.808C260.295 463.808 260.567 463.74 260.805 463.604C261.043 463.46 261.226 463.265 261.353 463.018C261.489 462.763 261.557 462.47 261.557 462.139C261.557 461.816 261.489 461.531 261.353 461.285C261.226 461.03 261.043 460.834 260.805 460.698C260.567 460.554 260.295 460.482 259.99 460.482C259.692 460.482 259.424 460.554 259.187 460.698C258.949 460.834 258.762 461.03 258.626 461.285C258.498 461.531 258.435 461.816 258.435 462.139C258.435 462.47 258.498 462.763 258.626 463.018C258.762 463.265 258.944 463.46 259.174 463.604C259.412 463.74 259.684 463.808 259.99 463.808ZM256.867 467.798V459.067H258.537V460.686L258.256 462.177L258.524 463.668V467.798H256.867ZM268.494 465.223L266.187 459.067H267.869L269.373 463.541L268.863 463.553L270.406 459.067H271.616L273.159 463.553L272.649 463.541L274.153 459.067H275.835L273.541 465.223H272.33L270.775 460.966H271.247L269.692 465.223H268.494ZM276.546 465.223V459.067H278.228V465.223H276.546ZM277.387 458.073C277.115 458.073 276.89 457.983 276.711 457.805C276.533 457.618 276.444 457.389 276.444 457.117C276.444 456.853 276.533 456.628 276.711 456.441C276.89 456.254 277.115 456.161 277.387 456.161C277.667 456.161 277.893 456.254 278.062 456.441C278.241 456.628 278.33 456.853 278.33 457.117C278.33 457.389 278.241 457.618 278.062 457.805C277.893 457.983 277.667 458.073 277.387 458.073ZM280.612 465.223V456.505H282.282V465.223H280.612ZM279.172 460.533V459.067H283.722V460.533H279.172ZM288.804 465.223V461.693C288.804 461.327 288.689 461.03 288.46 460.8C288.23 460.571 287.933 460.456 287.567 460.456C287.329 460.456 287.117 460.507 286.93 460.609C286.743 460.711 286.594 460.856 286.484 461.043C286.382 461.229 286.331 461.446 286.331 461.693L285.681 461.361C285.681 460.877 285.783 460.456 285.987 460.099C286.191 459.734 286.471 459.449 286.828 459.245C287.193 459.041 287.61 458.939 288.077 458.939C288.544 458.939 288.957 459.041 289.313 459.245C289.679 459.449 289.964 459.73 290.167 460.087C290.371 460.443 290.473 460.856 290.473 461.323V465.223H288.804ZM284.661 465.223V456.008H286.331V465.223H284.661ZM298.629 465.351C297.991 465.351 297.392 465.236 296.831 465.006C296.279 464.769 295.791 464.437 295.366 464.012C294.949 463.587 294.622 463.099 294.384 462.547C294.155 461.986 294.04 461.382 294.04 460.737C294.04 460.082 294.159 459.479 294.397 458.927C294.635 458.366 294.966 457.877 295.391 457.461C295.816 457.036 296.313 456.709 296.882 456.479C297.452 456.242 298.068 456.123 298.731 456.123C299.47 456.123 300.15 456.263 300.77 456.543C301.39 456.815 301.904 457.202 302.312 457.703L301.14 458.876C300.859 458.51 300.511 458.23 300.094 458.034C299.678 457.839 299.219 457.741 298.718 457.741C298.149 457.741 297.643 457.869 297.201 458.124C296.768 458.37 296.428 458.719 296.181 459.169C295.935 459.611 295.812 460.129 295.812 460.724C295.812 461.319 295.931 461.845 296.169 462.304C296.415 462.755 296.746 463.107 297.163 463.362C297.588 463.617 298.072 463.745 298.616 463.745C299.177 463.745 299.657 463.643 300.056 463.439C300.456 463.226 300.761 462.92 300.974 462.521C301.186 462.113 301.293 461.616 301.293 461.03L302.427 461.807L298.514 461.769V460.265H303.077V460.507C303.077 461.578 302.886 462.474 302.503 463.197C302.121 463.91 301.594 464.45 300.923 464.815C300.26 465.172 299.495 465.351 298.629 465.351ZM304.228 465.223V459.067H305.911V465.223H304.228ZM305.069 458.073C304.797 458.073 304.572 457.983 304.394 457.805C304.215 457.618 304.126 457.389 304.126 457.117C304.126 456.853 304.215 456.628 304.394 456.441C304.572 456.254 304.797 456.161 305.069 456.161C305.35 456.161 305.575 456.254 305.745 456.441C305.923 456.628 306.013 456.853 306.013 457.117C306.013 457.389 305.923 457.618 305.745 457.805C305.575 457.983 305.35 458.073 305.069 458.073ZM308.295 465.223V456.505H309.964V465.223H308.295ZM306.854 460.533V459.067H311.405V460.533H306.854ZM316.486 465.223V461.693C316.486 461.327 316.371 461.03 316.142 460.8C315.912 460.571 315.615 460.456 315.25 460.456C315.012 460.456 314.799 460.507 314.612 460.609C314.425 460.711 314.277 460.856 314.166 461.043C314.064 461.229 314.013 461.446 314.013 461.693L313.363 461.361C313.363 460.877 313.465 460.456 313.669 460.099C313.873 459.734 314.154 459.449 314.51 459.245C314.876 459.041 315.292 458.939 315.76 458.939C316.227 458.939 316.639 459.041 316.996 459.245C317.361 459.449 317.646 459.73 317.85 460.087C318.054 460.443 318.156 460.856 318.156 461.323V465.223H316.486ZM312.344 465.223V456.008H314.013V465.223H312.344ZM322.126 465.351C321.583 465.351 321.098 465.236 320.673 465.006C320.257 464.777 319.93 464.458 319.692 464.051C319.454 463.643 319.335 463.171 319.335 462.636V459.067H321.018V462.597C321.018 462.852 321.06 463.073 321.145 463.26C321.23 463.439 321.357 463.575 321.527 463.668C321.697 463.762 321.897 463.808 322.126 463.808C322.475 463.808 322.747 463.702 322.942 463.49C323.138 463.277 323.235 462.98 323.235 462.597V459.067H324.905V462.636C324.905 463.18 324.786 463.655 324.548 464.063C324.319 464.471 323.992 464.79 323.567 465.019C323.15 465.24 322.67 465.351 322.126 465.351ZM329.651 465.351C329.209 465.351 328.809 465.257 328.452 465.07C328.096 464.883 327.811 464.628 327.598 464.305C327.386 463.983 327.271 463.621 327.254 463.222V461.03C327.271 460.63 327.386 460.274 327.598 459.959C327.819 459.636 328.108 459.386 328.465 459.207C328.822 459.029 329.217 458.939 329.651 458.939C330.22 458.939 330.73 459.08 331.18 459.36C331.63 459.64 331.983 460.023 332.238 460.507C332.501 460.992 332.633 461.54 332.633 462.151C332.633 462.755 332.501 463.299 332.238 463.783C331.983 464.267 331.63 464.65 331.18 464.93C330.73 465.21 330.22 465.351 329.651 465.351ZM329.37 463.808C329.676 463.808 329.944 463.74 330.173 463.604C330.411 463.46 330.594 463.265 330.721 463.018C330.857 462.763 330.925 462.47 330.925 462.139C330.925 461.816 330.857 461.531 330.721 461.285C330.594 461.03 330.411 460.834 330.173 460.698C329.935 460.554 329.663 460.482 329.357 460.482C329.051 460.482 328.78 460.554 328.542 460.698C328.312 460.834 328.13 461.03 327.994 461.285C327.866 461.531 327.802 461.816 327.802 462.139C327.802 462.47 327.866 462.763 327.994 463.018C328.13 463.265 328.316 463.46 328.554 463.604C328.792 463.74 329.064 463.808 329.37 463.808ZM326.235 465.223V456.008H327.904V460.584L327.624 462.062L327.892 463.566V465.223H326.235Z" fill="white"/>
<g clip-path="url(#clip1_2_17)">
<path d="M213.185 411.311C211.966 410.752 210.66 410.34 209.293 410.104C209.268 410.099 209.244 410.11 209.231 410.133C209.063 410.432 208.877 410.822 208.746 411.129C207.277 410.909 205.815 410.909 204.375 411.129C204.245 410.815 204.052 410.432 203.883 410.133C203.87 410.111 203.846 410.1 203.821 410.104C202.455 410.339 201.148 410.751 199.929 411.311C199.919 411.315 199.91 411.323 199.903 411.333C197.425 415.036 196.746 418.648 197.079 422.215C197.081 422.232 197.09 422.249 197.104 422.259C198.739 423.46 200.323 424.189 201.878 424.673C201.903 424.68 201.929 424.671 201.945 424.651C202.313 424.149 202.641 423.619 202.922 423.062C202.938 423.03 202.922 422.991 202.888 422.978C202.369 422.781 201.873 422.54 201.397 422.267C201.359 422.245 201.356 422.191 201.391 422.165C201.491 422.09 201.592 422.012 201.687 421.933C201.705 421.919 201.729 421.916 201.749 421.925C204.878 423.353 208.265 423.353 211.357 421.925C211.378 421.915 211.402 421.918 211.42 421.932C211.516 422.011 211.616 422.09 211.717 422.165C211.752 422.191 211.749 422.245 211.712 422.267C211.235 422.545 210.74 422.781 210.219 422.977C210.186 422.99 210.17 423.03 210.187 423.062C210.474 423.618 210.802 424.148 211.163 424.65C211.178 424.671 211.205 424.68 211.23 424.673C212.792 424.189 214.376 423.46 216.012 422.259C216.026 422.249 216.035 422.233 216.036 422.215C216.435 418.091 215.369 414.509 213.21 411.333C213.204 411.323 213.195 411.315 213.185 411.311ZM203.389 420.043C202.447 420.043 201.671 419.178 201.671 418.116C201.671 417.054 202.432 416.189 203.389 416.189C204.353 416.189 205.122 417.061 205.107 418.116C205.107 419.178 204.346 420.043 203.389 420.043ZM209.742 420.043C208.8 420.043 208.023 419.178 208.023 418.116C208.023 417.054 208.785 416.189 209.742 416.189C210.706 416.189 211.475 417.061 211.46 418.116C211.46 419.178 210.706 420.043 209.742 420.043Z" fill="white"/>
</g>
<g clip-path="url(#clip2_2_17)">
<path fill-rule="evenodd" clip-rule="evenodd" d="M200.407 451.092C198.138 451.093 195.943 451.897 194.215 453.36C192.487 454.822 191.338 456.848 190.975 459.076C190.611 461.303 191.056 463.586 192.231 465.517C193.405 467.448 195.231 468.901 197.384 469.616C197.859 469.704 198.038 469.409 198.038 469.159C198.038 468.909 198.028 468.183 198.025 467.39C195.366 467.965 194.804 466.268 194.804 466.268C194.37 465.166 193.743 464.876 193.743 464.876C192.876 464.288 193.808 464.299 193.808 464.299C194.769 464.367 195.274 465.279 195.274 465.279C196.126 466.732 197.511 466.312 198.055 466.066C198.141 465.451 198.389 465.032 198.663 464.795C196.539 464.555 194.307 463.74 194.307 460.098C194.294 459.153 194.646 458.24 195.291 457.547C195.193 457.307 194.866 456.341 195.385 455.028C195.385 455.028 196.187 454.773 198.014 456.003C199.581 455.577 201.234 455.577 202.801 456.003C204.626 454.773 205.427 455.028 205.427 455.028C205.948 456.338 205.62 457.304 205.522 457.547C206.169 458.24 206.522 459.155 206.508 460.101C206.508 463.751 204.271 464.555 202.144 464.79C202.486 465.086 202.791 465.663 202.791 466.551C202.791 467.823 202.78 468.846 202.78 469.159C202.78 469.413 202.953 469.708 203.437 469.616C205.59 468.901 207.417 467.448 208.591 465.517C209.765 463.585 210.21 461.302 209.846 459.074C209.482 456.847 208.333 454.82 206.604 453.358C204.876 451.896 202.68 451.092 200.411 451.092H200.407Z" fill="white"/>
<path d="M197.243 466.606C197.243 466.683 197.154 466.749 197.04 466.751C196.926 466.753 196.833 466.69 196.833 466.612C196.833 466.535 196.922 466.469 197.036 466.468C197.15 466.466 197.243 466.527 197.243 466.606Z" fill="white"/>
<path d="M197.971 466.485C197.985 466.562 197.906 466.642 197.792 466.661C197.678 466.68 197.579 466.635 197.564 466.559C197.55 466.483 197.632 466.402 197.743 466.381C197.854 466.361 197.957 466.408 197.971 466.485Z" fill="white"/>
<path d="M196.461 466.553C196.437 466.627 196.33 466.66 196.222 466.628C196.114 466.597 196.043 466.509 196.064 466.433C196.084 466.358 196.193 466.323 196.303 466.358C196.412 466.392 196.481 466.476 196.461 466.553Z" fill="white"/>
<path d="M195.744 466.244C195.692 466.302 195.586 466.287 195.499 466.208C195.412 466.129 195.391 466.022 195.443 465.966C195.495 465.909 195.601 465.925 195.692 466.002C195.782 466.079 195.799 466.188 195.744 466.244Z" fill="white"/>
<path d="M195.233 465.715C195.174 465.756 195.074 465.715 195.019 465.634C195.004 465.619 194.991 465.601 194.983 465.582C194.975 465.562 194.97 465.541 194.97 465.52C194.97 465.499 194.975 465.478 194.983 465.459C194.991 465.439 195.004 465.422 195.019 465.407C195.077 465.368 195.177 465.407 195.233 465.487C195.288 465.567 195.29 465.674 195.233 465.715Z" fill="white"/>
<path d="M194.856 465.169C194.823 465.186 194.786 465.19 194.75 465.182C194.714 465.174 194.682 465.154 194.66 465.125C194.598 465.059 194.585 464.968 194.633 464.927C194.68 464.886 194.766 464.905 194.827 464.971C194.889 465.037 194.903 465.128 194.856 465.169Z" fill="white"/>
<path d="M194.468 464.74C194.447 464.787 194.371 464.801 194.31 464.768C194.248 464.735 194.202 464.673 194.224 464.625C194.246 464.576 194.321 464.563 194.383 464.596C194.444 464.629 194.492 464.692 194.468 464.74Z" fill="white"/>
</g>
<path d="M170.985 583.204C170.056 583.204 169.189 583.051 168.385 582.745C167.591 582.428 166.895 581.986 166.294 581.42C165.694 580.853 165.224 580.19 164.884 579.431C164.555 578.661 164.391 577.828 164.391 576.933C164.391 576.027 164.555 575.194 164.884 574.435C165.224 573.676 165.688 573.019 166.277 572.464C166.878 571.908 167.575 571.478 168.368 571.172C169.161 570.855 170.022 570.696 170.951 570.696C171.891 570.696 172.752 570.843 173.534 571.138C174.316 571.433 174.995 571.84 175.573 572.362L173.313 574.639C173.041 574.344 172.707 574.112 172.31 573.942C171.925 573.772 171.472 573.687 170.951 573.687C170.498 573.687 170.078 573.761 169.693 573.908C169.319 574.055 168.996 574.271 168.724 574.554C168.453 574.837 168.237 575.183 168.079 575.591C167.931 575.987 167.858 576.435 167.858 576.933C167.858 577.443 167.931 577.902 168.079 578.31C168.237 578.706 168.453 579.046 168.724 579.329C168.996 579.613 169.319 579.833 169.693 579.992C170.078 580.139 170.498 580.213 170.951 580.213C171.461 580.213 171.914 580.134 172.31 579.975C172.718 579.816 173.069 579.584 173.364 579.278L175.641 581.556C175.041 582.077 174.367 582.485 173.619 582.779C172.871 583.062 171.993 583.204 170.985 583.204ZM182.32 583.238C181.368 583.238 180.49 583.079 179.686 582.762C178.893 582.445 178.196 582.003 177.595 581.437C177.006 580.87 176.547 580.202 176.219 579.431C175.89 578.661 175.726 577.828 175.726 576.933C175.726 576.027 175.885 575.194 176.202 574.435C176.53 573.676 176.989 573.013 177.578 572.447C178.168 571.88 178.859 571.444 179.652 571.138C180.456 570.821 181.334 570.662 182.286 570.662C183.238 570.662 184.11 570.821 184.903 571.138C185.707 571.444 186.404 571.88 186.993 572.447C187.583 573.013 188.036 573.681 188.353 574.452C188.682 575.211 188.846 576.044 188.846 576.95C188.846 577.845 188.682 578.678 188.353 579.448C188.036 580.207 187.583 580.876 186.993 581.454C186.404 582.02 185.713 582.462 184.92 582.779C184.127 583.085 183.26 583.238 182.32 583.238ZM182.286 580.247C182.92 580.247 183.47 580.111 183.934 579.839C184.399 579.567 184.756 579.182 185.005 578.684C185.254 578.185 185.379 577.602 185.379 576.933C185.379 576.435 185.305 575.987 185.158 575.591C185.022 575.183 184.818 574.837 184.546 574.554C184.274 574.259 183.946 574.038 183.561 573.891C183.187 573.732 182.762 573.653 182.286 573.653C181.651 573.653 181.102 573.789 180.637 574.061C180.173 574.322 179.816 574.701 179.567 575.2C179.318 575.687 179.193 576.265 179.193 576.933C179.193 577.443 179.261 577.902 179.397 578.31C179.544 578.718 179.754 579.069 180.026 579.363C180.298 579.647 180.62 579.867 180.994 580.026C181.38 580.173 181.81 580.247 182.286 580.247ZM190.245 583V570.9H192.625L193.644 573.449V583H190.245ZM198.573 583L191.554 574.18L192.625 570.9L199.643 579.72L198.573 583ZM198.573 583L197.723 580.315V570.9H201.122V583H198.573ZM203.124 583V570.9H205.503L206.523 573.449V583H203.124ZM211.451 583L204.433 574.18L205.503 570.9L212.522 579.72L211.451 583ZM211.451 583L210.602 580.315V570.9H214.001V583H211.451ZM216.003 583V570.9H219.402V583H216.003ZM218.756 583V580.179H225.248V583H218.756ZM218.756 578.208V575.455H224.619V578.208H218.756ZM218.756 573.721V570.9H225.146V573.721H218.756ZM232.639 583.204C231.71 583.204 230.844 583.051 230.039 582.745C229.246 582.428 228.549 581.986 227.949 581.42C227.349 580.853 226.878 580.19 226.538 579.431C226.21 578.661 226.046 577.828 226.046 576.933C226.046 576.027 226.21 575.194 226.538 574.435C226.878 573.676 227.343 573.019 227.932 572.464C228.532 571.908 229.229 571.478 230.022 571.172C230.815 570.855 231.676 570.696 232.605 570.696C233.546 570.696 234.407 570.843 235.189 571.138C235.97 571.433 236.65 571.84 237.228 572.362L234.968 574.639C234.696 574.344 234.362 574.112 233.965 573.942C233.58 573.772 233.127 573.687 232.605 573.687C232.152 573.687 231.733 573.761 231.348 573.908C230.974 574.055 230.651 574.271 230.379 574.554C230.107 574.837 229.892 575.183 229.733 575.591C229.586 575.987 229.513 576.435 229.513 576.933C229.513 577.443 229.586 577.902 229.733 578.31C229.892 578.706 230.107 579.046 230.379 579.329C230.651 579.613 230.974 579.833 231.348 579.992C231.733 580.139 232.152 580.213 232.605 580.213C233.115 580.213 233.569 580.134 233.965 579.975C234.373 579.816 234.724 579.584 235.019 579.278L237.296 581.556C236.695 582.077 236.021 582.485 235.274 582.779C234.526 583.062 233.648 583.204 232.639 583.204ZM241.214 583V570.9H244.612V583H241.214ZM237.594 573.789V570.9H248.249V573.789H237.594Z" fill="white"/>
<rect x="118.414" y="18" width="329.678" height="24.1699" rx="9.66797" fill="#252525" fill-opacity="0.9"/>
<path d="M185.02 34.9004V24.2788H187.052V28.6549C187.562 28.0035 188.294 27.6777 189.248 27.6777C190.14 27.6777 190.836 27.9539 191.336 28.5062C191.837 29.0538 192.087 29.8209 192.087 30.8076V34.9004H190.055V31.3457C190.055 30.7556 189.925 30.3001 189.665 29.9791C189.406 29.6581 189.042 29.4976 188.575 29.4976C188.098 29.4976 187.725 29.6604 187.456 29.9862C187.187 30.3119 187.052 30.7651 187.052 31.3457V34.9004H185.02ZM198.41 34.7163C197.867 34.9334 197.341 35.042 196.831 35.042C196.303 35.042 195.835 34.9311 195.429 34.7092C195.028 34.4826 194.714 34.1687 194.487 33.7674C194.261 33.3614 194.148 32.8941 194.148 32.3654V29.6321H192.908V27.8194H194.254V26.0491H196.18V27.8194H198.141V29.6321H196.18V31.9972C196.18 32.3843 196.286 32.6864 196.498 32.9035C196.711 33.116 196.975 33.2222 197.292 33.2222C197.58 33.2222 197.86 33.1325 198.134 32.9531L198.41 34.7163ZM204.543 34.7163C204 34.9334 203.473 35.042 202.963 35.042C202.435 35.042 201.967 34.9311 201.561 34.7092C201.16 34.4826 200.846 34.1687 200.62 33.7674C200.393 33.3614 200.28 32.8941 200.28 32.3654V29.6321H199.041V27.8194H200.386V26.0491H202.312V27.8194H204.273V29.6321H202.312V31.9972C202.312 32.3843 202.418 32.6864 202.631 32.9035C202.843 33.116 203.107 33.2222 203.424 33.2222C203.712 33.2222 203.993 33.1325 204.266 32.9531L204.543 34.7163ZM207.764 38.4409H205.725V27.8194H207.509L207.616 28.7824C207.918 28.4378 208.279 28.1687 208.699 27.9751C209.124 27.7769 209.587 27.6777 210.087 27.6777C210.738 27.6777 211.317 27.8382 211.822 28.1592C212.327 28.4755 212.726 28.9122 213.019 29.4692C213.311 30.0216 213.458 30.6518 213.458 31.3599C213.458 32.0633 213.311 32.6935 213.019 33.2505C212.726 33.8076 212.327 34.2466 211.822 34.5676C211.317 34.8839 210.738 35.042 210.087 35.042C209.624 35.042 209.195 34.9594 208.798 34.7942C208.406 34.6242 208.062 34.3906 207.764 34.0932V38.4409ZM209.57 33.2151C209.924 33.2151 210.236 33.1372 210.505 32.9814C210.774 32.8209 210.984 32.6014 211.135 32.3229C211.291 32.0397 211.369 31.7186 211.369 31.3599C211.369 30.9964 211.291 30.6754 211.135 30.3969C210.984 30.1183 210.774 29.8988 210.505 29.7383C210.236 29.5778 209.926 29.4976 209.577 29.4976C209.247 29.4976 208.949 29.5707 208.685 29.7171C208.421 29.8587 208.206 30.057 208.041 30.3119C207.88 30.5668 207.788 30.8595 207.764 31.1899V31.544C207.788 31.865 207.88 32.153 208.041 32.4079C208.201 32.6581 208.414 32.8563 208.678 33.0027C208.942 33.1443 209.24 33.2151 209.57 33.2151ZM214.251 34.2914L214.697 32.5637C214.838 32.7194 215.027 32.8634 215.263 32.9956C215.504 33.1278 215.761 33.234 216.035 33.3142C216.314 33.3898 216.576 33.4275 216.821 33.4275C217.114 33.4275 217.343 33.3732 217.508 33.2647C217.673 33.1514 217.756 33.0003 217.756 32.8115C217.756 32.6557 217.699 32.5259 217.586 32.422C217.477 32.3135 217.329 32.219 217.14 32.1388C216.956 32.0538 216.75 31.9712 216.524 31.891C216.217 31.7729 215.901 31.636 215.575 31.4803C215.254 31.3245 214.982 31.112 214.76 30.843C214.539 30.5739 214.428 30.2175 214.428 29.7737C214.428 29.3489 214.539 28.9806 214.76 28.6691C214.982 28.3528 215.296 28.1097 215.702 27.9397C216.108 27.7651 216.58 27.6777 217.118 27.6777C217.992 27.6777 218.863 27.8973 219.731 28.3363L219.158 29.9437C219.007 29.8257 218.818 29.7171 218.591 29.6179C218.365 29.5141 218.131 29.4315 217.89 29.3701C217.654 29.3087 217.442 29.2781 217.253 29.2781C217.022 29.2781 216.84 29.3253 216.708 29.4197C216.58 29.5141 216.517 29.6439 216.517 29.8091C216.517 29.9319 216.561 30.0428 216.651 30.1419C216.741 30.2364 216.873 30.3284 217.048 30.4181C217.227 30.5031 217.447 30.5951 217.706 30.6943C218.027 30.8123 218.351 30.9539 218.676 31.1191C219.007 31.2796 219.283 31.4968 219.505 31.7706C219.731 32.0397 219.845 32.3984 219.845 32.8469C219.845 33.2859 219.724 33.6707 219.484 34.0011C219.247 34.3315 218.912 34.5888 218.478 34.7729C218.048 34.9523 217.543 35.042 216.963 35.042C215.995 35.042 215.091 34.7918 214.251 34.2914ZM221.926 29.8941C221.657 29.8941 221.431 29.802 221.247 29.6179C221.063 29.4291 220.971 29.2002 220.971 28.9311C220.971 28.662 221.063 28.433 221.247 28.2442C221.431 28.0554 221.657 27.961 221.926 27.961C222.196 27.961 222.422 28.0554 222.606 28.2442C222.795 28.433 222.889 28.662 222.889 28.9311C222.889 29.2002 222.795 29.4291 222.606 29.6179C222.422 29.802 222.196 29.8941 221.926 29.8941ZM221.926 35.042C221.657 35.042 221.431 34.9476 221.247 34.7588C221.063 34.5699 220.971 34.341 220.971 34.0719C220.971 33.8076 221.063 33.581 221.247 33.3921C221.431 33.2033 221.657 33.1089 221.926 33.1089C222.196 33.1089 222.422 33.2033 222.606 33.3921C222.795 33.581 222.889 33.8076 222.889 34.0719C222.889 34.341 222.795 34.5699 222.606 34.7588C222.422 34.9476 222.196 35.042 221.926 35.042ZM225.658 35.042H223.739L228.264 24.1372H230.176L225.658 35.042ZM231.422 35.042H229.503L234.028 24.1372H235.94L231.422 35.042ZM238.503 34.9004H236.471V27.8194H238.241L238.312 29.0444C238.548 28.6148 238.869 28.2796 239.275 28.0389C239.681 27.7981 240.146 27.6777 240.67 27.6777C240.821 27.6777 240.972 27.6895 241.123 27.7131C241.279 27.732 241.437 27.7627 241.598 27.8052L241.343 29.6321C241.031 29.5424 240.736 29.4976 240.458 29.4976C240.066 29.4976 239.721 29.5873 239.424 29.7666C239.131 29.9413 238.904 30.1868 238.744 30.5031C238.583 30.8146 238.503 31.1805 238.503 31.6006V34.9004ZM248.636 34.9004H246.866L246.76 34.0577C246.5 34.3693 246.179 34.6124 245.797 34.7871C245.414 34.957 244.994 35.042 244.536 35.042C244.041 35.042 243.599 34.9476 243.212 34.7588C242.825 34.5652 242.52 34.3009 242.299 33.9657C242.077 33.6258 241.966 33.2411 241.966 32.8115C241.966 32.3583 242.086 31.9594 242.327 31.6148C242.568 31.2702 242.898 31.0011 243.318 30.8076C243.743 30.6093 244.225 30.5102 244.763 30.5102C245.079 30.5102 245.395 30.5456 245.712 30.6164C246.033 30.6872 246.33 30.7863 246.604 30.9138V30.7297C246.604 30.4464 246.524 30.2033 246.363 30.0003C246.207 29.7926 245.99 29.6321 245.712 29.5188C245.438 29.4055 245.131 29.3489 244.791 29.3489C244.465 29.3489 244.142 29.4008 243.821 29.5046C243.505 29.6085 243.212 29.7643 242.943 29.972L242.391 28.4212C242.867 28.1758 243.349 27.9917 243.835 27.8689C244.326 27.7415 244.801 27.6777 245.258 27.6777C245.948 27.6777 246.545 27.8146 247.05 28.0884C247.555 28.3575 247.945 28.7399 248.218 29.2356C248.497 29.7265 248.636 30.3095 248.636 30.9846V34.9004ZM244.982 33.4771C245.251 33.4771 245.509 33.4181 245.754 33.3001C246 33.1821 246.198 33.0216 246.349 32.8186C246.505 32.6156 246.587 32.3913 246.597 32.1459V32.0963C246.389 31.9547 246.158 31.8461 245.903 31.7706C245.653 31.6903 245.398 31.6502 245.138 31.6502C244.751 31.6502 244.435 31.7352 244.189 31.9051C243.944 32.0751 243.821 32.2946 243.821 32.5637C243.821 32.7383 243.871 32.8965 243.97 33.0381C244.074 33.175 244.213 33.2836 244.388 33.3638C244.562 33.4393 244.76 33.4771 244.982 33.4771ZM253.77 38.4409H251.603L253.076 34.8933L249.5 27.8194H251.794L254.039 32.5778L256.007 27.8194H258.167L253.77 38.4409ZM265.333 34.9004H263.563L263.457 34.0577C263.197 34.3693 262.876 34.6124 262.494 34.7871C262.111 34.957 261.691 35.042 261.233 35.042C260.738 35.042 260.296 34.9476 259.909 34.7588C259.522 34.5652 259.218 34.3009 258.996 33.9657C258.774 33.6258 258.663 33.2411 258.663 32.8115C258.663 32.3583 258.783 31.9594 259.024 31.6148C259.265 31.2702 259.595 31.0011 260.015 30.8076C260.44 30.6093 260.922 30.5102 261.46 30.5102C261.776 30.5102 262.092 30.5456 262.409 30.6164C262.73 30.6872 263.027 30.7863 263.301 30.9138V30.7297C263.301 30.4464 263.221 30.2033 263.06 30.0003C262.904 29.7926 262.687 29.6321 262.409 29.5188C262.135 29.4055 261.828 29.3489 261.488 29.3489C261.162 29.3489 260.839 29.4008 260.518 29.5046C260.202 29.6085 259.909 29.7643 259.64 29.972L259.088 28.4212C259.565 28.1758 260.046 27.9917 260.532 27.8689C261.023 27.7415 261.498 27.6777 261.956 27.6777C262.645 27.6777 263.242 27.8146 263.747 28.0884C264.252 28.3575 264.642 28.7399 264.915 29.2356C265.194 29.7265 265.333 30.3095 265.333 30.9846V34.9004ZM261.679 33.4771C261.948 33.4771 262.206 33.4181 262.451 33.3001C262.697 33.1821 262.895 33.0216 263.046 32.8186C263.202 32.6156 263.284 32.3913 263.294 32.1459V32.0963C263.086 31.9547 262.855 31.8461 262.6 31.7706C262.35 31.6903 262.095 31.6502 261.835 31.6502C261.448 31.6502 261.132 31.7352 260.886 31.9051C260.641 32.0751 260.518 32.2946 260.518 32.5637C260.518 32.7383 260.568 32.8965 260.667 33.0381C260.771 33.175 260.91 33.2836 261.085 33.3638C261.259 33.4393 261.458 33.4771 261.679 33.4771ZM273.845 34.9004H272.195L272.124 33.7674C271.874 34.1828 271.541 34.4991 271.125 34.7163C270.715 34.9334 270.233 35.042 269.681 35.042C268.775 35.042 268.064 34.7635 267.55 34.2064C267.035 33.6494 266.778 32.8847 266.778 31.9122V27.8194H268.81V31.4448C268.81 31.9972 268.94 32.4315 269.199 32.7478C269.464 33.0593 269.823 33.2151 270.276 33.2151C270.748 33.2151 271.121 33.0522 271.395 32.7265C271.673 32.3961 271.812 31.95 271.812 31.3882V27.8194H273.845V34.9004ZM280.522 34.7163C279.979 34.9334 279.453 35.042 278.943 35.042C278.414 35.042 277.947 34.9311 277.541 34.7092C277.14 34.4826 276.826 34.1687 276.599 33.7674C276.373 33.3614 276.259 32.8941 276.259 32.3654V29.6321H275.02V27.8194H276.365V26.0491H278.291V27.8194H280.253V29.6321H278.291V31.9972C278.291 32.3843 278.398 32.6864 278.61 32.9035C278.823 33.116 279.087 33.2222 279.403 33.2222C279.691 33.2222 279.972 33.1325 280.246 32.9531L280.522 34.7163ZM281.705 34.9004V24.2788H283.737V28.6549C284.247 28.0035 284.978 27.6777 285.932 27.6777C286.824 27.6777 287.52 27.9539 288.021 28.5062C288.521 29.0538 288.771 29.8209 288.771 30.8076V34.9004H286.739V31.3457C286.739 30.7556 286.609 30.3001 286.35 29.9791C286.09 29.6581 285.727 29.4976 285.259 29.4976C284.782 29.4976 284.409 29.6604 284.14 29.9862C283.871 30.3119 283.737 30.7651 283.737 31.3457V34.9004H281.705ZM291.207 35.042C290.924 35.042 290.693 34.9547 290.513 34.78C290.339 34.6006 290.251 34.367 290.251 34.079C290.251 33.791 290.339 33.5597 290.513 33.385C290.693 33.2057 290.924 33.116 291.207 33.116C291.495 33.116 291.729 33.2057 291.908 33.385C292.088 33.5597 292.177 33.791 292.177 34.079C292.177 34.367 292.088 34.6006 291.908 34.78C291.729 34.9547 291.495 35.042 291.207 35.042ZM299.86 33.7745C299.516 34.171 299.093 34.4826 298.593 34.7092C298.092 34.9311 297.542 35.042 296.943 35.042C296.216 35.042 295.564 34.8839 294.989 34.5676C294.417 34.2466 293.967 33.8076 293.636 33.2505C293.31 32.6935 293.147 32.0633 293.147 31.3599C293.147 30.6518 293.31 30.0216 293.636 29.4692C293.967 28.9122 294.417 28.4755 294.989 28.1592C295.564 27.8382 296.216 27.6777 296.943 27.6777C297.538 27.6777 298.085 27.7887 298.586 28.0105C299.086 28.2324 299.509 28.5393 299.853 28.9311L298.657 30.1844C298.472 29.972 298.239 29.8068 297.956 29.6888C297.677 29.566 297.384 29.5046 297.077 29.5046C296.723 29.5046 296.407 29.5849 296.129 29.7454C295.85 29.9012 295.631 30.1183 295.47 30.3969C295.31 30.6707 295.229 30.9869 295.229 31.3457C295.229 31.7092 295.31 32.0326 295.47 32.3158C295.631 32.5991 295.85 32.8209 296.129 32.9814C296.407 33.1372 296.723 33.2151 297.077 33.2151C297.384 33.2151 297.679 33.1561 297.963 33.0381C298.246 32.9153 298.477 32.7478 298.657 32.5353L299.86 33.7745ZM304.47 35.042C303.743 35.042 303.092 34.8839 302.516 34.5676C301.94 34.2466 301.487 33.8099 301.156 33.2576C300.83 32.7006 300.668 32.068 300.668 31.3599C300.668 30.6565 300.83 30.0286 301.156 29.4763C301.487 28.9193 301.94 28.4803 302.516 28.1592C303.092 27.8382 303.743 27.6777 304.47 27.6777C305.197 27.6777 305.844 27.8382 306.41 28.1592C306.981 28.4803 307.43 28.9193 307.756 29.4763C308.086 30.0286 308.251 30.6565 308.251 31.3599C308.251 32.068 308.086 32.7006 307.756 33.2576C307.43 33.8099 306.981 34.2466 306.41 34.5676C305.844 34.8839 305.197 35.042 304.47 35.042ZM304.463 33.2222C304.789 33.2222 305.079 33.1419 305.334 32.9814C305.594 32.8162 305.797 32.5943 305.943 32.3158C306.094 32.0326 306.169 31.7092 306.169 31.3457C306.169 30.9964 306.094 30.6825 305.943 30.4039C305.797 30.1254 305.594 29.9059 305.334 29.7454C305.079 29.5802 304.789 29.4976 304.463 29.4976C304.133 29.4976 303.837 29.5802 303.578 29.7454C303.323 29.9059 303.12 30.1254 302.969 30.4039C302.823 30.6825 302.749 30.9964 302.749 31.3457C302.749 31.7092 302.823 32.0326 302.969 32.3158C303.12 32.5943 303.323 32.8162 303.578 32.9814C303.837 33.1419 304.133 33.2222 304.463 33.2222ZM321.068 34.9004H319.036V31.3457C319.036 30.7556 318.92 30.3001 318.689 29.9791C318.457 29.6581 318.129 29.4976 317.704 29.4976C317.27 29.4976 316.93 29.6604 316.685 29.9862C316.444 30.3119 316.324 30.7651 316.324 31.3457V34.9004H314.291V31.3457C314.291 30.7556 314.176 30.3001 313.944 29.9791C313.713 29.6581 313.383 29.4976 312.953 29.4976C312.524 29.4976 312.186 29.6604 311.941 29.9862C311.7 30.3119 311.579 30.7651 311.579 31.3457V34.9004H309.547V27.8194H311.169L311.24 28.9877C311.476 28.5581 311.792 28.2324 312.188 28.0105C312.59 27.7887 313.055 27.6777 313.583 27.6777C314.136 27.6777 314.612 27.7934 315.014 28.0247C315.415 28.256 315.724 28.5888 315.941 29.0231C316.182 28.5841 316.501 28.2513 316.897 28.0247C317.299 27.7934 317.773 27.6777 318.321 27.6777C319.184 27.6777 319.857 27.9539 320.339 28.5062C320.825 29.0538 321.068 29.8209 321.068 30.8076V34.9004ZM323.801 35.042H321.882L326.407 24.1372H328.319L323.801 35.042ZM334.458 34.9004H332.688L332.582 34.0577C332.322 34.3693 332.001 34.6124 331.619 34.7871C331.236 34.957 330.816 35.042 330.358 35.042C329.863 35.042 329.421 34.9476 329.034 34.7588C328.647 34.5652 328.343 34.3009 328.121 33.9657C327.899 33.6258 327.788 33.2411 327.788 32.8115C327.788 32.3583 327.908 31.9594 328.149 31.6148C328.39 31.2702 328.72 31.0011 329.14 30.8076C329.565 30.6093 330.047 30.5102 330.585 30.5102C330.901 30.5102 331.217 30.5456 331.534 30.6164C331.855 30.6872 332.152 30.7863 332.426 30.9138V30.7297C332.426 30.4464 332.346 30.2033 332.185 30.0003C332.029 29.7926 331.812 29.6321 331.534 29.5188C331.26 29.4055 330.953 29.3489 330.613 29.3489C330.287 29.3489 329.964 29.4008 329.643 29.5046C329.327 29.6085 329.034 29.7643 328.765 29.972L328.213 28.4212C328.69 28.1758 329.171 27.9917 329.657 27.8689C330.148 27.7415 330.623 27.6777 331.081 27.6777C331.77 27.6777 332.367 27.8146 332.872 28.0884C333.377 28.3575 333.767 28.7399 334.04 29.2356C334.319 29.7265 334.458 30.3095 334.458 30.9846V34.9004ZM330.804 33.4771C331.073 33.4771 331.331 33.4181 331.576 33.3001C331.822 33.1821 332.02 33.0216 332.171 32.8186C332.327 32.6156 332.409 32.3913 332.419 32.1459V32.0963C332.211 31.9547 331.98 31.8461 331.725 31.7706C331.475 31.6903 331.22 31.6502 330.96 31.6502C330.573 31.6502 330.257 31.7352 330.011 31.9051C329.766 32.0751 329.643 32.2946 329.643 32.5637C329.643 32.7383 329.693 32.8965 329.792 33.0381C329.896 33.175 330.035 33.2836 330.21 33.3638C330.384 33.4393 330.583 33.4771 330.804 33.4771ZM342.97 34.9004H341.32L341.249 33.7674C340.999 34.1828 340.666 34.4991 340.25 34.7163C339.84 34.9334 339.358 35.042 338.806 35.042C337.9 35.042 337.189 34.7635 336.675 34.2064C336.16 33.6494 335.903 32.8847 335.903 31.9122V27.8194H337.935V31.4448C337.935 31.9972 338.065 32.4315 338.324 32.7478C338.589 33.0593 338.948 33.2151 339.401 33.2151C339.873 33.2151 340.246 33.0522 340.52 32.7265C340.798 32.3961 340.937 31.95 340.937 31.3882V27.8194H342.97V34.9004ZM349.647 34.7163C349.104 34.9334 348.578 35.042 348.068 35.042C347.539 35.042 347.072 34.9311 346.666 34.7092C346.265 34.4826 345.951 34.1687 345.724 33.7674C345.498 33.3614 345.384 32.8941 345.384 32.3654V29.6321H344.145V27.8194H345.49V26.0491H347.416V27.8194H349.378V29.6321H347.416V31.9972C347.416 32.3843 347.523 32.6864 347.735 32.9035C347.948 33.116 348.212 33.2222 348.528 33.2222C348.816 33.2222 349.097 33.1325 349.371 32.9531L349.647 34.7163ZM350.83 34.9004V24.2788H352.862V28.6549C353.372 28.0035 354.103 27.6777 355.057 27.6777C355.949 27.6777 356.645 27.9539 357.146 28.5062C357.646 29.0538 357.896 29.8209 357.896 30.8076V34.9004H355.864V31.3457C355.864 30.7556 355.734 30.3001 355.475 29.9791C355.215 29.6581 354.852 29.4976 354.384 29.4976C353.907 29.4976 353.535 29.6604 353.265 29.9862C352.996 30.3119 352.862 30.7651 352.862 31.3457V34.9004H350.83Z" fill="white"/>
<ellipse cx="37.251" cy="31.5166" rx="7.25098" ry="7.25098" fill="#FB1717"/>
<ellipse cx="60.4541" cy="31.5166" rx="7.25098" ry="7.25098" fill="#F8E96A"/>
<ellipse cx="83.6572" cy="31.5166" rx="7.25098" ry="7.25098" fill="#0AA837"/>
<defs>
<linearGradient id="paint0_linear_2_17" x1="263.779" y1="60.4155" x2="263.779" y2="147.6" gradientUnits="userSpaceOnUse">
<stop/>
<stop offset="1" stop-opacity="0"/>
</linearGradient>
<linearGradient id="paint1_linear_2_17" x1="263.779" y1="60.4155" x2="263.779" y2="147.6" gradientUnits="userSpaceOnUse">
<stop stop-color="#796AD6"/>
<stop offset="0.515625" stop-color="#6466FA"/>
<stop offset="0.8125" stop-color="#4749C9"/>
<stop offset="1" stop-color="#7173DB"/>
</linearGradient>
<linearGradient id="paint2_linear_2_17" x1="262.343" y1="70.2596" x2="262.343" y2="172.316" gradientUnits="userSpaceOnUse">
<stop stop-color="#3033FF"/>
<stop offset="0.0001" stop-color="#3033FF"/>
<stop offset="0.520833" stop-color="#7F80EF"/>
<stop offset="0.739583" stop-color="#4749C2"/>
<stop offset="1" stop-color="#4446C1"/>
</linearGradient>
<linearGradient id="paint3_linear_2_17" x1="133.418" y1="577.178" x2="388.652" y2="577.178" gradientUnits="userSpaceOnUse">
<stop stop-color="#45A0F5"/>
<stop offset="1" stop-color="#26E3C2"/>
</linearGradient>
<clipPath id="clip0_2_17">
<rect width="19.1188" height="19.1188" fill="white" transform="translate(190.848 362.492)"/>
</clipPath>
<clipPath id="clip1_2_17">
<rect width="19.1188" height="19.1188" fill="white" transform="translate(197 408)"/>
</clipPath>
<clipPath id="clip2_2_17">
<rect width="19.1188" height="19.1188" fill="white" transform="translate(190.848 450.694)"/>
</clipPath>
</defs>
</svg>
