<svg width="505" height="682" viewBox="0 0 505 682" fill="none" xmlns="http://www.w3.org/2000/svg">
<path d="M0 32.0001C0 14.3269 14.3269 0 32 0H497.378C515.051 0 529.378 14.3269 529.378 32V649.733C529.378 667.406 515.051 681.733 497.378 681.733H32C14.3269 681.733 0 667.406 0 649.733V32.0001Z" fill="black"/>
<path d="M146.831 228.849V220.626H155.503C157.387 220.626 158.822 220.176 159.807 219.277C160.835 218.335 161.349 217.072 161.349 215.487C161.349 213.945 160.835 212.703 159.807 211.761C158.822 210.776 157.387 210.284 155.503 210.284H146.831V201.74H157.109C160.192 201.74 162.89 202.318 165.203 203.474C167.558 204.631 169.4 206.215 170.728 208.228C172.055 210.241 172.719 212.596 172.719 215.294C172.719 217.992 172.034 220.369 170.663 222.425C169.336 224.438 167.473 226.022 165.074 227.179C162.676 228.292 159.871 228.849 156.659 228.849H146.831ZM137.709 247.285V201.74H149.207V247.285H137.709ZM162.376 247.285L149.143 227.757L159.486 225.251L175.674 247.285H162.376ZM191.008 247.928C188.095 247.928 185.504 247.221 183.235 245.808C180.965 244.395 179.188 242.467 177.903 240.026C176.618 237.542 175.976 234.737 175.976 231.611C175.976 228.442 176.618 225.615 177.903 223.131C179.188 220.648 180.965 218.72 183.235 217.35C185.504 215.937 188.095 215.23 191.008 215.23C192.978 215.23 194.776 215.594 196.404 216.322C198.031 217.007 199.359 217.992 200.386 219.277C201.457 220.562 202.099 222.018 202.314 223.645V239.448C202.099 241.118 201.457 242.596 200.386 243.881C199.359 245.123 198.031 246.108 196.404 246.836C194.776 247.564 192.978 247.928 191.008 247.928ZM193.384 237.971C195.226 237.971 196.703 237.371 197.817 236.172C198.973 234.973 199.551 233.431 199.551 231.547C199.551 230.305 199.294 229.213 198.78 228.271C198.267 227.328 197.538 226.579 196.596 226.022C195.697 225.466 194.648 225.187 193.449 225.187C192.249 225.187 191.179 225.466 190.237 226.022C189.337 226.579 188.609 227.35 188.053 228.335C187.539 229.277 187.282 230.348 187.282 231.547C187.282 232.789 187.539 233.902 188.053 234.887C188.566 235.829 189.294 236.579 190.237 237.136C191.179 237.692 192.228 237.971 193.384 237.971ZM199.102 247.285V238.87L200.708 231.161L199.102 223.581V215.872H210.087V247.285H199.102ZM225.988 247.35L213.397 215.872H225.346L233.055 241.761H228.365L236.138 215.872H248.086L235.174 247.285L225.988 247.35ZM218.536 260.583L227.851 240.091L235.174 247.285L229.778 260.583H218.536ZM248.794 247.285L266.46 201.74H277.573L295.046 247.285H283.034L269.865 208.999H274.04L260.55 247.285H248.794ZM259.522 239.32V230.198H284.64V239.32H259.522ZM312.301 247.992C309.346 247.992 306.713 247.414 304.4 246.258C302.13 245.058 300.332 243.41 299.004 241.311C297.719 239.17 297.077 236.75 297.077 234.052V215.872H308.254V234.052C308.254 234.909 308.426 235.658 308.768 236.301C309.111 236.943 309.582 237.435 310.182 237.778C310.781 238.121 311.488 238.292 312.301 238.292C313.501 238.292 314.464 237.906 315.192 237.136C315.963 236.365 316.349 235.337 316.349 234.052V215.872H327.526V234.052C327.526 236.793 326.884 239.213 325.599 241.311C324.314 243.41 322.516 245.058 320.203 246.258C317.933 247.414 315.299 247.992 312.301 247.992ZM337.535 247.285V202.896H348.713V247.285H337.535ZM330.597 225.187V215.872H355.65V225.187H330.597ZM379.943 247.285V229.555C379.943 228.099 379.515 226.964 378.658 226.151C377.801 225.294 376.709 224.866 375.382 224.866C374.482 224.866 373.669 225.059 372.941 225.444C372.255 225.83 371.72 226.365 371.335 227.05C370.949 227.735 370.757 228.57 370.757 229.555L366.388 227.5C366.388 224.973 366.902 222.81 367.93 221.012C369.001 219.17 370.457 217.757 372.298 216.772C374.14 215.744 376.281 215.23 378.722 215.23C381.249 215.23 383.433 215.744 385.275 216.772C387.159 217.757 388.594 219.127 389.579 220.883C390.606 222.639 391.12 224.673 391.12 226.986V247.285H379.943ZM359.579 247.285V200.455H370.757V247.285H359.579Z" fill="white"/>
<path d="M287.743 134.696C281.456 140.073 273.713 143.171 265.668 143.592C265.733 143.152 265.831 142.643 265.964 142.059C266.513 139.642 267.46 136.749 268.546 133.434C269.122 131.674 269.736 129.796 270.351 127.807C272.024 122.399 273.652 116.274 273.599 110.999C273.572 108.323 273.114 105.547 271.749 103.115C270.322 100.573 268.06 98.6949 265.015 97.6939C258.709 95.6206 253.672 98.7731 250.165 102.765C246.721 106.686 243.978 112.191 241.742 117.15C240.95 118.908 240.227 120.579 239.552 122.138C238.207 125.248 237.054 127.912 235.927 129.928C235.812 130.134 235.703 130.32 235.602 130.488C230.238 124.239 226.887 116.337 226.091 107.908C225.224 98.7405 227.437 89.5568 232.33 81.9258C237.221 74.2978 244.475 68.708 252.829 66.0671C261.18 63.4273 270.148 63.8849 278.218 67.3683C286.291 70.8533 292.993 77.1647 297.148 85.2651C301.304 93.3681 302.641 102.738 300.917 111.77C299.194 120.8 294.524 128.897 287.743 134.696Z" stroke="url(#paint0_linear_2_17)" stroke-width="7.91751"/>
<path d="M287.743 134.696C281.456 140.073 273.713 143.171 265.668 143.592C265.733 143.152 265.831 142.643 265.964 142.059C266.513 139.642 267.46 136.749 268.546 133.434C269.122 131.674 269.736 129.796 270.351 127.807C272.024 122.399 273.652 116.274 273.599 110.999C273.572 108.323 273.114 105.547 271.749 103.115C270.322 100.573 268.06 98.6949 265.015 97.6939C258.709 95.6206 253.672 98.7731 250.165 102.765C246.721 106.686 243.978 112.191 241.742 117.15C240.95 118.908 240.227 120.579 239.552 122.138C238.207 125.248 237.054 127.912 235.927 129.928C235.812 130.134 235.703 130.32 235.602 130.488C230.238 124.239 226.887 116.337 226.091 107.908C225.224 98.7405 227.437 89.5568 232.33 81.9258C237.221 74.2978 244.475 68.708 252.829 66.0671C261.18 63.4273 270.148 63.8849 278.218 67.3683C286.291 70.8533 292.993 77.1647 297.148 85.2651C301.304 93.3681 302.641 102.738 300.917 111.77C299.194 120.8 294.524 128.897 287.743 134.696Z" stroke="url(#paint1_linear_2_17)" stroke-width="7.91751"/>
<path d="M249.395 103.566C237.216 122.511 228.33 148.463 227.322 168.134C227.204 170.449 229.098 172.316 231.416 172.316H297.457C303.998 171.793 299.31 152.187 288.455 138.799" stroke="url(#paint2_linear_2_17)" stroke-width="7.48552"/>
<path opacity="0.1" d="M30.0802 314.653H497.428V313.378H30.0802V314.653Z" fill="black"/>
<path d="M237.199 317.547C236.431 317.837 235.56 317.983 234.585 317.983C231.39 317.983 229.793 316.437 229.793 313.346C229.793 310.421 231.39 308.958 234.585 308.958C235.56 308.958 236.431 309.104 237.199 309.394V310.888C236.431 310.556 235.602 310.39 234.709 310.39C232.573 310.39 231.504 311.375 231.504 313.346C231.504 315.483 232.573 316.551 234.709 316.551C235.602 316.551 236.431 316.385 237.199 316.053V317.547ZM239.937 314.628C239.937 315.993 240.466 316.676 241.524 316.676C242.582 316.676 243.111 315.993 243.111 314.628C243.111 313.296 242.582 312.63 241.524 312.63C240.466 312.63 239.937 313.296 239.937 314.628ZM238.288 314.653C238.288 312.462 239.367 311.367 241.524 311.367C243.682 311.367 244.761 312.462 244.761 314.653C244.761 316.839 243.682 317.933 241.524 317.933C239.375 317.933 238.296 316.839 238.288 314.653ZM246.005 317.92V311.386H247.281L247.486 312.344C248.113 311.705 248.827 311.386 249.627 311.386C251.175 311.386 251.949 312.19 251.949 313.8V317.92H250.299V313.8C250.299 313.078 249.941 312.717 249.223 312.717C248.688 312.717 248.165 312.931 247.654 313.358V317.92H246.005ZM253.418 310.328H254.637L254.886 311.386H256.529V312.692H255.067V315.698C255.067 316.308 255.33 316.613 255.857 316.613H256.529V317.92H255.061C253.965 317.92 253.418 317.333 253.418 316.159V310.328ZM259.305 309.021V310.328H257.656V309.021H259.305ZM259.305 311.386V317.92H257.656V311.386H259.305ZM260.867 317.92V311.386H262.143L262.348 312.344C262.975 311.705 263.688 311.386 264.489 311.386C266.037 311.386 266.811 312.19 266.811 313.8V317.92H265.161V313.8C265.161 313.078 264.802 312.717 264.085 312.717C263.549 312.717 263.027 312.931 262.516 313.358V317.92H260.867ZM274.254 311.386V317.92H272.966L272.767 317.086C272.016 317.642 271.219 317.92 270.377 317.92C269.041 317.92 268.373 317.13 268.373 315.549V311.386H270.022V315.506C270.022 316.227 270.337 316.588 270.968 316.588C271.503 316.588 272.049 316.375 272.605 315.947V311.386H274.254ZM278.573 311.386C280.556 311.386 281.548 312.398 281.548 314.423C281.548 314.692 281.529 314.962 281.492 315.232H277.154C277.154 316.153 277.83 316.613 279.183 316.613C279.843 316.613 280.502 316.551 281.162 316.427V317.734C280.585 317.858 279.884 317.92 279.059 317.92C276.689 317.92 275.505 316.806 275.505 314.578C275.505 312.45 276.528 311.386 278.573 311.386ZM277.154 314.087H279.942V314.037C279.942 313.132 279.486 312.68 278.573 312.68C277.702 312.68 277.229 313.149 277.154 314.087ZM285.027 311.386H286.689L287.535 315.935L289.047 311.386H290.46L292.091 315.935L292.825 311.386H294.543L292.838 317.92H291.288L289.751 313.284L288.195 317.92H286.62L285.027 311.386ZM297.194 309.021V310.328H295.545V309.021H297.194ZM297.194 311.386V317.92H295.545V311.386H297.194ZM298.663 310.328H299.883L300.132 311.386H301.775V312.692H300.312V315.698C300.312 316.308 300.576 316.613 301.102 316.613H301.775V317.92H300.306C299.21 317.92 298.663 317.333 298.663 316.159V310.328ZM302.901 317.92V309.021H304.55V312.22C305.065 311.664 305.722 311.386 306.523 311.386C308.071 311.386 308.845 312.19 308.845 313.8V317.92H307.195V313.8C307.195 313.078 306.836 312.717 306.119 312.717C305.583 312.717 305.061 312.931 304.55 313.358V317.92H302.901Z" fill="white"/>
<path opacity="0.1" d="M30.0802 535.071H497.428V533.796H30.0802V535.071Z" fill="black"/>
<path d="M227.647 533.864C227.647 536.266 228.732 537.467 230.902 537.467C233.026 537.467 234.088 536.266 234.088 533.864C234.088 531.495 233.026 530.31 230.902 530.31C228.732 530.31 227.647 531.495 227.647 533.864ZM226.433 533.901C226.433 530.885 227.923 529.377 230.902 529.377C233.835 529.377 235.302 530.885 235.302 533.901C235.302 536.901 233.835 538.401 230.902 538.401C227.923 538.401 226.433 536.901 226.433 533.901ZM236.989 538.339V531.804H237.767L237.972 532.638C238.545 532.082 239.233 531.804 240.038 531.804V532.762C239.258 532.762 238.625 533.038 238.14 533.59V538.339H236.989ZM249.94 531.804V538.339H249.149L248.95 537.505C248.158 538.061 247.361 538.339 246.56 538.339C245.059 538.339 244.308 537.527 244.308 535.905V531.804H245.459V535.924C245.459 536.895 245.94 537.38 246.903 537.38C247.562 537.38 248.191 537.104 248.789 536.552V531.804H249.94ZM251.751 538.027V537.032C252.518 537.281 253.294 537.405 254.079 537.405C255.12 537.405 255.641 537.094 255.641 536.472C255.641 535.891 255.278 535.6 254.552 535.6H253.618C252.207 535.6 251.502 534.957 251.502 533.671C251.502 532.426 252.409 531.804 254.222 531.804C255.002 531.804 255.775 531.908 256.543 532.115V533.111C255.775 532.862 255.002 532.737 254.222 532.737C253.135 532.737 252.591 533.049 252.591 533.671C252.591 534.252 252.933 534.542 253.618 534.542H254.552C256.045 534.542 256.792 535.185 256.792 536.472C256.792 537.716 255.888 538.339 254.079 538.339C253.294 538.339 252.518 538.235 251.751 538.027ZM261.043 531.804C262.901 531.804 263.831 532.723 263.831 534.561C263.831 534.822 263.812 535.102 263.775 535.401H259.188C259.188 536.737 259.968 537.405 261.528 537.405C262.271 537.405 262.931 537.322 263.507 537.156V538.09C262.931 538.256 262.229 538.339 261.404 538.339C259.159 538.339 258.037 537.225 258.037 534.997C258.037 532.868 259.039 531.804 261.043 531.804ZM259.188 534.443H262.723C262.698 533.298 262.138 532.725 261.043 532.725C259.881 532.725 259.263 533.298 259.188 534.443ZM267.777 531.804H268.94L270.098 536.926L271.797 531.804H272.836L274.654 536.926L275.699 531.804H276.919L275.214 538.339H274.162L272.289 533.453L270.509 538.339H269.432L267.777 531.804ZM277.765 536.366C277.765 535.026 278.649 534.356 280.417 534.356C280.985 534.356 281.553 534.397 282.122 534.48V533.864C282.122 533.113 281.535 532.737 280.361 532.737C279.688 532.737 279 532.841 278.294 533.049V532.115C279 531.908 279.688 531.804 280.361 531.804C282.302 531.804 283.273 532.48 283.273 533.833V538.339H282.626L282.228 537.691C281.576 538.123 280.867 538.339 280.099 538.339C278.543 538.339 277.765 537.681 277.765 536.366ZM280.417 535.289C279.417 535.289 278.917 535.642 278.917 536.347C278.917 537.052 279.311 537.405 280.099 537.405C280.896 537.405 281.57 537.193 282.122 536.77V535.414C281.553 535.331 280.985 535.289 280.417 535.289ZM286.36 529.439V538.339H285.209V529.439H286.36ZM289.509 529.439V538.339H288.358V529.439H289.509ZM294.14 531.804C295.998 531.804 296.928 532.723 296.928 534.561C296.928 534.822 296.909 535.102 296.872 535.401H292.285C292.285 536.737 293.065 537.405 294.625 537.405C295.368 537.405 296.027 537.322 296.604 537.156V538.09C296.027 538.256 295.326 538.339 294.501 538.339C292.256 538.339 291.134 537.225 291.134 534.997C291.134 532.868 292.136 531.804 294.14 531.804ZM292.285 534.443H295.82C295.795 533.298 295.235 532.725 294.14 532.725C292.978 532.725 292.36 533.298 292.285 534.443ZM298.477 530.746H299.199L299.448 531.804H301.216V532.737H299.629V536.49C299.629 537.1 299.892 537.405 300.419 537.405H301.216V538.339H300.12C299.025 538.339 298.477 537.752 298.477 536.577V530.746Z" fill="white"/>
<rect x="57.1014" y="355.439" width="424.862" height="33.1392" rx="12" fill="white" fill-opacity="0.9"/>
<rect x="57.1014" y="443.641" width="424.862" height="33.1392" rx="12" fill="#212121" fill-opacity="0.9"/>
<rect x="57.1014" y="399.54" width="424.862" height="33.1392" rx="12" fill="#5865F2" fill-opacity="0.9"/>
<g clip-path="url(#clip0_2_17)">
<path d="M209.78 372.272C209.78 371.622 209.728 370.969 209.615 370.329H200.599V374.01H205.762C205.548 375.198 204.859 376.248 203.851 376.915V379.304H206.932C208.741 377.639 209.78 375.18 209.78 372.272Z" fill="#4285F4"/>
<path d="M200.599 381.612C203.177 381.612 205.351 380.765 206.935 379.304L203.855 376.915C202.998 377.498 201.891 377.829 200.602 377.829C198.108 377.829 195.994 376.146 195.235 373.884H192.056V376.346C193.679 379.574 196.984 381.612 200.599 381.612V381.612Z" fill="#34A853"/>
<path d="M195.231 373.884C194.831 372.697 194.831 371.411 195.231 370.224V367.762H192.056C190.7 370.463 190.7 373.645 192.056 376.346L195.231 373.884V373.884Z" fill="#FBBC04"/>
<path d="M200.599 366.276C201.961 366.255 203.279 366.768 204.266 367.709L206.995 364.98C205.267 363.357 202.973 362.465 200.599 362.493C196.984 362.493 193.679 364.53 192.056 367.762L195.231 370.224C195.987 367.958 198.105 366.276 200.599 366.276V366.276Z" fill="#EA4335"/>
</g>
<path d="M225.466 377.149C224.743 377.149 224.123 377.026 223.605 376.78C223.095 376.533 222.632 376.164 222.216 375.671L223.363 374.524C223.626 374.872 223.932 375.144 224.28 375.339C224.629 375.526 225.054 375.62 225.555 375.62C226.005 375.62 226.362 375.53 226.626 375.352C226.897 375.174 227.033 374.927 227.033 374.613C227.033 374.341 226.957 374.12 226.804 373.95C226.651 373.78 226.447 373.636 226.192 373.517C225.946 373.398 225.67 373.291 225.364 373.198C225.066 373.096 224.765 372.981 224.459 372.854C224.161 372.726 223.885 372.569 223.63 372.382C223.384 372.187 223.184 371.94 223.031 371.643C222.878 371.337 222.802 370.955 222.802 370.496C222.802 369.952 222.934 369.489 223.197 369.107C223.46 368.724 223.821 368.431 224.28 368.227C224.739 368.023 225.258 367.921 225.835 367.921C226.447 367.921 226.999 368.036 227.492 368.265C227.985 368.495 228.389 368.792 228.703 369.158L227.556 370.305C227.293 370.016 227.021 369.803 226.74 369.667C226.468 369.531 226.158 369.463 225.81 369.463C225.41 369.463 225.096 369.54 224.867 369.693C224.637 369.846 224.523 370.067 224.523 370.356C224.523 370.602 224.599 370.802 224.752 370.955C224.905 371.108 225.105 371.239 225.351 371.35C225.606 371.46 225.882 371.567 226.179 371.668C226.485 371.77 226.787 371.885 227.084 372.013C227.39 372.14 227.666 372.306 227.913 372.51C228.168 372.714 228.372 372.977 228.525 373.3C228.678 373.614 228.754 374.005 228.754 374.473C228.754 375.305 228.461 375.96 227.875 376.435C227.288 376.911 226.485 377.149 225.466 377.149ZM229.944 377.022V370.865H231.626V377.022H229.944ZM230.785 369.871C230.513 369.871 230.288 369.782 230.109 369.604C229.931 369.417 229.842 369.187 229.842 368.915C229.842 368.652 229.931 368.427 230.109 368.24C230.288 368.053 230.513 367.959 230.785 367.959C231.065 367.959 231.291 368.053 231.461 368.24C231.639 368.427 231.728 368.652 231.728 368.915C231.728 369.187 231.639 369.417 231.461 369.604C231.291 369.782 231.065 369.871 230.785 369.871ZM235.68 379.749C235.026 379.749 234.448 379.63 233.947 379.392C233.445 379.163 233.046 378.836 232.748 378.411L233.806 377.353C234.044 377.634 234.308 377.846 234.597 377.99C234.894 378.143 235.251 378.22 235.667 378.22C236.186 378.22 236.593 378.088 236.891 377.825C237.197 377.561 237.35 377.196 237.35 376.729V375.186L237.63 373.835L237.362 372.484V370.865H239.019V376.703C239.019 377.315 238.875 377.846 238.586 378.296C238.306 378.755 237.915 379.112 237.413 379.367C236.912 379.622 236.334 379.749 235.68 379.749ZM235.604 376.856C235.051 376.856 234.554 376.724 234.112 376.461C233.67 376.189 233.322 375.819 233.067 375.352C232.821 374.885 232.697 374.362 232.697 373.784C232.697 373.206 232.821 372.688 233.067 372.229C233.322 371.77 233.67 371.409 234.112 371.146C234.554 370.874 235.051 370.738 235.604 370.738C236.062 370.738 236.466 370.827 236.814 371.006C237.171 371.184 237.452 371.431 237.656 371.745C237.86 372.051 237.97 372.412 237.987 372.828V374.766C237.97 375.174 237.855 375.539 237.643 375.862C237.439 376.176 237.159 376.423 236.802 376.601C236.453 376.771 236.054 376.856 235.604 376.856ZM235.935 375.339C236.241 375.339 236.504 375.276 236.725 375.148C236.955 375.012 237.133 374.829 237.26 374.6C237.388 374.362 237.452 374.094 237.452 373.797C237.452 373.491 237.388 373.223 237.26 372.994C237.133 372.765 236.955 372.586 236.725 372.459C236.504 372.323 236.241 372.255 235.935 372.255C235.629 372.255 235.361 372.323 235.132 372.459C234.903 372.586 234.724 372.769 234.597 373.007C234.469 373.236 234.405 373.5 234.405 373.797C234.405 374.086 234.469 374.349 234.597 374.587C234.724 374.817 234.903 374.999 235.132 375.135C235.361 375.271 235.629 375.339 235.935 375.339ZM244.629 377.022V373.491C244.629 373.126 244.514 372.828 244.285 372.599C244.055 372.369 243.758 372.255 243.393 372.255C243.155 372.255 242.942 372.306 242.755 372.408C242.568 372.51 242.42 372.654 242.309 372.841C242.207 373.028 242.156 373.245 242.156 373.491L241.506 373.16C241.506 372.675 241.608 372.255 241.812 371.898C242.024 371.533 242.313 371.248 242.679 371.044C243.053 370.84 243.473 370.738 243.941 370.738C244.391 370.738 244.795 370.853 245.151 371.082C245.508 371.303 245.789 371.596 245.993 371.962C246.197 372.319 246.299 372.705 246.299 373.121V377.022H244.629ZM240.486 377.022V370.865H242.156V377.022H240.486ZM252.759 377.149C252.215 377.149 251.73 377.034 251.306 376.805C250.889 376.576 250.562 376.257 250.324 375.849C250.086 375.441 249.967 374.97 249.967 374.434V370.865H251.65V374.396C251.65 374.651 251.692 374.872 251.777 375.059C251.862 375.237 251.99 375.373 252.16 375.467C252.33 375.56 252.529 375.607 252.759 375.607C253.107 375.607 253.379 375.501 253.574 375.288C253.77 375.076 253.868 374.778 253.868 374.396V370.865H255.537V374.434C255.537 374.978 255.418 375.454 255.18 375.862C254.951 376.27 254.624 376.588 254.199 376.818C253.783 377.039 253.302 377.149 252.759 377.149ZM260.283 377.149C259.841 377.149 259.442 377.06 259.085 376.882C258.728 376.695 258.443 376.444 258.231 376.13C258.018 375.815 257.904 375.454 257.887 375.046V372.867C257.904 372.459 258.018 372.098 258.231 371.783C258.452 371.46 258.736 371.205 259.085 371.018C259.442 370.831 259.841 370.738 260.283 370.738C260.852 370.738 261.362 370.878 261.812 371.159C262.263 371.439 262.615 371.821 262.87 372.306C263.134 372.79 263.265 373.338 263.265 373.95C263.265 374.553 263.134 375.097 262.87 375.581C262.615 376.066 262.263 376.448 261.812 376.729C261.362 377.009 260.852 377.149 260.283 377.149ZM259.99 375.607C260.296 375.607 260.567 375.539 260.805 375.403C261.043 375.259 261.226 375.063 261.353 374.817C261.489 374.562 261.557 374.269 261.557 373.937C261.557 373.614 261.489 373.33 261.353 373.083C261.226 372.828 261.043 372.633 260.805 372.497C260.567 372.352 260.296 372.28 259.99 372.28C259.692 372.28 259.425 372.352 259.187 372.497C258.949 372.633 258.762 372.828 258.626 373.083C258.498 373.33 258.435 373.614 258.435 373.937C258.435 374.269 258.498 374.562 258.626 374.817C258.762 375.063 258.944 375.259 259.174 375.403C259.412 375.539 259.684 375.607 259.99 375.607ZM256.867 379.596V370.865H258.537V372.484L258.256 373.975L258.524 375.467V379.596H256.867ZM268.494 377.022L266.187 370.865H267.869L269.373 375.339L268.863 375.352L270.406 370.865H271.616L273.159 375.352L272.649 375.339L274.153 370.865H275.835L273.541 377.022H272.33L270.775 372.765H271.247L269.692 377.022H268.494ZM276.546 377.022V370.865H278.228V377.022H276.546ZM277.387 369.871C277.115 369.871 276.89 369.782 276.712 369.604C276.533 369.417 276.444 369.187 276.444 368.915C276.444 368.652 276.533 368.427 276.712 368.24C276.89 368.053 277.115 367.959 277.387 367.959C277.667 367.959 277.893 368.053 278.063 368.24C278.241 368.427 278.33 368.652 278.33 368.915C278.33 369.187 278.241 369.417 278.063 369.604C277.893 369.782 277.667 369.871 277.387 369.871ZM280.612 377.022V368.304H282.282V377.022H280.612ZM279.172 372.331V370.865H283.722V372.331H279.172ZM288.804 377.022V373.491C288.804 373.126 288.689 372.828 288.46 372.599C288.23 372.369 287.933 372.255 287.567 372.255C287.329 372.255 287.117 372.306 286.93 372.408C286.743 372.51 286.594 372.654 286.484 372.841C286.382 373.028 286.331 373.245 286.331 373.491L285.681 373.16C285.681 372.675 285.783 372.255 285.987 371.898C286.191 371.533 286.471 371.248 286.828 371.044C287.194 370.84 287.61 370.738 288.077 370.738C288.545 370.738 288.957 370.84 289.314 371.044C289.679 371.248 289.964 371.528 290.168 371.885C290.371 372.242 290.473 372.654 290.473 373.121V377.022H288.804ZM284.661 377.022V367.806H286.331V377.022H284.661ZM298.629 377.149C297.991 377.149 297.392 377.034 296.832 376.805C296.279 376.567 295.791 376.236 295.366 375.811C294.949 375.386 294.622 374.897 294.384 374.345C294.155 373.784 294.04 373.181 294.04 372.535C294.04 371.881 294.159 371.278 294.397 370.725C294.635 370.164 294.966 369.676 295.391 369.26C295.816 368.835 296.313 368.507 296.883 368.278C297.452 368.04 298.068 367.921 298.731 367.921C299.47 367.921 300.15 368.061 300.77 368.342C301.39 368.614 301.904 369 302.312 369.502L301.14 370.674C300.859 370.309 300.511 370.029 300.094 369.833C299.678 369.638 299.219 369.54 298.718 369.54C298.149 369.54 297.643 369.667 297.201 369.922C296.768 370.169 296.428 370.517 296.182 370.967C295.935 371.409 295.812 371.928 295.812 372.522C295.812 373.117 295.931 373.644 296.169 374.103C296.415 374.553 296.747 374.906 297.163 375.161C297.588 375.416 298.072 375.543 298.616 375.543C299.177 375.543 299.657 375.441 300.056 375.237C300.456 375.025 300.762 374.719 300.974 374.32C301.186 373.912 301.293 373.415 301.293 372.828L302.427 373.606L298.514 373.568V372.064H303.077V372.306C303.077 373.376 302.886 374.273 302.503 374.995C302.121 375.709 301.594 376.248 300.923 376.614C300.26 376.971 299.495 377.149 298.629 377.149ZM307.122 377.149C306.501 377.149 305.94 377.009 305.439 376.729C304.946 376.44 304.551 376.053 304.254 375.569C303.965 375.076 303.82 374.528 303.82 373.924C303.82 373.321 303.965 372.782 304.254 372.306C304.543 371.821 304.938 371.439 305.439 371.159C305.94 370.87 306.497 370.725 307.109 370.725C307.738 370.725 308.298 370.87 308.791 371.159C309.293 371.439 309.688 371.821 309.977 372.306C310.266 372.782 310.41 373.321 310.41 373.924C310.41 374.528 310.266 375.076 309.977 375.569C309.688 376.053 309.293 376.44 308.791 376.729C308.298 377.009 307.742 377.149 307.122 377.149ZM307.109 375.594C307.423 375.594 307.699 375.526 307.937 375.39C308.184 375.246 308.371 375.05 308.498 374.804C308.634 374.549 308.702 374.26 308.702 373.937C308.702 373.614 308.634 373.33 308.498 373.083C308.362 372.837 308.175 372.646 307.937 372.51C307.699 372.365 307.423 372.293 307.109 372.293C306.803 372.293 306.531 372.365 306.293 372.51C306.055 372.646 305.868 372.837 305.732 373.083C305.596 373.33 305.528 373.614 305.528 373.937C305.528 374.26 305.596 374.549 305.732 374.804C305.868 375.05 306.055 375.246 306.293 375.39C306.531 375.526 306.803 375.594 307.109 375.594ZM314.378 377.149C313.758 377.149 313.197 377.009 312.696 376.729C312.203 376.44 311.808 376.053 311.51 375.569C311.221 375.076 311.077 374.528 311.077 373.924C311.077 373.321 311.221 372.782 311.51 372.306C311.799 371.821 312.194 371.439 312.696 371.159C313.197 370.87 313.754 370.725 314.365 370.725C314.994 370.725 315.555 370.87 316.048 371.159C316.549 371.439 316.944 371.821 317.233 372.306C317.522 372.782 317.667 373.321 317.667 373.924C317.667 374.528 317.522 375.076 317.233 375.569C316.944 376.053 316.549 376.44 316.048 376.729C315.555 377.009 314.999 377.149 314.378 377.149ZM314.365 375.594C314.68 375.594 314.956 375.526 315.194 375.39C315.44 375.246 315.627 375.05 315.755 374.804C315.891 374.549 315.959 374.26 315.959 373.937C315.959 373.614 315.891 373.33 315.755 373.083C315.619 372.837 315.432 372.646 315.194 372.51C314.956 372.365 314.68 372.293 314.365 372.293C314.06 372.293 313.788 372.365 313.55 372.51C313.312 372.646 313.125 372.837 312.989 373.083C312.853 373.33 312.785 373.614 312.785 373.937C312.785 374.26 312.853 374.549 312.989 374.804C313.125 375.05 313.312 375.246 313.55 375.39C313.788 375.526 314.06 375.594 314.365 375.594ZM321.316 379.749C320.662 379.749 320.084 379.63 319.583 379.392C319.081 379.163 318.682 378.836 318.385 378.411L319.443 377.353C319.681 377.634 319.944 377.846 320.233 377.99C320.53 378.143 320.887 378.22 321.303 378.22C321.822 378.22 322.23 378.088 322.527 377.825C322.833 377.561 322.986 377.196 322.986 376.729V375.186L323.266 373.835L322.999 372.484V370.865H324.656V376.703C324.656 377.315 324.511 377.846 324.222 378.296C323.942 378.755 323.551 379.112 323.05 379.367C322.548 379.622 321.971 379.749 321.316 379.749ZM321.24 376.856C320.687 376.856 320.19 376.724 319.748 376.461C319.307 376.189 318.958 375.819 318.703 375.352C318.457 374.885 318.334 374.362 318.334 373.784C318.334 373.206 318.457 372.688 318.703 372.229C318.958 371.77 319.307 371.409 319.748 371.146C320.19 370.874 320.687 370.738 321.24 370.738C321.699 370.738 322.102 370.827 322.451 371.006C322.807 371.184 323.088 371.431 323.292 371.745C323.496 372.051 323.606 372.412 323.623 372.828V374.766C323.606 375.174 323.492 375.539 323.279 375.862C323.075 376.176 322.795 376.423 322.438 376.601C322.089 376.771 321.69 376.856 321.24 376.856ZM321.571 375.339C321.877 375.339 322.14 375.276 322.361 375.148C322.591 375.012 322.769 374.829 322.897 374.6C323.024 374.362 323.088 374.094 323.088 373.797C323.088 373.491 323.024 373.223 322.897 372.994C322.769 372.765 322.591 372.586 322.361 372.459C322.14 372.323 321.877 372.255 321.571 372.255C321.265 372.255 320.998 372.323 320.768 372.459C320.539 372.586 320.36 372.769 320.233 373.007C320.105 373.236 320.042 373.5 320.042 373.797C320.042 374.086 320.105 374.349 320.233 374.587C320.36 374.817 320.539 374.999 320.768 375.135C320.998 375.271 321.265 375.339 321.571 375.339ZM326.123 377.022V367.806H327.792V377.022H326.123ZM332.216 377.149C331.57 377.149 330.997 377.013 330.495 376.741C329.994 376.461 329.595 376.079 329.297 375.594C329.008 375.11 328.864 374.558 328.864 373.937C328.864 373.325 329.004 372.782 329.285 372.306C329.573 371.821 329.964 371.439 330.457 371.159C330.95 370.87 331.498 370.725 332.101 370.725C332.696 370.725 333.219 370.861 333.669 371.133C334.128 371.397 334.485 371.762 334.74 372.229C335.003 372.688 335.135 373.211 335.135 373.797C335.135 373.907 335.126 374.022 335.109 374.141C335.101 374.252 335.08 374.379 335.046 374.524L329.871 374.536V373.287L334.268 373.274L333.593 373.797C333.576 373.432 333.508 373.126 333.389 372.879C333.278 372.633 333.113 372.446 332.892 372.319C332.679 372.183 332.416 372.115 332.101 372.115C331.77 372.115 331.481 372.191 331.235 372.344C330.988 372.488 330.797 372.697 330.661 372.969C330.534 373.232 330.47 373.546 330.47 373.912C330.47 374.286 330.538 374.613 330.674 374.893C330.818 375.165 331.022 375.378 331.286 375.53C331.549 375.675 331.855 375.747 332.203 375.747C332.518 375.747 332.802 375.696 333.057 375.594C333.312 375.484 333.533 375.322 333.72 375.11L334.702 376.091C334.404 376.44 334.039 376.703 333.605 376.882C333.181 377.06 332.717 377.149 332.216 377.149Z" fill="black"/>
<rect x="133.662" y="560.223" width="254.917" height="33.1392" rx="16.5696" fill="url(#paint3_linear_2_17)"/>
<path d="M225.466 421.25C224.743 421.25 224.123 421.127 223.605 420.88C223.095 420.634 222.632 420.264 222.216 419.771L223.363 418.624C223.626 418.973 223.932 419.244 224.28 419.44C224.629 419.627 225.054 419.72 225.555 419.72C226.005 419.72 226.362 419.631 226.626 419.453C226.897 419.274 227.033 419.028 227.033 418.713C227.033 418.441 226.957 418.221 226.804 418.051C226.651 417.881 226.447 417.736 226.192 417.617C225.946 417.498 225.67 417.392 225.364 417.299C225.066 417.197 224.765 417.082 224.459 416.954C224.161 416.827 223.885 416.67 223.63 416.483C223.384 416.287 223.184 416.041 223.031 415.744C222.878 415.438 222.802 415.055 222.802 414.596C222.802 414.053 222.934 413.59 223.197 413.207C223.46 412.825 223.821 412.532 224.28 412.328C224.739 412.124 225.258 412.022 225.835 412.022C226.447 412.022 226.999 412.136 227.492 412.366C227.985 412.595 228.389 412.893 228.703 413.258L227.556 414.405C227.293 414.116 227.021 413.904 226.74 413.768C226.468 413.632 226.158 413.564 225.81 413.564C225.41 413.564 225.096 413.64 224.867 413.793C224.637 413.946 224.523 414.167 224.523 414.456C224.523 414.703 224.599 414.902 224.752 415.055C224.905 415.208 225.105 415.34 225.351 415.45C225.606 415.561 225.882 415.667 226.179 415.769C226.485 415.871 226.787 415.986 227.084 416.113C227.39 416.241 227.666 416.406 227.913 416.61C228.168 416.814 228.372 417.078 228.525 417.401C228.678 417.715 228.754 418.106 228.754 418.573C228.754 419.406 228.461 420.06 227.875 420.536C227.288 421.012 226.485 421.25 225.466 421.25ZM229.944 421.122V414.966H231.626V421.122H229.944ZM230.785 413.972C230.513 413.972 230.288 413.883 230.109 413.704C229.931 413.517 229.842 413.288 229.842 413.016C229.842 412.753 229.931 412.527 230.109 412.34C230.288 412.153 230.513 412.06 230.785 412.06C231.065 412.06 231.291 412.153 231.461 412.34C231.639 412.527 231.728 412.753 231.728 413.016C231.728 413.288 231.639 413.517 231.461 413.704C231.291 413.883 231.065 413.972 230.785 413.972ZM235.68 423.85C235.026 423.85 234.448 423.731 233.947 423.493C233.445 423.264 233.046 422.936 232.748 422.512L233.806 421.454C234.044 421.734 234.308 421.947 234.597 422.091C234.894 422.244 235.251 422.32 235.667 422.32C236.186 422.32 236.593 422.189 236.891 421.925C237.197 421.662 237.35 421.297 237.35 420.829V419.287L237.63 417.936L237.362 416.585V414.966H239.019V420.804C239.019 421.415 238.875 421.947 238.586 422.397C238.306 422.856 237.915 423.213 237.413 423.468C236.912 423.722 236.334 423.85 235.68 423.85ZM235.604 420.957C235.051 420.957 234.554 420.825 234.112 420.561C233.67 420.29 233.322 419.92 233.067 419.453C232.821 418.985 232.697 418.463 232.697 417.885C232.697 417.307 232.821 416.789 233.067 416.33C233.322 415.871 233.67 415.51 234.112 415.246C234.554 414.975 235.051 414.839 235.604 414.839C236.062 414.839 236.466 414.928 236.814 415.106C237.171 415.285 237.452 415.531 237.656 415.846C237.86 416.151 237.97 416.513 237.987 416.929V418.866C237.97 419.274 237.855 419.64 237.643 419.962C237.439 420.277 237.159 420.523 236.802 420.702C236.453 420.872 236.054 420.957 235.604 420.957ZM235.935 419.44C236.241 419.44 236.504 419.376 236.725 419.249C236.955 419.113 237.133 418.93 237.26 418.701C237.388 418.463 237.452 418.195 237.452 417.898C237.452 417.592 237.388 417.324 237.26 417.095C237.133 416.865 236.955 416.687 236.725 416.559C236.504 416.423 236.241 416.355 235.935 416.355C235.629 416.355 235.361 416.423 235.132 416.559C234.903 416.687 234.724 416.869 234.597 417.107C234.469 417.337 234.405 417.6 234.405 417.898C234.405 418.187 234.469 418.45 234.597 418.688C234.724 418.917 234.903 419.1 235.132 419.236C235.361 419.372 235.629 419.44 235.935 419.44ZM244.629 421.122V417.592C244.629 417.226 244.514 416.929 244.285 416.7C244.055 416.47 243.758 416.355 243.393 416.355C243.155 416.355 242.942 416.406 242.755 416.508C242.568 416.61 242.42 416.755 242.309 416.942C242.207 417.129 242.156 417.345 242.156 417.592L241.506 417.26C241.506 416.776 241.608 416.355 241.812 415.998C242.024 415.633 242.313 415.348 242.679 415.145C243.053 414.941 243.473 414.839 243.941 414.839C244.391 414.839 244.795 414.953 245.151 415.183C245.508 415.404 245.789 415.697 245.993 416.062C246.197 416.419 246.299 416.806 246.299 417.222V421.122H244.629ZM240.486 421.122V414.966H242.156V421.122H240.486ZM252.759 421.25C252.215 421.25 251.73 421.135 251.306 420.906C250.889 420.676 250.562 420.358 250.324 419.95C250.086 419.542 249.967 419.07 249.967 418.535V414.966H251.65V418.497C251.65 418.752 251.692 418.973 251.777 419.159C251.862 419.338 251.99 419.474 252.16 419.567C252.33 419.661 252.529 419.708 252.759 419.708C253.107 419.708 253.379 419.601 253.574 419.389C253.77 419.176 253.868 418.879 253.868 418.497V414.966H255.537V418.535C255.537 419.079 255.418 419.555 255.18 419.962C254.951 420.37 254.624 420.689 254.199 420.918C253.783 421.139 253.302 421.25 252.759 421.25ZM260.283 421.25C259.841 421.25 259.442 421.161 259.085 420.982C258.728 420.795 258.443 420.545 258.231 420.23C258.018 419.916 257.904 419.555 257.887 419.147V416.967C257.904 416.559 258.018 416.198 258.231 415.884C258.452 415.561 258.736 415.306 259.085 415.119C259.442 414.932 259.841 414.839 260.283 414.839C260.852 414.839 261.362 414.979 261.812 415.259C262.263 415.54 262.615 415.922 262.87 416.406C263.134 416.891 263.265 417.439 263.265 418.051C263.265 418.654 263.134 419.198 262.87 419.682C262.615 420.166 262.263 420.549 261.812 420.829C261.362 421.11 260.852 421.25 260.283 421.25ZM259.99 419.708C260.296 419.708 260.567 419.64 260.805 419.504C261.043 419.359 261.226 419.164 261.353 418.917C261.489 418.662 261.557 418.369 261.557 418.038C261.557 417.715 261.489 417.43 261.353 417.184C261.226 416.929 261.043 416.733 260.805 416.598C260.567 416.453 260.296 416.381 259.99 416.381C259.692 416.381 259.425 416.453 259.187 416.598C258.949 416.733 258.762 416.929 258.626 417.184C258.498 417.43 258.435 417.715 258.435 418.038C258.435 418.369 258.498 418.662 258.626 418.917C258.762 419.164 258.944 419.359 259.174 419.504C259.412 419.64 259.684 419.708 259.99 419.708ZM256.867 423.697V414.966H258.537V416.585L258.256 418.076L258.524 419.567V423.697H256.867ZM268.494 421.122L266.187 414.966H267.869L269.373 419.44L268.863 419.453L270.406 414.966H271.616L273.159 419.453L272.649 419.44L274.153 414.966H275.835L273.541 421.122H272.33L270.775 416.865H271.247L269.692 421.122H268.494ZM276.546 421.122V414.966H278.228V421.122H276.546ZM277.387 413.972C277.115 413.972 276.89 413.883 276.712 413.704C276.533 413.517 276.444 413.288 276.444 413.016C276.444 412.753 276.533 412.527 276.712 412.34C276.89 412.153 277.115 412.06 277.387 412.06C277.667 412.06 277.893 412.153 278.063 412.34C278.241 412.527 278.33 412.753 278.33 413.016C278.33 413.288 278.241 413.517 278.063 413.704C277.893 413.883 277.667 413.972 277.387 413.972ZM280.612 421.122V412.404H282.282V421.122H280.612ZM279.172 416.432V414.966H283.722V416.432H279.172ZM288.804 421.122V417.592C288.804 417.226 288.689 416.929 288.46 416.7C288.23 416.47 287.933 416.355 287.567 416.355C287.329 416.355 287.117 416.406 286.93 416.508C286.743 416.61 286.594 416.755 286.484 416.942C286.382 417.129 286.331 417.345 286.331 417.592L285.681 417.26C285.681 416.776 285.783 416.355 285.987 415.998C286.191 415.633 286.471 415.348 286.828 415.145C287.194 414.941 287.61 414.839 288.077 414.839C288.545 414.839 288.957 414.941 289.314 415.145C289.679 415.348 289.964 415.629 290.168 415.986C290.371 416.343 290.473 416.755 290.473 417.222V421.122H288.804ZM284.661 421.122V411.907H286.331V421.122H284.661ZM298.161 421.122V419.58H300.443C301.02 419.58 301.526 419.461 301.959 419.223C302.393 418.977 302.728 418.633 302.966 418.191C303.213 417.749 303.336 417.226 303.336 416.623C303.336 416.037 303.213 415.527 302.966 415.094C302.72 414.652 302.38 414.312 301.947 414.074C301.513 413.827 301.012 413.704 300.443 413.704H298.123V412.162H300.468C301.131 412.162 301.743 412.272 302.303 412.493C302.873 412.714 303.366 413.029 303.782 413.437C304.207 413.836 304.534 414.308 304.763 414.851C305.001 415.395 305.12 415.99 305.12 416.636C305.12 417.282 305.001 417.881 304.763 418.433C304.534 418.977 304.211 419.453 303.795 419.86C303.378 420.26 302.886 420.57 302.316 420.791C301.755 421.012 301.148 421.122 300.494 421.122H298.161ZM296.976 421.122V412.162H298.709V421.122H296.976ZM306.319 421.122V414.966H308.002V421.122H306.319ZM307.161 413.972C306.889 413.972 306.663 413.883 306.485 413.704C306.307 413.517 306.217 413.288 306.217 413.016C306.217 412.753 306.307 412.527 306.485 412.34C306.663 412.153 306.889 412.06 307.161 412.06C307.441 412.06 307.666 412.153 307.836 412.34C308.015 412.527 308.104 412.753 308.104 413.016C308.104 413.288 308.015 413.517 307.836 413.704C307.666 413.883 307.441 413.972 307.161 413.972ZM311.597 421.263C311.248 421.263 310.904 421.216 310.564 421.122C310.233 421.029 309.927 420.901 309.647 420.74C309.366 420.57 309.124 420.366 308.92 420.128L309.914 419.121C310.127 419.359 310.373 419.538 310.654 419.657C310.934 419.776 311.244 419.835 311.584 419.835C311.856 419.835 312.06 419.797 312.196 419.72C312.34 419.644 312.412 419.529 312.412 419.376C312.412 419.206 312.336 419.074 312.183 418.981C312.039 418.888 311.847 418.811 311.609 418.752C311.372 418.684 311.121 418.611 310.857 418.535C310.603 418.45 310.356 418.344 310.118 418.216C309.88 418.08 309.685 417.898 309.532 417.668C309.387 417.43 309.315 417.124 309.315 416.75C309.315 416.36 309.409 416.02 309.596 415.731C309.791 415.442 310.067 415.217 310.424 415.055C310.781 414.894 311.202 414.813 311.686 414.813C312.196 414.813 312.655 414.902 313.062 415.081C313.479 415.259 313.823 415.527 314.095 415.884L313.088 416.891C312.901 416.661 312.689 416.496 312.451 416.394C312.221 416.292 311.971 416.241 311.699 416.241C311.452 416.241 311.261 416.279 311.125 416.355C310.998 416.432 310.934 416.538 310.934 416.674C310.934 416.827 311.006 416.946 311.151 417.031C311.304 417.116 311.499 417.192 311.737 417.26C311.975 417.32 312.221 417.392 312.476 417.477C312.74 417.553 312.986 417.664 313.215 417.808C313.453 417.953 313.645 418.144 313.789 418.382C313.942 418.62 314.018 418.926 314.018 419.3C314.018 419.903 313.802 420.383 313.368 420.74C312.935 421.088 312.344 421.263 311.597 421.263ZM318.05 421.25C317.422 421.25 316.857 421.11 316.355 420.829C315.854 420.549 315.459 420.166 315.17 419.682C314.881 419.198 314.736 418.654 314.736 418.051C314.736 417.439 314.881 416.891 315.17 416.406C315.459 415.922 315.854 415.54 316.355 415.259C316.865 414.97 317.43 414.826 318.05 414.826C318.535 414.826 318.981 414.915 319.389 415.094C319.797 415.272 320.149 415.527 320.447 415.858L319.376 416.942C319.215 416.763 319.019 416.627 318.79 416.534C318.569 416.44 318.322 416.394 318.05 416.394C317.745 416.394 317.468 416.466 317.222 416.61C316.984 416.746 316.793 416.937 316.648 417.184C316.512 417.422 316.444 417.706 316.444 418.038C316.444 418.361 316.512 418.65 316.648 418.905C316.793 419.151 316.984 419.346 317.222 419.491C317.468 419.627 317.745 419.695 318.05 419.695C318.331 419.695 318.581 419.648 318.802 419.555C319.032 419.453 319.227 419.308 319.389 419.121L320.472 420.205C320.158 420.545 319.797 420.804 319.389 420.982C318.981 421.161 318.535 421.25 318.05 421.25ZM324.174 421.25C323.554 421.25 322.993 421.11 322.492 420.829C321.999 420.54 321.604 420.154 321.306 419.669C321.017 419.176 320.873 418.628 320.873 418.025C320.873 417.422 321.017 416.882 321.306 416.406C321.595 415.922 321.99 415.54 322.492 415.259C322.993 414.97 323.55 414.826 324.161 414.826C324.79 414.826 325.351 414.97 325.844 415.259C326.345 415.54 326.74 415.922 327.029 416.406C327.318 416.882 327.463 417.422 327.463 418.025C327.463 418.628 327.318 419.176 327.029 419.669C326.74 420.154 326.345 420.54 325.844 420.829C325.351 421.11 324.794 421.25 324.174 421.25ZM324.161 419.695C324.476 419.695 324.752 419.627 324.99 419.491C325.236 419.346 325.423 419.151 325.551 418.905C325.687 418.65 325.755 418.361 325.755 418.038C325.755 417.715 325.687 417.43 325.551 417.184C325.415 416.937 325.228 416.746 324.99 416.61C324.752 416.466 324.476 416.394 324.161 416.394C323.855 416.394 323.584 416.466 323.346 416.61C323.108 416.746 322.921 416.937 322.785 417.184C322.649 417.43 322.581 417.715 322.581 418.038C322.581 418.361 322.649 418.65 322.785 418.905C322.921 419.151 323.108 419.346 323.346 419.491C323.584 419.627 323.855 419.695 324.161 419.695ZM328.537 421.122V414.966H330.207V421.122H328.537ZM330.207 417.719L329.557 417.286C329.634 416.53 329.855 415.935 330.22 415.501C330.585 415.06 331.112 414.839 331.8 414.839C332.098 414.839 332.365 414.89 332.603 414.992C332.841 415.085 333.058 415.242 333.253 415.463L332.208 416.661C332.115 416.559 332 416.483 331.864 416.432C331.737 416.381 331.588 416.355 331.418 416.355C331.061 416.355 330.768 416.47 330.539 416.7C330.318 416.92 330.207 417.26 330.207 417.719ZM336.266 421.25C335.697 421.25 335.187 421.11 334.736 420.829C334.286 420.549 333.929 420.166 333.666 419.682C333.411 419.198 333.283 418.654 333.283 418.051C333.283 417.439 333.411 416.891 333.666 416.406C333.929 415.922 334.282 415.54 334.724 415.259C335.174 414.979 335.688 414.839 336.266 414.839C336.708 414.839 337.103 414.928 337.451 415.106C337.808 415.285 338.093 415.535 338.305 415.858C338.526 416.173 338.645 416.53 338.662 416.929V419.121C338.645 419.521 338.53 419.882 338.318 420.205C338.105 420.528 337.821 420.782 337.464 420.969C337.107 421.156 336.708 421.25 336.266 421.25ZM336.546 419.708C336.861 419.708 337.133 419.64 337.362 419.504C337.6 419.359 337.783 419.164 337.91 418.917C338.046 418.662 338.114 418.369 338.114 418.038C338.114 417.715 338.046 417.43 337.91 417.184C337.783 416.929 337.6 416.733 337.362 416.598C337.133 416.453 336.865 416.381 336.559 416.381C336.245 416.381 335.968 416.453 335.731 416.598C335.501 416.742 335.318 416.937 335.182 417.184C335.055 417.43 334.991 417.715 334.991 418.038C334.991 418.369 335.055 418.662 335.182 418.917C335.318 419.164 335.505 419.359 335.743 419.504C335.981 419.64 336.249 419.708 336.546 419.708ZM339.682 421.122H338.025V419.465L338.292 417.961L338.012 416.483V411.907H339.682V421.122Z" fill="white"/>
<path d="M225.466 465.35C224.743 465.35 224.123 465.227 223.605 464.981C223.095 464.734 222.632 464.365 222.216 463.872L223.363 462.725C223.626 463.073 223.932 463.345 224.28 463.541C224.629 463.728 225.054 463.821 225.555 463.821C226.005 463.821 226.362 463.732 226.626 463.553C226.897 463.375 227.033 463.128 227.033 462.814C227.033 462.542 226.957 462.321 226.804 462.151C226.651 461.981 226.447 461.837 226.192 461.718C225.946 461.599 225.67 461.493 225.364 461.399C225.066 461.297 224.765 461.183 224.459 461.055C224.161 460.928 223.885 460.77 223.63 460.584C223.384 460.388 223.184 460.142 223.031 459.844C222.878 459.538 222.802 459.156 222.802 458.697C222.802 458.153 222.934 457.69 223.197 457.308C223.46 456.925 223.821 456.632 224.28 456.428C224.739 456.224 225.258 456.122 225.835 456.122C226.447 456.122 226.999 456.237 227.492 456.467C227.985 456.696 228.389 456.993 228.703 457.359L227.556 458.506C227.293 458.217 227.021 458.005 226.74 457.869C226.468 457.733 226.158 457.665 225.81 457.665C225.41 457.665 225.096 457.741 224.867 457.894C224.637 458.047 224.523 458.268 224.523 458.557C224.523 458.803 224.599 459.003 224.752 459.156C224.905 459.309 225.105 459.441 225.351 459.551C225.606 459.662 225.882 459.768 226.179 459.87C226.485 459.972 226.787 460.086 227.084 460.214C227.39 460.341 227.666 460.507 227.913 460.711C228.168 460.915 228.372 461.178 228.525 461.501C228.678 461.816 228.754 462.207 228.754 462.674C228.754 463.507 228.461 464.161 227.875 464.637C227.288 465.113 226.485 465.35 225.466 465.35ZM229.944 465.223V459.067H231.626V465.223H229.944ZM230.785 458.073C230.513 458.073 230.288 457.983 230.109 457.805C229.931 457.618 229.842 457.389 229.842 457.117C229.842 456.853 229.931 456.628 230.109 456.441C230.288 456.254 230.513 456.161 230.785 456.161C231.065 456.161 231.291 456.254 231.461 456.441C231.639 456.628 231.728 456.853 231.728 457.117C231.728 457.389 231.639 457.618 231.461 457.805C231.291 457.983 231.065 458.073 230.785 458.073ZM235.68 467.951C235.026 467.951 234.448 467.832 233.947 467.594C233.445 467.364 233.046 467.037 232.748 466.612L233.806 465.554C234.044 465.835 234.308 466.047 234.597 466.192C234.894 466.345 235.251 466.421 235.667 466.421C236.186 466.421 236.593 466.289 236.891 466.026C237.197 465.763 237.35 465.397 237.35 464.93V463.388L237.63 462.037L237.362 460.685V459.067H239.019V464.904C239.019 465.516 238.875 466.047 238.586 466.498C238.306 466.956 237.915 467.313 237.413 467.568C236.912 467.823 236.334 467.951 235.68 467.951ZM235.604 465.057C235.051 465.057 234.554 464.926 234.112 464.662C233.67 464.39 233.322 464.021 233.067 463.553C232.821 463.086 232.697 462.563 232.697 461.986C232.697 461.408 232.821 460.889 233.067 460.431C233.322 459.972 233.67 459.611 234.112 459.347C234.554 459.075 235.051 458.939 235.604 458.939C236.062 458.939 236.466 459.029 236.814 459.207C237.171 459.385 237.452 459.632 237.656 459.946C237.86 460.252 237.97 460.613 237.987 461.03V462.967C237.97 463.375 237.855 463.74 237.643 464.063C237.439 464.378 237.159 464.624 236.802 464.802C236.453 464.972 236.054 465.057 235.604 465.057ZM235.935 463.541C236.241 463.541 236.504 463.477 236.725 463.349C236.955 463.213 237.133 463.031 237.26 462.801C237.388 462.563 237.452 462.296 237.452 461.998C237.452 461.692 237.388 461.425 237.26 461.195C237.133 460.966 236.955 460.787 236.725 460.66C236.504 460.524 236.241 460.456 235.935 460.456C235.629 460.456 235.361 460.524 235.132 460.66C234.903 460.787 234.724 460.97 234.597 461.208C234.469 461.438 234.405 461.701 234.405 461.998C234.405 462.287 234.469 462.551 234.597 462.789C234.724 463.018 234.903 463.201 235.132 463.337C235.361 463.473 235.629 463.541 235.935 463.541ZM244.629 465.223V461.692C244.629 461.327 244.514 461.03 244.285 460.8C244.055 460.571 243.758 460.456 243.393 460.456C243.155 460.456 242.942 460.507 242.755 460.609C242.568 460.711 242.42 460.855 242.309 461.042C242.207 461.229 242.156 461.446 242.156 461.692L241.506 461.361C241.506 460.877 241.608 460.456 241.812 460.099C242.024 459.734 242.313 459.449 242.679 459.245C243.053 459.041 243.473 458.939 243.941 458.939C244.391 458.939 244.795 459.054 245.151 459.283C245.508 459.504 245.789 459.798 245.993 460.163C246.197 460.52 246.299 460.906 246.299 461.323V465.223H244.629ZM240.486 465.223V459.067H242.156V465.223H240.486ZM252.759 465.35C252.215 465.35 251.73 465.236 251.306 465.006C250.889 464.777 250.562 464.458 250.324 464.05C250.086 463.643 249.967 463.171 249.967 462.636V459.067H251.65V462.597C251.65 462.852 251.692 463.073 251.777 463.26C251.862 463.439 251.99 463.575 252.16 463.668C252.33 463.761 252.529 463.808 252.759 463.808C253.107 463.808 253.379 463.702 253.574 463.49C253.77 463.277 253.868 462.98 253.868 462.597V459.067H255.537V462.636C255.537 463.179 255.418 463.655 255.18 464.063C254.951 464.471 254.624 464.79 254.199 465.019C253.783 465.24 253.302 465.35 252.759 465.35ZM260.283 465.35C259.841 465.35 259.442 465.261 259.085 465.083C258.728 464.896 258.443 464.645 258.231 464.331C258.018 464.016 257.904 463.655 257.887 463.247V461.068C257.904 460.66 258.018 460.299 258.231 459.984C258.452 459.662 258.736 459.407 259.085 459.22C259.442 459.033 259.841 458.939 260.283 458.939C260.852 458.939 261.362 459.08 261.812 459.36C262.263 459.64 262.615 460.023 262.87 460.507C263.134 460.991 263.265 461.539 263.265 462.151C263.265 462.755 263.134 463.298 262.87 463.783C262.615 464.267 262.263 464.649 261.812 464.93C261.362 465.21 260.852 465.35 260.283 465.35ZM259.99 463.808C260.296 463.808 260.567 463.74 260.805 463.604C261.043 463.46 261.226 463.264 261.353 463.018C261.489 462.763 261.557 462.47 261.557 462.139C261.557 461.816 261.489 461.531 261.353 461.285C261.226 461.03 261.043 460.834 260.805 460.698C260.567 460.554 260.296 460.482 259.99 460.482C259.692 460.482 259.425 460.554 259.187 460.698C258.949 460.834 258.762 461.03 258.626 461.285C258.498 461.531 258.435 461.816 258.435 462.139C258.435 462.47 258.498 462.763 258.626 463.018C258.762 463.264 258.944 463.46 259.174 463.604C259.412 463.74 259.684 463.808 259.99 463.808ZM256.867 467.798V459.067H258.537V460.685L258.256 462.177L258.524 463.668V467.798H256.867ZM268.494 465.223L266.187 459.067H267.869L269.373 463.541L268.863 463.553L270.406 459.067H271.616L273.159 463.553L272.649 463.541L274.153 459.067H275.835L273.541 465.223H272.33L270.775 460.966H271.247L269.692 465.223H268.494ZM276.546 465.223V459.067H278.228V465.223H276.546ZM277.387 458.073C277.115 458.073 276.89 457.983 276.712 457.805C276.533 457.618 276.444 457.389 276.444 457.117C276.444 456.853 276.533 456.628 276.712 456.441C276.89 456.254 277.115 456.161 277.387 456.161C277.667 456.161 277.893 456.254 278.063 456.441C278.241 456.628 278.33 456.853 278.33 457.117C278.33 457.389 278.241 457.618 278.063 457.805C277.893 457.983 277.667 458.073 277.387 458.073ZM280.612 465.223V456.505H282.282V465.223H280.612ZM279.172 460.533V459.067H283.722V460.533H279.172ZM288.804 465.223V461.692C288.804 461.327 288.689 461.03 288.46 460.8C288.23 460.571 287.933 460.456 287.567 460.456C287.329 460.456 287.117 460.507 286.93 460.609C286.743 460.711 286.594 460.855 286.484 461.042C286.382 461.229 286.331 461.446 286.331 461.692L285.681 461.361C285.681 460.877 285.783 460.456 285.987 460.099C286.191 459.734 286.471 459.449 286.828 459.245C287.194 459.041 287.61 458.939 288.077 458.939C288.545 458.939 288.957 459.041 289.314 459.245C289.679 459.449 289.964 459.73 290.168 460.086C290.371 460.443 290.473 460.855 290.473 461.323V465.223H288.804ZM284.661 465.223V456.008H286.331V465.223H284.661ZM298.629 465.35C297.991 465.35 297.392 465.236 296.832 465.006C296.279 464.768 295.791 464.437 295.366 464.012C294.949 463.587 294.622 463.099 294.384 462.546C294.155 461.986 294.04 461.382 294.04 460.736C294.04 460.082 294.159 459.479 294.397 458.927C294.635 458.366 294.966 457.877 295.391 457.461C295.816 457.036 296.313 456.709 296.883 456.479C297.452 456.241 298.068 456.122 298.731 456.122C299.47 456.122 300.15 456.263 300.77 456.543C301.39 456.815 301.904 457.202 302.312 457.703L301.14 458.876C300.859 458.51 300.511 458.23 300.094 458.034C299.678 457.839 299.219 457.741 298.718 457.741C298.149 457.741 297.643 457.869 297.201 458.124C296.768 458.37 296.428 458.718 296.182 459.169C295.935 459.611 295.812 460.129 295.812 460.724C295.812 461.319 295.931 461.845 296.169 462.304C296.415 462.755 296.747 463.107 297.163 463.362C297.588 463.617 298.072 463.745 298.616 463.745C299.177 463.745 299.657 463.643 300.056 463.439C300.456 463.226 300.762 462.92 300.974 462.521C301.186 462.113 301.293 461.616 301.293 461.03L302.427 461.807L298.514 461.769V460.265H303.077V460.507C303.077 461.578 302.886 462.474 302.503 463.196C302.121 463.91 301.594 464.45 300.923 464.815C300.26 465.172 299.495 465.35 298.629 465.35ZM304.228 465.223V459.067H305.911V465.223H304.228ZM305.069 458.073C304.798 458.073 304.572 457.983 304.394 457.805C304.215 457.618 304.126 457.389 304.126 457.117C304.126 456.853 304.215 456.628 304.394 456.441C304.572 456.254 304.798 456.161 305.069 456.161C305.35 456.161 305.575 456.254 305.745 456.441C305.923 456.628 306.013 456.853 306.013 457.117C306.013 457.389 305.923 457.618 305.745 457.805C305.575 457.983 305.35 458.073 305.069 458.073ZM308.295 465.223V456.505H309.964V465.223H308.295ZM306.854 460.533V459.067H311.405V460.533H306.854ZM316.486 465.223V461.692C316.486 461.327 316.371 461.03 316.142 460.8C315.913 460.571 315.615 460.456 315.25 460.456C315.012 460.456 314.799 460.507 314.613 460.609C314.426 460.711 314.277 460.855 314.166 461.042C314.064 461.229 314.013 461.446 314.013 461.692L313.363 461.361C313.363 460.877 313.465 460.456 313.669 460.099C313.873 459.734 314.154 459.449 314.511 459.245C314.876 459.041 315.292 458.939 315.76 458.939C316.227 458.939 316.639 459.041 316.996 459.245C317.361 459.449 317.646 459.73 317.85 460.086C318.054 460.443 318.156 460.855 318.156 461.323V465.223H316.486ZM312.344 465.223V456.008H314.013V465.223H312.344ZM322.126 465.35C321.583 465.35 321.098 465.236 320.673 465.006C320.257 464.777 319.93 464.458 319.692 464.05C319.454 463.643 319.335 463.171 319.335 462.636V459.067H321.018V462.597C321.018 462.852 321.06 463.073 321.145 463.26C321.23 463.439 321.357 463.575 321.527 463.668C321.697 463.761 321.897 463.808 322.126 463.808C322.475 463.808 322.747 463.702 322.942 463.49C323.138 463.277 323.235 462.98 323.235 462.597V459.067H324.905V462.636C324.905 463.179 324.786 463.655 324.548 464.063C324.319 464.471 323.992 464.79 323.567 465.019C323.15 465.24 322.67 465.35 322.126 465.35ZM329.651 465.35C329.209 465.35 328.809 465.257 328.453 465.07C328.096 464.883 327.811 464.628 327.599 464.305C327.386 463.982 327.271 463.621 327.254 463.222V461.03C327.271 460.63 327.386 460.273 327.599 459.959C327.819 459.636 328.108 459.385 328.465 459.207C328.822 459.029 329.217 458.939 329.651 458.939C330.22 458.939 330.73 459.08 331.18 459.36C331.63 459.64 331.983 460.023 332.238 460.507C332.501 460.991 332.633 461.539 332.633 462.151C332.633 462.755 332.501 463.298 332.238 463.783C331.983 464.267 331.63 464.649 331.18 464.93C330.73 465.21 330.22 465.35 329.651 465.35ZM329.37 463.808C329.676 463.808 329.944 463.74 330.173 463.604C330.411 463.46 330.594 463.264 330.721 463.018C330.857 462.763 330.925 462.47 330.925 462.139C330.925 461.816 330.857 461.531 330.721 461.285C330.594 461.03 330.411 460.834 330.173 460.698C329.935 460.554 329.663 460.482 329.357 460.482C329.052 460.482 328.78 460.554 328.542 460.698C328.312 460.834 328.13 461.03 327.994 461.285C327.866 461.531 327.802 461.816 327.802 462.139C327.802 462.47 327.866 462.763 327.994 463.018C328.13 463.264 328.317 463.46 328.554 463.604C328.792 463.74 329.064 463.808 329.37 463.808ZM326.235 465.223V456.008H327.904V460.584L327.624 462.062L327.892 463.566V465.223H326.235Z" fill="white"/>
<g clip-path="url(#clip1_2_17)">
<path d="M213.185 411.311C211.966 410.751 210.66 410.339 209.293 410.104C209.268 410.099 209.244 410.11 209.231 410.133C209.063 410.432 208.877 410.822 208.746 411.128C207.277 410.908 205.815 410.908 204.375 411.128C204.245 410.815 204.052 410.432 203.883 410.133C203.87 410.111 203.846 410.1 203.821 410.104C202.455 410.339 201.148 410.751 199.929 411.311C199.919 411.315 199.91 411.323 199.903 411.333C197.425 415.035 196.746 418.647 197.079 422.215C197.081 422.232 197.09 422.249 197.104 422.259C198.739 423.46 200.323 424.189 201.878 424.673C201.903 424.68 201.929 424.671 201.945 424.651C202.313 424.148 202.641 423.619 202.922 423.062C202.938 423.029 202.922 422.991 202.888 422.978C202.369 422.781 201.873 422.54 201.397 422.267C201.359 422.245 201.356 422.191 201.391 422.165C201.491 422.09 201.592 422.012 201.687 421.933C201.705 421.919 201.729 421.916 201.749 421.925C204.878 423.353 208.265 423.353 211.357 421.925C211.378 421.915 211.402 421.918 211.42 421.932C211.516 422.011 211.616 422.09 211.717 422.165C211.752 422.191 211.749 422.245 211.712 422.267C211.235 422.545 210.74 422.781 210.219 422.977C210.186 422.99 210.17 423.029 210.187 423.062C210.474 423.618 210.802 424.148 211.163 424.65C211.178 424.671 211.205 424.68 211.23 424.673C212.792 424.189 214.376 423.46 216.012 422.259C216.026 422.249 216.035 422.233 216.036 422.215C216.435 418.091 215.369 414.509 213.21 411.333C213.204 411.323 213.195 411.315 213.185 411.311ZM203.389 420.043C202.447 420.043 201.671 419.178 201.671 418.116C201.671 417.053 202.432 416.189 203.389 416.189C204.353 416.189 205.122 417.061 205.107 418.116C205.107 419.178 204.346 420.043 203.389 420.043ZM209.742 420.043C208.8 420.043 208.023 419.178 208.023 418.116C208.023 417.053 208.785 416.189 209.742 416.189C210.706 416.189 211.475 417.061 211.46 418.116C211.46 419.178 210.706 420.043 209.742 420.043Z" fill="white"/>
</g>
<g clip-path="url(#clip2_2_17)">
<path fill-rule="evenodd" clip-rule="evenodd" d="M200.408 451.092C198.138 451.093 195.943 451.897 194.215 453.359C192.487 454.822 191.339 456.848 190.975 459.075C190.612 461.303 191.057 463.586 192.231 465.517C193.405 467.448 195.232 468.901 197.384 469.615C197.859 469.704 198.038 469.409 198.038 469.159C198.038 468.909 198.028 468.183 198.025 467.39C195.366 467.964 194.804 466.268 194.804 466.268C194.37 465.166 193.743 464.876 193.743 464.876C192.876 464.288 193.808 464.299 193.808 464.299C194.769 464.366 195.274 465.279 195.274 465.279C196.126 466.732 197.511 466.312 198.055 466.066C198.141 465.451 198.389 465.032 198.663 464.795C196.539 464.555 194.307 463.74 194.307 460.098C194.294 459.153 194.646 458.24 195.291 457.547C195.193 457.307 194.866 456.341 195.385 455.028C195.385 455.028 196.187 454.773 198.014 456.002C199.581 455.576 201.234 455.576 202.801 456.002C204.626 454.773 205.427 455.028 205.427 455.028C205.948 456.338 205.62 457.304 205.522 457.547C206.169 458.24 206.523 459.155 206.508 460.101C206.508 463.751 204.272 464.555 202.144 464.79C202.486 465.086 202.791 465.663 202.791 466.551C202.791 467.823 202.78 468.846 202.78 469.159C202.78 469.412 202.953 469.708 203.437 469.615C205.59 468.901 207.417 467.448 208.591 465.516C209.765 463.585 210.21 461.301 209.846 459.074C209.482 456.846 208.333 454.82 206.604 453.358C204.876 451.895 202.68 451.092 200.411 451.092H200.408Z" fill="white"/>
<path d="M197.243 466.606C197.243 466.683 197.154 466.749 197.04 466.751C196.926 466.752 196.833 466.689 196.833 466.612C196.833 466.535 196.922 466.469 197.036 466.468C197.15 466.466 197.243 466.527 197.243 466.606Z" fill="white"/>
<path d="M197.971 466.485C197.985 466.562 197.906 466.642 197.792 466.661C197.678 466.68 197.579 466.634 197.564 466.559C197.55 466.483 197.632 466.401 197.743 466.381C197.854 466.361 197.957 466.408 197.971 466.485Z" fill="white"/>
<path d="M196.461 466.553C196.437 466.627 196.33 466.66 196.222 466.628C196.114 466.597 196.043 466.509 196.064 466.433C196.084 466.357 196.193 466.323 196.303 466.357C196.412 466.392 196.482 466.476 196.461 466.553Z" fill="white"/>
<path d="M195.744 466.244C195.692 466.302 195.586 466.287 195.499 466.208C195.412 466.129 195.391 466.022 195.443 465.965C195.495 465.909 195.602 465.925 195.692 466.002C195.782 466.079 195.799 466.187 195.744 466.244V466.244Z" fill="white"/>
<path d="M195.233 465.715C195.174 465.756 195.074 465.715 195.019 465.633C195.004 465.619 194.992 465.601 194.983 465.582C194.975 465.562 194.971 465.541 194.971 465.52C194.971 465.499 194.975 465.478 194.983 465.459C194.992 465.439 195.004 465.421 195.019 465.407C195.078 465.367 195.177 465.407 195.233 465.487C195.288 465.567 195.29 465.674 195.233 465.715V465.715Z" fill="white"/>
<path d="M194.856 465.169C194.823 465.185 194.786 465.19 194.75 465.182C194.714 465.174 194.682 465.154 194.66 465.125C194.598 465.059 194.585 464.968 194.633 464.927C194.68 464.886 194.766 464.905 194.827 464.971C194.889 465.037 194.903 465.128 194.856 465.169Z" fill="white"/>
<path d="M194.468 464.739C194.448 464.787 194.372 464.801 194.31 464.768C194.248 464.735 194.202 464.673 194.224 464.625C194.247 464.576 194.321 464.563 194.383 464.596C194.444 464.629 194.492 464.692 194.468 464.739Z" fill="white"/>
</g>
<path d="M226.298 583.29C225.369 583.29 224.503 583.137 223.698 582.831C222.905 582.514 222.208 582.072 221.608 581.506C221.007 580.939 220.537 580.277 220.197 579.517C219.869 578.747 219.705 577.914 219.705 577.019C219.705 576.113 219.869 575.28 220.197 574.521C220.537 573.762 221.002 573.105 221.591 572.55C222.191 571.995 222.888 571.564 223.681 571.258C224.474 570.941 225.335 570.782 226.264 570.782C227.205 570.782 228.066 570.93 228.848 571.224C229.629 571.519 230.309 571.927 230.887 572.448L228.627 574.725C228.355 574.43 228.021 574.198 227.624 574.028C227.239 573.858 226.786 573.773 226.264 573.773C225.811 573.773 225.392 573.847 225.007 573.994C224.633 574.142 224.31 574.357 224.038 574.64C223.766 574.923 223.551 575.269 223.392 575.677C223.245 576.073 223.171 576.521 223.171 577.019C223.171 577.529 223.245 577.988 223.392 578.396C223.551 578.792 223.766 579.132 224.038 579.415C224.31 579.699 224.633 579.92 225.007 580.078C225.392 580.226 225.811 580.299 226.264 580.299C226.774 580.299 227.227 580.22 227.624 580.061C228.032 579.903 228.383 579.67 228.678 579.365L230.955 581.642C230.354 582.163 229.68 582.571 228.933 582.865C228.185 583.149 227.307 583.29 226.298 583.29ZM237.634 583.324C236.682 583.324 235.804 583.166 234.999 582.848C234.206 582.531 233.51 582.089 232.909 581.523C232.32 580.956 231.861 580.288 231.533 579.517C231.204 578.747 231.04 577.914 231.04 577.019C231.04 576.113 231.198 575.28 231.516 574.521C231.844 573.762 232.303 573.099 232.892 572.533C233.481 571.966 234.172 571.53 234.965 571.224C235.77 570.907 236.648 570.748 237.6 570.748C238.551 570.748 239.424 570.907 240.217 571.224C241.021 571.53 241.718 571.966 242.307 572.533C242.896 573.099 243.349 573.768 243.667 574.538C243.995 575.297 244.159 576.13 244.159 577.036C244.159 577.931 243.995 578.764 243.667 579.534C243.349 580.294 242.896 580.962 242.307 581.54C241.718 582.106 241.027 582.548 240.234 582.865C239.441 583.171 238.574 583.324 237.634 583.324ZM237.6 580.333C238.234 580.333 238.784 580.197 239.248 579.925C239.713 579.653 240.069 579.268 240.319 578.77C240.568 578.271 240.693 577.688 240.693 577.019C240.693 576.521 240.619 576.073 240.472 575.677C240.336 575.269 240.132 574.923 239.86 574.64C239.588 574.345 239.259 574.125 238.874 573.977C238.5 573.819 238.075 573.739 237.6 573.739C236.965 573.739 236.416 573.875 235.951 574.147C235.487 574.408 235.13 574.787 234.88 575.286C234.631 575.773 234.507 576.351 234.507 577.019C234.507 577.529 234.575 577.988 234.711 578.396C234.858 578.804 235.067 579.155 235.339 579.449C235.611 579.733 235.934 579.954 236.308 580.112C236.693 580.26 237.124 580.333 237.6 580.333ZM245.559 583.086V570.986H247.938L248.958 573.535V583.086H245.559ZM253.886 583.086L246.868 574.266L247.938 570.986L254.957 579.806L253.886 583.086ZM253.886 583.086L253.037 580.401V570.986H256.436V583.086H253.886ZM258.438 583.086V570.986H260.817L261.837 573.535V583.086H258.438ZM266.765 583.086L259.746 574.266L260.817 570.986L267.836 579.806L266.765 583.086ZM266.765 583.086L265.915 580.401V570.986H269.314V583.086H266.765ZM271.316 583.086V570.986H274.715V583.086H271.316ZM274.069 583.086V580.265H280.561V583.086H274.069ZM274.069 578.294V575.541H279.933V578.294H274.069ZM274.069 573.807V570.986H280.459V573.807H274.069ZM287.953 583.29C287.024 583.29 286.157 583.137 285.353 582.831C284.56 582.514 283.863 582.072 283.263 581.506C282.662 580.939 282.192 580.277 281.852 579.517C281.524 578.747 281.359 577.914 281.359 577.019C281.359 576.113 281.524 575.28 281.852 574.521C282.192 573.762 282.657 573.105 283.246 572.55C283.846 571.995 284.543 571.564 285.336 571.258C286.129 570.941 286.99 570.782 287.919 570.782C288.86 570.782 289.721 570.93 290.502 571.224C291.284 571.519 291.964 571.927 292.542 572.448L290.281 574.725C290.01 574.43 289.675 574.198 289.279 574.028C288.894 573.858 288.44 573.773 287.919 573.773C287.466 573.773 287.047 573.847 286.662 573.994C286.288 574.142 285.965 574.357 285.693 574.64C285.421 574.923 285.206 575.269 285.047 575.677C284.9 576.073 284.826 576.521 284.826 577.019C284.826 577.529 284.9 577.988 285.047 578.396C285.206 578.792 285.421 579.132 285.693 579.415C285.965 579.699 286.288 579.92 286.662 580.078C287.047 580.226 287.466 580.299 287.919 580.299C288.429 580.299 288.882 580.22 289.279 580.061C289.687 579.903 290.038 579.67 290.332 579.365L292.61 581.642C292.009 582.163 291.335 582.571 290.587 582.865C289.84 583.149 288.962 583.29 287.953 583.29ZM296.527 583.086V570.986H299.926V583.086H296.527ZM292.907 573.875V570.986H303.563V573.875H292.907Z" fill="white"/>
<rect x="118.414" y="18" width="329.678" height="24.1699" rx="9.66797" fill="#252525" fill-opacity="0.9"/>
<path d="M185.02 34.9004V24.2788H187.052V28.6549C187.562 28.0035 188.294 27.6777 189.248 27.6777C190.14 27.6777 190.836 27.9539 191.336 28.5062C191.837 29.0538 192.087 29.8209 192.087 30.8076V34.9004H190.055V31.3457C190.055 30.7556 189.925 30.3001 189.665 29.9791C189.406 29.6581 189.042 29.4976 188.575 29.4976C188.098 29.4976 187.725 29.6604 187.456 29.9862C187.187 30.3119 187.052 30.7651 187.052 31.3457V34.9004H185.02ZM198.41 34.7163C197.867 34.9334 197.341 35.042 196.831 35.042C196.303 35.042 195.835 34.9311 195.429 34.7092C195.028 34.4826 194.714 34.1687 194.487 33.7674C194.261 33.3614 194.148 32.8941 194.148 32.3654V29.6321H192.908V27.8194H194.254V26.0491H196.18V27.8194H198.141V29.6321H196.18V31.9972C196.18 32.3843 196.286 32.6864 196.498 32.9035C196.711 33.116 196.975 33.2222 197.292 33.2222C197.58 33.2222 197.86 33.1325 198.134 32.9531L198.41 34.7163ZM204.543 34.7163C204 34.9334 203.473 35.042 202.963 35.042C202.435 35.042 201.967 34.9311 201.561 34.7092C201.16 34.4826 200.846 34.1687 200.62 33.7674C200.393 33.3614 200.28 32.8941 200.28 32.3654V29.6321H199.041V27.8194H200.386V26.0491H202.312V27.8194H204.273V29.6321H202.312V31.9972C202.312 32.3843 202.418 32.6864 202.631 32.9035C202.843 33.116 203.107 33.2222 203.424 33.2222C203.712 33.2222 203.993 33.1325 204.266 32.9531L204.543 34.7163ZM207.764 38.4409H205.725V27.8194H207.509L207.616 28.7824C207.918 28.4378 208.279 28.1687 208.699 27.9751C209.124 27.7769 209.587 27.6777 210.087 27.6777C210.738 27.6777 211.317 27.8382 211.822 28.1592C212.327 28.4755 212.726 28.9122 213.019 29.4692C213.311 30.0216 213.458 30.6518 213.458 31.3599C213.458 32.0633 213.311 32.6935 213.019 33.2505C212.726 33.8076 212.327 34.2466 211.822 34.5676C211.317 34.8839 210.738 35.042 210.087 35.042C209.624 35.042 209.195 34.9594 208.798 34.7942C208.406 34.6242 208.062 34.3906 207.764 34.0932V38.4409ZM209.57 33.2151C209.924 33.2151 210.236 33.1372 210.505 32.9814C210.774 32.8209 210.984 32.6014 211.135 32.3229C211.291 32.0397 211.369 31.7186 211.369 31.3599C211.369 30.9964 211.291 30.6754 211.135 30.3969C210.984 30.1183 210.774 29.8988 210.505 29.7383C210.236 29.5778 209.926 29.4976 209.577 29.4976C209.247 29.4976 208.949 29.5707 208.685 29.7171C208.421 29.8587 208.206 30.057 208.041 30.3119C207.88 30.5668 207.788 30.8595 207.764 31.1899V31.544C207.788 31.865 207.88 32.153 208.041 32.4079C208.201 32.6581 208.414 32.8563 208.678 33.0027C208.942 33.1443 209.24 33.2151 209.57 33.2151ZM214.251 34.2914L214.697 32.5637C214.838 32.7194 215.027 32.8634 215.263 32.9956C215.504 33.1278 215.761 33.234 216.035 33.3142C216.314 33.3898 216.576 33.4275 216.821 33.4275C217.114 33.4275 217.343 33.3732 217.508 33.2647C217.673 33.1514 217.756 33.0003 217.756 32.8115C217.756 32.6557 217.699 32.5259 217.586 32.422C217.477 32.3135 217.329 32.219 217.14 32.1388C216.956 32.0538 216.75 31.9712 216.524 31.891C216.217 31.7729 215.901 31.636 215.575 31.4803C215.254 31.3245 214.982 31.112 214.76 30.843C214.539 30.5739 214.428 30.2175 214.428 29.7737C214.428 29.3489 214.539 28.9806 214.76 28.6691C214.982 28.3528 215.296 28.1097 215.702 27.9397C216.108 27.7651 216.58 27.6777 217.118 27.6777C217.992 27.6777 218.863 27.8973 219.731 28.3363L219.158 29.9437C219.007 29.8257 218.818 29.7171 218.591 29.6179C218.365 29.5141 218.131 29.4315 217.89 29.3701C217.654 29.3087 217.442 29.2781 217.253 29.2781C217.022 29.2781 216.84 29.3253 216.708 29.4197C216.58 29.5141 216.517 29.6439 216.517 29.8091C216.517 29.9319 216.561 30.0428 216.651 30.1419C216.741 30.2364 216.873 30.3284 217.048 30.4181C217.227 30.5031 217.447 30.5951 217.706 30.6943C218.027 30.8123 218.351 30.9539 218.676 31.1191C219.007 31.2796 219.283 31.4968 219.505 31.7706C219.731 32.0397 219.845 32.3984 219.845 32.8469C219.845 33.2859 219.724 33.6707 219.484 34.0011C219.247 34.3315 218.912 34.5888 218.478 34.7729C218.048 34.9523 217.543 35.042 216.963 35.042C215.995 35.042 215.091 34.7918 214.251 34.2914ZM221.926 29.8941C221.657 29.8941 221.431 29.802 221.247 29.6179C221.063 29.4291 220.971 29.2002 220.971 28.9311C220.971 28.662 221.063 28.433 221.247 28.2442C221.431 28.0554 221.657 27.961 221.926 27.961C222.196 27.961 222.422 28.0554 222.606 28.2442C222.795 28.433 222.889 28.662 222.889 28.9311C222.889 29.2002 222.795 29.4291 222.606 29.6179C222.422 29.802 222.196 29.8941 221.926 29.8941ZM221.926 35.042C221.657 35.042 221.431 34.9476 221.247 34.7588C221.063 34.5699 220.971 34.341 220.971 34.0719C220.971 33.8076 221.063 33.581 221.247 33.3921C221.431 33.2033 221.657 33.1089 221.926 33.1089C222.196 33.1089 222.422 33.2033 222.606 33.3921C222.795 33.581 222.889 33.8076 222.889 34.0719C222.889 34.341 222.795 34.5699 222.606 34.7588C222.422 34.9476 222.196 35.042 221.926 35.042ZM225.658 35.042H223.739L228.264 24.1372H230.176L225.658 35.042ZM231.422 35.042H229.503L234.028 24.1372H235.94L231.422 35.042ZM242.079 34.9004H240.309L240.203 34.0577C239.943 34.3693 239.622 34.6124 239.24 34.7871C238.857 34.957 238.437 35.042 237.979 35.042C237.483 35.042 237.042 34.9476 236.655 34.7588C236.268 34.5652 235.963 34.3009 235.742 33.9657C235.52 33.6258 235.409 33.2411 235.409 32.8115C235.409 32.3583 235.529 31.9594 235.77 31.6148C236.011 31.2702 236.341 31.0011 236.761 30.8076C237.186 30.6093 237.668 30.5102 238.206 30.5102C238.522 30.5102 238.838 30.5456 239.155 30.6164C239.476 30.6872 239.773 30.7863 240.047 30.9138V30.7297C240.047 30.4464 239.967 30.2033 239.806 30.0003C239.65 29.7926 239.433 29.6321 239.155 29.5188C238.881 29.4055 238.574 29.3489 238.234 29.3489C237.908 29.3489 237.585 29.4008 237.264 29.5046C236.948 29.6085 236.655 29.7643 236.386 29.972L235.834 28.4212C236.31 28.1758 236.792 27.9917 237.278 27.8689C237.769 27.7415 238.244 27.6777 238.701 27.6777C239.391 27.6777 239.988 27.8146 240.493 28.0884C240.998 28.3575 241.388 28.7399 241.661 29.2356C241.94 29.7265 242.079 30.3095 242.079 30.9846V34.9004ZM238.425 33.4771C238.694 33.4771 238.952 33.4181 239.197 33.3001C239.443 33.1821 239.641 33.0216 239.792 32.8186C239.948 32.6156 240.03 32.3913 240.04 32.1459V32.0963C239.832 31.9547 239.601 31.8461 239.346 31.7706C239.096 31.6903 238.841 31.6502 238.581 31.6502C238.194 31.6502 237.878 31.7352 237.632 31.9051C237.387 32.0751 237.264 32.2946 237.264 32.5637C237.264 32.7383 237.314 32.8965 237.413 33.0381C237.517 33.175 237.656 33.2836 237.83 33.3638C238.005 33.4393 238.203 33.4771 238.425 33.4771ZM245.705 38.4409H243.665V27.8194H245.45L245.556 28.7824C245.858 28.4378 246.219 28.1687 246.639 27.9751C247.064 27.7769 247.527 27.6777 248.027 27.6777C248.679 27.6777 249.257 27.8382 249.762 28.1592C250.267 28.4755 250.666 28.9122 250.959 29.4692C251.251 30.0216 251.398 30.6518 251.398 31.3599C251.398 32.0633 251.251 32.6935 250.959 33.2505C250.666 33.8076 250.267 34.2466 249.762 34.5676C249.257 34.8839 248.679 35.042 248.027 35.042C247.565 35.042 247.135 34.9594 246.738 34.7942C246.347 34.6242 246.002 34.3906 245.705 34.0932V38.4409ZM247.51 33.2151C247.864 33.2151 248.176 33.1372 248.445 32.9814C248.714 32.8209 248.924 32.6014 249.075 32.3229C249.231 32.0397 249.309 31.7186 249.309 31.3599C249.309 30.9964 249.231 30.6754 249.075 30.3969C248.924 30.1183 248.714 29.8988 248.445 29.7383C248.176 29.5778 247.867 29.4976 247.517 29.4976C247.187 29.4976 246.889 29.5707 246.625 29.7171C246.361 29.8587 246.146 30.057 245.981 30.3119C245.82 30.5668 245.728 30.8595 245.705 31.1899V31.544C245.728 31.865 245.82 32.153 245.981 32.4079C246.141 32.6581 246.354 32.8563 246.618 33.0027C246.882 33.1443 247.18 33.2151 247.51 33.2151ZM253.713 26.127C253.444 26.127 253.218 26.0326 253.033 25.8438C252.849 25.6549 252.757 25.426 252.757 25.1569C252.757 24.8878 252.849 24.6612 253.033 24.4771C253.218 24.2883 253.444 24.1939 253.713 24.1939C253.987 24.1939 254.216 24.2883 254.4 24.4771C254.589 24.6612 254.683 24.8878 254.683 25.1569C254.683 25.426 254.589 25.6549 254.4 25.8438C254.216 26.0326 253.987 26.127 253.713 26.127ZM254.733 34.9004H252.701V27.8194H254.733V34.9004ZM257.332 35.042C257.048 35.042 256.817 34.9547 256.638 34.78C256.463 34.6006 256.376 34.367 256.376 34.079C256.376 33.791 256.463 33.5597 256.638 33.385C256.817 33.2057 257.048 33.116 257.332 33.116C257.62 33.116 257.853 33.2057 258.033 33.385C258.212 33.5597 258.302 33.791 258.302 34.079C258.302 34.367 258.212 34.6006 258.033 34.78C257.853 34.9547 257.62 35.042 257.332 35.042ZM261.956 34.9004H259.923V27.8194H261.694L261.764 29.0444C262 28.6148 262.321 28.2796 262.727 28.0389C263.133 27.7981 263.598 27.6777 264.122 27.6777C264.273 27.6777 264.424 27.6895 264.576 27.7131C264.731 27.732 264.889 27.7627 265.05 27.8052L264.795 29.6321C264.483 29.5424 264.188 29.4976 263.91 29.4976C263.518 29.4976 263.173 29.5873 262.876 29.7666C262.583 29.9413 262.357 30.1868 262.196 30.5031C262.036 30.8146 261.956 31.1805 261.956 31.6006V34.9004ZM272.088 34.9004H270.318L270.212 34.0577C269.952 34.3693 269.631 34.6124 269.249 34.7871C268.867 34.957 268.446 35.042 267.989 35.042C267.493 35.042 267.052 34.9476 266.664 34.7588C266.277 34.5652 265.973 34.3009 265.751 33.9657C265.529 33.6258 265.418 33.2411 265.418 32.8115C265.418 32.3583 265.539 31.9594 265.779 31.6148C266.02 31.2702 266.351 31.0011 266.771 30.8076C267.196 30.6093 267.677 30.5102 268.215 30.5102C268.531 30.5102 268.848 30.5456 269.164 30.6164C269.485 30.6872 269.782 30.7863 270.056 30.9138V30.7297C270.056 30.4464 269.976 30.2033 269.815 30.0003C269.66 29.7926 269.443 29.6321 269.164 29.5188C268.89 29.4055 268.583 29.3489 268.243 29.3489C267.918 29.3489 267.594 29.4008 267.273 29.5046C266.957 29.6085 266.664 29.7643 266.395 29.972L265.843 28.4212C266.32 28.1758 266.801 27.9917 267.288 27.8689C267.779 27.7415 268.253 27.6777 268.711 27.6777C269.4 27.6777 269.997 27.8146 270.502 28.0884C271.007 28.3575 271.397 28.7399 271.671 29.2356C271.949 29.7265 272.088 30.3095 272.088 30.9846V34.9004ZM268.435 33.4771C268.704 33.4771 268.961 33.4181 269.207 33.3001C269.452 33.1821 269.65 33.0216 269.801 32.8186C269.957 32.6156 270.04 32.3913 270.049 32.1459V32.0963C269.841 31.9547 269.61 31.8461 269.355 31.7706C269.105 31.6903 268.85 31.6502 268.59 31.6502C268.203 31.6502 267.887 31.7352 267.642 31.9051C267.396 32.0751 267.273 32.2946 267.273 32.5637C267.273 32.7383 267.323 32.8965 267.422 33.0381C267.526 33.175 267.665 33.2836 267.84 33.3638C268.015 33.4393 268.213 33.4771 268.435 33.4771ZM277.222 38.4409H275.055L276.528 34.8933L272.952 27.8194H275.247L277.491 32.5778L279.46 27.8194H281.62L277.222 38.4409ZM288.786 34.9004H287.015L286.909 34.0577C286.649 34.3693 286.328 34.6124 285.946 34.7871C285.564 34.957 285.144 35.042 284.686 35.042C284.19 35.042 283.749 34.9476 283.361 34.7588C282.974 34.5652 282.67 34.3009 282.448 33.9657C282.226 33.6258 282.115 33.2411 282.115 32.8115C282.115 32.3583 282.236 31.9594 282.476 31.6148C282.717 31.2702 283.048 31.0011 283.468 30.8076C283.893 30.6093 284.374 30.5102 284.912 30.5102C285.229 30.5102 285.545 30.5456 285.861 30.6164C286.182 30.6872 286.48 30.7863 286.753 30.9138V30.7297C286.753 30.4464 286.673 30.2033 286.513 30.0003C286.357 29.7926 286.14 29.6321 285.861 29.5188C285.587 29.4055 285.28 29.3489 284.941 29.3489C284.615 29.3489 284.291 29.4008 283.97 29.5046C283.654 29.6085 283.361 29.7643 283.092 29.972L282.54 28.4212C283.017 28.1758 283.498 27.9917 283.985 27.8689C284.476 27.7415 284.95 27.6777 285.408 27.6777C286.097 27.6777 286.694 27.8146 287.199 28.0884C287.705 28.3575 288.094 28.7399 288.368 29.2356C288.646 29.7265 288.786 30.3095 288.786 30.9846V34.9004ZM285.132 33.4771C285.401 33.4771 285.658 33.4181 285.904 33.3001C286.149 33.1821 286.347 33.0216 286.498 32.8186C286.654 32.6156 286.737 32.3913 286.746 32.1459V32.0963C286.539 31.9547 286.307 31.8461 286.052 31.7706C285.802 31.6903 285.547 31.6502 285.288 31.6502C284.9 31.6502 284.584 31.7352 284.339 31.9051C284.093 32.0751 283.97 32.2946 283.97 32.5637C283.97 32.7383 284.02 32.8965 284.119 33.0381C284.223 33.175 284.362 33.2836 284.537 33.3638C284.712 33.4393 284.91 33.4771 285.132 33.4771ZM297.297 34.9004H295.647L295.576 33.7674C295.326 34.1828 294.993 34.4991 294.578 34.7163C294.167 34.9334 293.686 35.042 293.133 35.042C292.227 35.042 291.516 34.7635 291.002 34.2064C290.487 33.6494 290.23 32.8847 290.23 31.9122V27.8194H292.262V31.4448C292.262 31.9972 292.392 32.4315 292.652 32.7478C292.916 33.0593 293.275 33.2151 293.728 33.2151C294.2 33.2151 294.573 33.0522 294.847 32.7265C295.125 32.3961 295.265 31.95 295.265 31.3882V27.8194H297.297V34.9004ZM303.974 34.7163C303.431 34.9334 302.905 35.042 302.395 35.042C301.867 35.042 301.399 34.9311 300.993 34.7092C300.592 34.4826 300.278 34.1687 300.051 33.7674C299.825 33.3614 299.712 32.8941 299.712 32.3654V29.6321H298.472V27.8194H299.818V26.0491H301.744V27.8194H303.705V29.6321H301.744V31.9972C301.744 32.3843 301.85 32.6864 302.062 32.9035C302.275 33.116 302.539 33.2222 302.856 33.2222C303.144 33.2222 303.424 33.1325 303.698 32.9531L303.974 34.7163ZM305.157 34.9004V24.2788H307.189V28.6549C307.699 28.0035 308.431 27.6777 309.384 27.6777C310.276 27.6777 310.973 27.9539 311.473 28.5062C311.974 29.0538 312.224 29.8209 312.224 30.8076V34.9004H310.192V31.3457C310.192 30.7556 310.062 30.3001 309.802 29.9791C309.542 29.6581 309.179 29.4976 308.712 29.4976C308.235 29.4976 307.862 29.6604 307.593 29.9862C307.324 30.3119 307.189 30.7651 307.189 31.3457V34.9004H305.157ZM314.66 35.042C314.376 35.042 314.145 34.9547 313.966 34.78C313.791 34.6006 313.704 34.367 313.704 34.079C313.704 33.791 313.791 33.5597 313.966 33.385C314.145 33.2057 314.376 33.116 314.66 33.116C314.948 33.116 315.181 33.2057 315.361 33.385C315.54 33.5597 315.63 33.791 315.63 34.079C315.63 34.367 315.54 34.6006 315.361 34.78C315.181 34.9547 314.948 35.042 314.66 35.042ZM323.313 33.7745C322.968 34.171 322.546 34.4826 322.045 34.7092C321.545 34.9311 320.995 35.042 320.395 35.042C319.668 35.042 319.017 34.8839 318.441 34.5676C317.87 34.2466 317.419 33.8076 317.088 33.2505C316.763 32.6935 316.6 32.0633 316.6 31.3599C316.6 30.6518 316.763 30.0216 317.088 29.4692C317.419 28.9122 317.87 28.4755 318.441 28.1592C319.017 27.8382 319.668 27.6777 320.395 27.6777C320.99 27.6777 321.538 27.7887 322.038 28.0105C322.538 28.2324 322.961 28.5393 323.306 28.9311L322.109 30.1844C321.925 29.972 321.691 29.8068 321.408 29.6888C321.129 29.566 320.837 29.5046 320.53 29.5046C320.176 29.5046 319.859 29.5849 319.581 29.7454C319.302 29.9012 319.083 30.1183 318.922 30.3969C318.762 30.6707 318.682 30.9869 318.682 31.3457C318.682 31.7092 318.762 32.0326 318.922 32.3158C319.083 32.5991 319.302 32.8209 319.581 32.9814C319.859 33.1372 320.176 33.2151 320.53 33.2151C320.837 33.2151 321.132 33.1561 321.415 33.0381C321.698 32.9153 321.93 32.7478 322.109 32.5353L323.313 33.7745ZM327.922 35.042C327.195 35.042 326.544 34.8839 325.968 34.5676C325.392 34.2466 324.939 33.8099 324.609 33.2576C324.283 32.7006 324.12 32.068 324.12 31.3599C324.12 30.6565 324.283 30.0286 324.609 29.4763C324.939 28.9193 325.392 28.4803 325.968 28.1592C326.544 27.8382 327.195 27.6777 327.922 27.6777C328.649 27.6777 329.296 27.8382 329.863 28.1592C330.434 28.4803 330.882 28.9193 331.208 29.4763C331.538 30.0286 331.704 30.6565 331.704 31.3599C331.704 32.068 331.538 32.7006 331.208 33.2576C330.882 33.8099 330.434 34.2466 329.863 34.5676C329.296 34.8839 328.649 35.042 327.922 35.042ZM327.915 33.2222C328.241 33.2222 328.531 33.1419 328.786 32.9814C329.046 32.8162 329.249 32.5943 329.395 32.3158C329.546 32.0326 329.622 31.7092 329.622 31.3457C329.622 30.9964 329.546 30.6825 329.395 30.4039C329.249 30.1254 329.046 29.9059 328.786 29.7454C328.531 29.5802 328.241 29.4976 327.915 29.4976C327.585 29.4976 327.29 29.5802 327.03 29.7454C326.775 29.9059 326.572 30.1254 326.421 30.4039C326.275 30.6825 326.202 30.9964 326.202 31.3457C326.202 31.7092 326.275 32.0326 326.421 32.3158C326.572 32.5943 326.775 32.8162 327.03 32.9814C327.29 33.1419 327.585 33.2222 327.915 33.2222ZM344.52 34.9004H342.488V31.3457C342.488 30.7556 342.372 30.3001 342.141 29.9791C341.91 29.6581 341.582 29.4976 341.157 29.4976C340.723 29.4976 340.383 29.6604 340.137 29.9862C339.896 30.3119 339.776 30.7651 339.776 31.3457V34.9004H337.744V31.3457C337.744 30.7556 337.628 30.3001 337.397 29.9791C337.166 29.6581 336.835 29.4976 336.405 29.4976C335.976 29.4976 335.638 29.6604 335.393 29.9862C335.152 30.3119 335.032 30.7651 335.032 31.3457V34.9004H333V27.8194H334.621L334.692 28.9877C334.928 28.5581 335.244 28.2324 335.641 28.0105C336.042 27.7887 336.507 27.6777 337.036 27.6777C337.588 27.6777 338.065 27.7934 338.466 28.0247C338.867 28.256 339.177 28.5888 339.394 29.0231C339.634 28.5841 339.953 28.2513 340.35 28.0247C340.751 27.7934 341.225 27.6777 341.773 27.6777C342.637 27.6777 343.31 27.9539 343.791 28.5062C344.277 29.0538 344.52 29.8209 344.52 30.8076V34.9004ZM347.254 35.042H345.335L349.859 24.1372H351.771L347.254 35.042ZM357.911 34.9004H356.14L356.034 34.0577C355.774 34.3693 355.453 34.6124 355.071 34.7871C354.689 34.957 354.269 35.042 353.811 35.042C353.315 35.042 352.874 34.9476 352.487 34.7588C352.099 34.5652 351.795 34.3009 351.573 33.9657C351.351 33.6258 351.24 33.2411 351.24 32.8115C351.24 32.3583 351.361 31.9594 351.601 31.6148C351.842 31.2702 352.173 31.0011 352.593 30.8076C353.018 30.6093 353.499 30.5102 354.037 30.5102C354.354 30.5102 354.67 30.5456 354.986 30.6164C355.307 30.6872 355.605 30.7863 355.878 30.9138V30.7297C355.878 30.4464 355.798 30.2033 355.638 30.0003C355.482 29.7926 355.265 29.6321 354.986 29.5188C354.712 29.4055 354.405 29.3489 354.066 29.3489C353.74 29.3489 353.416 29.4008 353.095 29.5046C352.779 29.6085 352.487 29.7643 352.217 29.972L351.665 28.4212C352.142 28.1758 352.623 27.9917 353.11 27.8689C353.601 27.7415 354.075 27.6777 354.533 27.6777C355.222 27.6777 355.819 27.8146 356.324 28.0884C356.83 28.3575 357.219 28.7399 357.493 29.2356C357.771 29.7265 357.911 30.3095 357.911 30.9846V34.9004ZM354.257 33.4771C354.526 33.4771 354.783 33.4181 355.029 33.3001C355.274 33.1821 355.472 33.0216 355.623 32.8186C355.779 32.6156 355.862 32.3913 355.871 32.1459V32.0963C355.664 31.9547 355.432 31.8461 355.177 31.7706C354.927 31.6903 354.672 31.6502 354.413 31.6502C354.025 31.6502 353.709 31.7352 353.464 31.9051C353.218 32.0751 353.095 32.2946 353.095 32.5637C353.095 32.7383 353.145 32.8965 353.244 33.0381C353.348 33.175 353.487 33.2836 353.662 33.3638C353.837 33.4393 354.035 33.4771 354.257 33.4771ZM366.422 34.9004H364.772L364.701 33.7674C364.451 34.1828 364.118 34.4991 363.703 34.7163C363.292 34.9334 362.811 35.042 362.258 35.042C361.352 35.042 360.642 34.7635 360.127 34.2064C359.612 33.6494 359.355 32.8847 359.355 31.9122V27.8194H361.387V31.4448C361.387 31.9972 361.517 32.4315 361.777 32.7478C362.041 33.0593 362.4 33.2151 362.853 33.2151C363.325 33.2151 363.698 33.0522 363.972 32.7265C364.25 32.3961 364.39 31.95 364.39 31.3882V27.8194H366.422V34.9004ZM373.099 34.7163C372.557 34.9334 372.03 35.042 371.52 35.042C370.992 35.042 370.524 34.9311 370.118 34.7092C369.717 34.4826 369.403 34.1687 369.177 33.7674C368.95 33.3614 368.837 32.8941 368.837 32.3654V29.6321H367.597V27.8194H368.943V26.0491H370.869V27.8194H372.83V29.6321H370.869V31.9972C370.869 32.3843 370.975 32.6864 371.188 32.9035C371.4 33.116 371.664 33.2222 371.981 33.2222C372.269 33.2222 372.549 33.1325 372.823 32.9531L373.099 34.7163ZM374.282 34.9004V24.2788H376.314V28.6549C376.824 28.0035 377.556 27.6777 378.509 27.6777C379.402 27.6777 380.098 27.9539 380.598 28.5062C381.099 29.0538 381.349 29.8209 381.349 30.8076V34.9004H379.317V31.3457C379.317 30.7556 379.187 30.3001 378.927 29.9791C378.667 29.6581 378.304 29.4976 377.837 29.4976C377.36 29.4976 376.987 29.6604 376.718 29.9862C376.449 30.3119 376.314 30.7651 376.314 31.3457V34.9004H374.282Z" fill="white"/>
<ellipse cx="37.251" cy="31.5166" rx="7.25098" ry="7.25098" fill="#FB1717"/>
<ellipse cx="60.4541" cy="31.5166" rx="7.25098" ry="7.25098" fill="#F8E96A"/>
<ellipse cx="83.6572" cy="31.5166" rx="7.25098" ry="7.25098" fill="#0AA837"/>
<defs>
<linearGradient id="paint0_linear_2_17" x1="263.779" y1="60.4154" x2="263.779" y2="147.6" gradientUnits="userSpaceOnUse">
<stop/>
<stop offset="1" stop-opacity="0"/>
</linearGradient>
<linearGradient id="paint1_linear_2_17" x1="263.779" y1="60.4154" x2="263.779" y2="147.6" gradientUnits="userSpaceOnUse">
<stop stop-color="#796AD6"/>
<stop offset="0.515625" stop-color="#6466FA"/>
<stop offset="0.8125" stop-color="#4749C9"/>
<stop offset="1" stop-color="#7173DB"/>
</linearGradient>
<linearGradient id="paint2_linear_2_17" x1="262.343" y1="70.2595" x2="262.343" y2="172.316" gradientUnits="userSpaceOnUse">
<stop stop-color="#3033FF"/>
<stop offset="0.0001" stop-color="#3033FF"/>
<stop offset="0.520833" stop-color="#7F80EF"/>
<stop offset="0.739583" stop-color="#4749C2"/>
<stop offset="1" stop-color="#4446C1"/>
</linearGradient>
<linearGradient id="paint3_linear_2_17" x1="133.418" y1="577.178" x2="388.652" y2="577.178" gradientUnits="userSpaceOnUse">
<stop stop-color="#45A0F5"/>
<stop offset="1" stop-color="#26E3C2"/>
</linearGradient>
<clipPath id="clip0_2_17">
<rect width="19.1188" height="19.1188" fill="white" transform="translate(190.848 362.492)"/>
</clipPath>
<clipPath id="clip1_2_17">
<rect width="19.1188" height="19.1188" fill="white" transform="translate(197 408)"/>
</clipPath>
<clipPath id="clip2_2_17">
<rect width="19.1188" height="19.1188" fill="white" transform="translate(190.848 450.693)"/>
</clipPath>
</defs>
</svg>
