<svg width="21" height="20" viewBox="0 0 21 20" fill="none" xmlns="http://www.w3.org/2000/svg">
<g clip-path="url(#clip0_108_55)">
<path d="M17.0834 3.87109C15.8649 3.31195 14.5581 2.90001 13.1919 2.66408C13.167 2.65952 13.1421 2.6709 13.1293 2.69366C12.9612 2.99256 12.7751 3.38251 12.6447 3.689C11.1752 3.469 9.71326 3.469 8.27389 3.689C8.1435 3.37569 7.95059 2.99256 7.78178 2.69366C7.76896 2.67166 7.74411 2.66028 7.71923 2.66408C6.35371 2.89926 5.04699 3.3112 3.82767 3.87109C3.81711 3.87564 3.80806 3.88323 3.80206 3.89309C1.32347 7.59604 0.644479 11.208 0.977568 14.7751C0.979075 14.7926 0.988872 14.8093 1.00244 14.8199C2.63774 16.0208 4.22181 16.7499 5.77646 17.2332C5.80134 17.2407 5.82771 17.2316 5.84354 17.2112C6.21129 16.7089 6.53911 16.1794 6.82019 15.6225C6.83677 15.5899 6.82094 15.5512 6.78704 15.5383C6.26706 15.3411 5.77194 15.1006 5.29566 14.8275C5.25799 14.8055 5.25498 14.7516 5.28963 14.7258C5.38986 14.6507 5.49011 14.5726 5.58581 14.4937C5.60313 14.4793 5.62725 14.4762 5.64761 14.4853C8.77652 15.9139 12.1639 15.9139 15.2559 14.4853C15.2763 14.4755 15.3004 14.4785 15.3185 14.4929C15.4142 14.5718 15.5144 14.6507 15.6154 14.7258C15.6501 14.7516 15.6478 14.8055 15.6101 14.8275C15.1339 15.1059 14.6387 15.3411 14.118 15.5376C14.0841 15.5505 14.069 15.5899 14.0856 15.6225C14.3727 16.1786 14.7005 16.7082 15.0615 17.2104C15.0766 17.2316 15.1037 17.2407 15.1286 17.2332C16.6908 16.7499 18.2748 16.0208 19.9101 14.8199C19.9245 14.8093 19.9335 14.7934 19.935 14.7759C20.3337 10.6519 19.2673 7.06955 17.1083 3.89384C17.103 3.88323 17.094 3.87564 17.0834 3.87109ZM7.28744 12.6031C6.34542 12.6031 5.56923 11.7383 5.56923 10.6762C5.56923 9.61404 6.33037 8.7492 7.28744 8.7492C8.25202 8.7492 9.0207 9.62164 9.00562 10.6762C9.00562 11.7383 8.24448 12.6031 7.28744 12.6031ZM13.6402 12.6031C12.6982 12.6031 11.922 11.7383 11.922 10.6762C11.922 9.61404 12.6832 8.7492 13.6402 8.7492C14.6048 8.7492 15.3735 9.62164 15.3584 10.6762C15.3584 11.7383 14.6048 12.6031 13.6402 12.6031Z" fill="white"/>
</g>
<defs>
<clipPath id="clip0_108_55">
<rect width="19.1188" height="19.1188" fill="white" transform="translate(0.89856 0.560669)"/>
</clipPath>
</defs>
</svg>
