<svg width="20" height="20" viewBox="0 0 20 20" fill="none" xmlns="http://www.w3.org/2000/svg">
<g clip-path="url(#clip0_108_56)">
<path fill-rule="evenodd" clip-rule="evenodd" d="M10.3061 0.652344C8.03669 0.653521 5.84172 1.45729 4.11366 2.91993C2.38559 4.38257 1.2371 6.4087 0.873559 8.63603C0.510016 10.8634 0.955118 13.1466 2.12929 15.0776C3.30345 17.0086 5.13011 18.4613 7.28264 19.176C7.75753 19.2642 7.9364 18.9698 7.9364 18.7196C7.9364 18.4693 7.9269 17.7437 7.92373 16.9505C5.26439 17.525 4.70245 15.8283 4.70245 15.8283C4.26872 14.7265 3.64187 14.4369 3.64187 14.4369C2.77442 13.8482 3.70678 13.8593 3.70678 13.8593C4.66763 13.9269 5.17259 14.8398 5.17259 14.8398C6.02421 16.2926 7.40928 15.8723 7.95381 15.6268C8.03929 15.0114 8.28781 14.5927 8.56166 14.3551C6.43735 14.1158 4.2054 13.3005 4.2054 9.65842C4.19223 8.71387 4.54475 7.80042 5.19 7.10707C5.09185 6.86783 4.76418 5.90143 5.28338 4.58877C5.28338 4.58877 6.08594 4.33379 7.91266 5.56304C9.4795 5.13699 11.1326 5.13699 12.6995 5.56304C14.5246 4.33379 15.3256 4.58877 15.3256 4.58877C15.8464 5.89828 15.5187 6.86468 15.4206 7.10707C16.0678 7.80053 16.4211 8.71557 16.4067 9.66157C16.4067 13.3115 14.17 14.1158 12.0426 14.3503C12.3845 14.6462 12.69 15.2239 12.69 16.1116C12.69 17.3833 12.6789 18.4064 12.6789 18.7196C12.6789 18.973 12.8514 19.2689 13.3358 19.176C15.4886 18.4612 17.3154 17.0082 18.4896 15.0769C19.6637 13.1456 20.1086 10.862 19.7446 8.63448C19.3807 6.40694 18.2316 4.38079 16.503 2.9184C14.7744 1.45601 12.5789 0.652775 10.3092 0.652344H10.3061Z" fill="white"/>
<path d="M7.14154 16.1666C7.14154 16.2437 7.05291 16.3098 6.93893 16.3114C6.82496 16.313 6.73157 16.25 6.73157 16.1729C6.73157 16.0958 6.82021 16.0297 6.93418 16.0281C7.04815 16.0265 7.14154 16.0879 7.14154 16.1666Z" fill="white"/>
<path d="M7.86973 16.0454C7.88397 16.1225 7.80482 16.2028 7.69085 16.2217C7.57688 16.2406 7.47716 16.1949 7.46291 16.1194C7.44866 16.0439 7.53098 15.962 7.64178 15.9415C7.75259 15.9211 7.85548 15.9683 7.86973 16.0454Z" fill="white"/>
<path d="M6.35948 16.1132C6.33574 16.1872 6.22809 16.2202 6.12045 16.1887C6.01281 16.1572 5.94158 16.0691 5.96216 15.9936C5.98274 15.918 6.09196 15.8834 6.20119 15.918C6.31041 15.9526 6.38006 16.0361 6.35948 16.1132Z" fill="white"/>
<path d="M5.64252 15.8046C5.59028 15.8628 5.48423 15.8471 5.39717 15.7684C5.3101 15.6897 5.28952 15.5827 5.34176 15.526C5.39399 15.4694 5.50005 15.4851 5.59028 15.5622C5.68051 15.6393 5.69792 15.7479 5.64252 15.8046Z" fill="white"/>
<path d="M5.13123 15.2758C5.07266 15.3167 4.97293 15.2758 4.91752 15.194C4.9022 15.1793 4.89002 15.1617 4.8817 15.1422C4.87337 15.1227 4.86908 15.1018 4.86908 15.0806C4.86908 15.0595 4.87337 15.0385 4.8817 15.0191C4.89002 14.9996 4.9022 14.982 4.91752 14.9673C4.97609 14.928 5.07582 14.9673 5.13123 15.0476C5.18663 15.1279 5.18821 15.2349 5.13123 15.2758Z" fill="white"/>
<path d="M4.75448 14.7296C4.7217 14.746 4.68419 14.7506 4.64839 14.7426C4.61258 14.7345 4.5807 14.7144 4.5582 14.6855C4.49646 14.6194 4.48379 14.5282 4.53128 14.4872C4.57877 14.4463 4.66425 14.4652 4.72599 14.5313C4.78772 14.5974 4.80197 14.6887 4.75448 14.7296Z" fill="white"/>
<path d="M4.36662 14.3C4.34604 14.3472 4.27006 14.3613 4.20832 14.3283C4.14659 14.2952 4.10069 14.2339 4.12285 14.1851C4.14501 14.1363 4.21941 14.1237 4.28114 14.1567C4.34288 14.1898 4.39036 14.2527 4.36662 14.3Z" fill="white"/>
</g>
<defs>
<clipPath id="clip0_108_56">
<rect width="19.1188" height="19.1188" fill="white" transform="translate(0.74646 0.254028)"/>
</clipPath>
</defs>
</svg>
