<svg width="20" height="20" viewBox="0 0 20 20" fill="none" xmlns="http://www.w3.org/2000/svg">
<g clip-path="url(#clip0_108_51)">
<path d="M19.6788 9.83233C19.6788 9.18251 19.6261 8.52918 19.5137 7.88989H10.497V11.571H15.6605C15.4462 12.7583 14.7577 13.8085 13.7496 14.4759V16.8644H16.8301C18.6391 15.1995 19.6788 12.7407 19.6788 9.83233Z" fill="#4285F4"/>
<path d="M10.497 19.1722C13.0753 19.1722 15.2495 18.3257 16.8337 16.8644L13.7532 14.4759C12.8961 15.059 11.7897 15.3892 10.5006 15.3892C8.00665 15.3892 5.89209 13.7067 5.13338 11.4446H1.95453V13.9069C3.57733 17.1349 6.88263 19.1722 10.497 19.1722Z" fill="#34A853"/>
<path d="M5.12985 11.4446C4.72942 10.2574 4.72942 8.9718 5.12985 7.78456V5.32227H1.9545C0.598661 8.02341 0.598661 11.2058 1.9545 13.9069L5.12985 11.4446Z" fill="#FBBC04"/>
<path d="M10.497 3.83639C11.8599 3.81532 13.1771 4.32815 14.1641 5.26951L16.8934 2.54026C15.1652 0.917465 12.8715 0.0252782 10.497 0.0533786C6.88263 0.0533786 3.57732 2.09066 1.95453 5.3222L5.12987 7.78449C5.88507 5.5189 8.00313 3.83639 10.497 3.83639Z" fill="#EA4335"/>
</g>
<defs>
<clipPath id="clip0_108_51">
<rect width="19.1188" height="19.1188" fill="white" transform="translate(0.74646 0.0527344)"/>
</clipPath>
</defs>
</svg>
